<svg width="95" height="39" viewBox="0 0 95 39" fill="none" xmlns="http://www.w3.org/2000/svg">
<g clip-path="url(#clip0_376_2423)">
<path d="M33.2575 18.67L45.0402 32.1569H41.3533L31.092 20.3648L27.0241 23.3652V32.1569H24.2158V0.370605H27.0241V19.8767L40.2361 10.1959H44.7265L33.2575 18.67ZM13.5203 0.370605H11.3769L11.3134 0.508586C8.68131 6.2361 5.27687 9.3003 0.599834 10.1412L0.406738 10.1764V12.8175L0.676294 12.7772C4.89069 12.1263 8.71112 9.99542 10.655 7.24621L10.6304 29.8035H0.406738V32.1569H21.5306V29.8035H13.5203V0.370605ZM63.4957 1.46143L63.7005 1.37162L63.3246 0.395338L63.1081 0.474742C53.3342 4.05574 46.2415 13.8133 46.2415 23.6712C46.2415 29.5289 49.1107 34.8997 53.9174 38.0497L54.0987 38.1695L54.7934 37.2584L54.6211 37.1126C51.3189 34.3269 49.3479 29.4442 49.3479 24.0512C49.3479 14.2754 55.0332 5.19602 63.4957 1.46143ZM86.9171 0.492965L86.7358 0.374511L86.0411 1.2857L86.2134 1.43019C89.5156 4.21584 91.4867 9.09854 91.4867 14.4915C91.4867 24.2726 85.8014 33.352 77.3389 37.0852L77.1342 37.1763L77.51 38.1579L77.7264 38.0785C87.5003 34.4884 94.593 24.7373 94.593 14.8716C94.593 9.01914 91.7239 3.6496 86.9171 0.492965ZM63.9791 29.1306C62.5353 30.2318 62.5353 25.6016 60.0084 25.7291C54.9709 25.9543 56.1463 32.8769 60.8934 32.3131C63.0059 32.1621 65.1428 30.7447 68.9776 24.9025L68.3632 23.2768C66.7123 25.8411 65.1571 28.0891 63.9791 29.1292V29.1306ZM81.5845 23.0568L80.3145 22.4593C79.03 24.8752 77.8144 28.2936 75.6035 28.3637C73.9319 28.4158 73.53 25.7785 72.7279 23.9692C72.7279 23.9692 72.5271 23.4316 72.2096 22.5817H72.2018C72.2018 22.5817 68.2672 12.2838 68.0132 11.8191C65.0197 6.57454 60.9659 16.3009 59.1892 19.4419L60.4592 20.0381C61.7551 17.6664 64.6062 11.5601 66.8095 15.4587C67.1826 16.1876 70.6661 25.5079 70.6765 25.5312C72.299 29.2749 73.1296 32.2468 74.7197 32.2468C77.383 32.2468 79.5963 26.6324 81.4794 23.2651L81.5845 23.0568ZM77.567 12.8852C78.535 12.0443 78.8629 12.3216 79.3152 13.4189C79.6871 14.2455 80.1524 15.2738 81.368 15.3038C82.8609 15.365 84.2086 14.0567 84.0415 12.5429C83.864 10.6788 82.3088 9.68951 80.4167 9.91472C78.1554 10.1139 76.1142 11.4768 71.9206 17.9931L72.54 19.6359C74.7237 16.159 76.2335 14.1322 77.5722 12.8839L77.567 12.8852ZM72.2018 22.5817C71.7728 21.4453 72.194 22.5817 72.194 22.5817H72.2018Z" fill="white"/>
</g>
<defs>
<clipPath id="clip0_376_2423">
<rect width="94.3871" height="38" fill="white" transform="translate(0.306396 0.27002)"/>
</clipPath>
</defs>
</svg>
