<svg width="173" height="34" viewBox="0 0 173 34" fill="none" xmlns="http://www.w3.org/2000/svg">
<g clip-path="url(#clip0_376_2880)">
<path d="M12.406 26.2021L12.3354 23.7884C11.4839 24.6642 10.4757 25.3724 9.36305 25.8763C8.36188 26.3031 7.28423 26.5214 6.19591 26.5176C5.30528 26.538 4.41775 26.4056 3.57185 26.1262C2.90331 25.8992 2.29168 25.5305 1.7788 25.0452C1.31264 24.5949 0.958379 24.0416 0.744346 23.4298C0.519211 22.7837 0.407227 22.1037 0.413322 21.4196C0.413322 19.6231 1.08284 18.2161 2.42188 17.199C3.76092 16.1817 5.73844 15.6731 8.35445 15.6731H12.0681V14.1025C12.0681 13.0427 11.7291 12.1951 11.0509 11.5595C10.3728 10.9238 9.33718 10.6032 7.94412 10.5974C6.93776 10.5989 5.93483 10.7146 4.95456 10.9422C3.91813 11.187 2.90153 11.5092 1.91328 11.906V9.10437C2.30465 8.96127 2.74256 8.82162 3.22358 8.68541C3.70459 8.54921 4.21493 8.42681 4.74939 8.3199C5.28386 8.21301 5.84418 8.12681 6.42692 8.0613C7.01369 7.99557 7.60367 7.96277 8.19411 7.96303C9.18264 7.95081 10.1683 8.07084 11.1251 8.3199C11.9263 8.52486 12.6757 8.89545 13.325 9.40781C13.9266 9.89991 14.3998 10.5306 14.7043 11.2457C15.0418 12.0724 15.2057 12.9597 15.1853 13.8525V26.2021H12.406ZM12.0612 18.0455H8.12342C7.44937 18.0335 6.77675 18.1117 6.12349 18.2782C5.62367 18.4023 5.15438 18.627 4.74422 18.9385C4.39797 19.212 4.12537 19.5675 3.95115 19.973C3.77317 20.3999 3.68514 20.8588 3.69253 21.3213C3.69121 21.6577 3.74538 21.992 3.85286 22.3108C3.9598 22.6261 4.13661 22.9132 4.3701 23.1505C4.63288 23.4095 4.9496 23.6073 5.29765 23.7298C5.74557 23.8834 6.21734 23.9558 6.6907 23.9436C7.40448 23.9436 8.22228 23.7263 9.14408 23.2918C10.2152 22.7525 11.1992 22.055 12.063 21.223L12.0612 18.0455ZM51.3444 25.5418C50.5388 25.8512 49.705 26.0822 48.8549 26.2314C47.9885 26.3826 47.1104 26.4588 46.2309 26.4589C43.3976 26.4589 41.2172 25.6918 39.6897 24.1574C38.1621 22.6229 37.3972 20.3816 37.3949 17.4334C37.3777 16.1189 37.6015 14.8123 38.0552 13.5784C38.4631 12.4678 39.0951 11.4531 39.9121 10.5974C40.72 9.77167 41.6928 9.12546 42.7672 8.70094C43.9321 8.24385 45.1744 8.01668 46.4257 8.03199C47.2985 8.0283 48.1703 8.0946 49.0324 8.23026C49.8271 8.35719 50.6049 8.57291 51.3513 8.87334V11.8353C50.6048 11.4404 49.8104 11.1437 48.9877 10.9526C48.171 10.7663 47.3358 10.6732 46.498 10.675C45.7221 10.6706 44.9533 10.8255 44.2395 11.1302C43.5338 11.433 42.899 11.8799 42.3757 12.4422C41.8165 13.0464 41.3833 13.7563 41.1017 14.5301C40.7807 15.4249 40.6253 16.3708 40.6431 17.3214C40.6431 19.4868 41.1695 21.1081 42.2224 22.185C43.2752 23.262 44.7361 23.8004 46.6049 23.8004C47.4312 23.802 48.2546 23.706 49.0584 23.5142C49.8548 23.3208 50.6247 23.0312 51.3513 22.6522L51.3444 25.5418ZM69.0319 26.2021L68.9594 23.7884C68.1086 24.664 67.1009 25.3722 65.9888 25.8763C64.9891 26.3041 63.9127 26.5241 62.8251 26.5228C61.9351 26.543 61.0481 26.4107 60.2028 26.1314C59.534 25.904 58.9219 25.5352 58.408 25.0504C57.943 24.599 57.5889 24.0462 57.3737 23.435C57.1484 22.7872 57.0371 22.1052 57.0442 21.4196C57.0442 19.6231 57.7133 18.2161 59.0511 17.199C60.389 16.1817 62.3671 15.6731 64.9855 15.6731H68.6974V14.1025C68.6974 13.0427 68.3584 12.1951 67.6801 11.5595C67.0021 10.9238 65.9676 10.6055 64.5769 10.6043C63.5705 10.6056 62.5674 10.7213 61.5873 10.9491C60.5503 11.1939 59.5332 11.5161 58.5443 11.9129V9.10437C58.9373 8.96127 59.3736 8.82162 59.8563 8.68541C60.3391 8.54921 60.8458 8.42681 61.3822 8.3199C61.9183 8.21301 62.4769 8.12681 63.0596 8.0613C63.6464 7.99557 64.2364 7.96277 64.8268 7.96303C65.8154 7.95055 66.801 8.07057 67.7578 8.3199C68.5607 8.5248 69.3118 8.89538 69.9629 9.40781C70.5645 9.89981 71.0378 10.5305 71.3421 11.2457C71.6803 12.0722 71.8447 12.9596 71.8249 13.8525V26.2021H69.0319ZM68.6871 18.0455H64.7545C64.081 18.0335 63.4089 18.1117 62.7563 18.2782C62.2564 18.4023 61.7871 18.627 61.377 18.9385C61.0301 19.212 60.757 19.5675 60.5821 19.973C60.4042 20.3999 60.3161 20.8588 60.3234 21.3213C60.3221 21.6577 60.3764 21.992 60.4838 22.3108C60.5917 22.6256 60.7685 22.9124 61.0011 23.1505C61.2638 23.4095 61.5806 23.6073 61.9287 23.7298C62.376 23.8832 62.8472 23.9557 63.32 23.9436C64.0338 23.9436 64.852 23.7263 65.775 23.2918C66.8457 22.7523 67.8291 22.0549 68.6922 21.223L68.6871 18.0455ZM92.9241 16.9214C92.9241 18.5167 92.7006 19.9086 92.2535 21.0972C91.8588 22.2065 91.2289 23.2175 90.4071 24.0608C89.6197 24.847 88.6691 25.4503 87.6226 25.8279C86.5066 26.2274 85.3288 26.4264 84.1434 26.4159C83.5739 26.4163 83.0048 26.3863 82.4383 26.3262C81.8574 26.2648 81.2813 26.1634 80.7143 26.0228V33.5277H77.6108V8.2837H80.3695L80.5833 11.2871C81.4763 10.0618 82.4286 9.19977 83.4401 8.70094C84.4606 8.20612 85.5815 7.95304 86.7158 7.96129C87.6542 7.94052 88.5821 8.16137 89.4105 8.60266C90.1996 9.04362 90.8704 9.66884 91.3657 10.425C91.9235 11.2873 92.3224 12.2426 92.5432 13.2456C92.8165 14.4514 92.9484 15.685 92.9363 16.9214H92.9241ZM89.7467 17.0644C89.7523 16.1981 89.6837 15.3329 89.5415 14.4783C89.4322 13.7758 89.2122 13.0949 88.8898 12.4612C88.6231 11.9366 88.2311 11.4859 87.7484 11.1491C87.2596 10.8283 86.685 10.663 86.1003 10.675C85.6943 10.6768 85.2908 10.7401 84.9038 10.8629C84.4566 11.0084 84.0331 11.2187 83.647 11.4871C83.1508 11.8285 82.689 12.2171 82.2676 12.6474C81.712 13.2107 81.1936 13.8096 80.716 14.4404V23.1333C81.3027 23.3767 81.9103 23.5667 82.5314 23.7004C83.1408 23.8347 83.7626 23.9034 84.3866 23.9056C86.0647 23.9056 87.3796 23.3373 88.3313 22.2005C89.2829 21.0637 89.7587 19.3517 89.7587 17.0644H89.7467ZM103.81 10.8578H98.5224V8.2837H106.97V23.6142H112.315V26.2004H97.9327V23.6142H103.822L103.81 10.8578ZM104.91 0.770146C105.241 0.766773 105.569 0.830711 105.874 0.958072C106.166 1.07864 106.431 1.25757 106.651 1.48392C106.87 1.70879 107.045 1.97174 107.169 2.25975C107.296 2.56206 107.359 2.88706 107.356 3.2149C107.357 3.53977 107.294 3.86157 107.169 4.16142C107.046 4.45275 106.871 4.71877 106.651 4.94588C106.43 5.17222 106.166 5.35165 105.874 5.47345C105.255 5.72184 104.565 5.72184 103.946 5.47345C103.655 5.35119 103.391 5.1718 103.17 4.94588C102.95 4.71967 102.774 4.45342 102.653 4.16142C102.528 3.86157 102.464 3.53977 102.465 3.2149C102.462 2.88717 102.525 2.56219 102.652 2.25975C102.774 1.97105 102.949 1.70788 103.169 1.48392C103.39 1.26109 103.654 1.08517 103.945 0.966692C104.25 0.836516 104.578 0.76965 104.91 0.770146ZM132.252 25.9522C131.537 26.1335 130.809 26.2621 130.075 26.3366C129.316 26.4135 128.553 26.4521 127.79 26.4521C125.542 26.4521 123.865 25.9434 122.758 24.9263C121.651 23.909 121.098 22.3476 121.099 20.2419V10.8888H116.084V8.2837H121.099V3.35627L124.203 2.55285V8.2837H132.252V10.8888H124.203V19.9919C124.203 21.2758 124.547 22.2361 125.237 22.8728C125.927 23.5096 126.935 23.828 128.261 23.828C128.888 23.824 129.514 23.7796 130.135 23.6953C130.851 23.5986 131.56 23.4581 132.259 23.2746L132.252 25.9522ZM149.421 26.2021L149.351 23.7884C148.498 24.6642 147.49 25.3724 146.378 25.8763C145.376 26.3031 144.299 26.5214 143.211 26.5176C142.319 26.5403 141.429 26.4096 140.581 26.1314C139.913 25.9044 139.301 25.5357 138.788 25.0504C138.323 24.5995 137.969 24.0464 137.754 23.435C137.53 22.7869 137.418 22.1052 137.424 21.4196C137.424 19.6231 138.094 18.2161 139.433 17.199C140.772 16.1817 142.75 15.6731 145.366 15.6731H149.08V14.1025C149.08 13.0427 148.741 12.1951 148.062 11.5595C147.384 10.9238 146.349 10.6055 144.959 10.6043C143.953 10.6058 142.95 10.7215 141.969 10.9491C140.933 11.1939 139.916 11.5161 138.928 11.9129V9.10437C139.319 8.96127 139.757 8.82162 140.238 8.68541C140.719 8.54921 141.23 8.42681 141.764 8.3199C142.298 8.21301 142.859 8.12681 143.442 8.0613C144.028 7.99563 144.619 7.96281 145.208 7.96303C146.197 7.95081 147.183 8.07084 148.14 8.3199C148.94 8.52486 149.691 8.89545 150.339 9.40781C150.942 9.89991 151.414 10.5306 151.72 11.2457C152.057 12.0724 152.22 12.9597 152.2 13.8525V26.2021H149.421ZM149.075 18.0455H145.138C144.464 18.0335 143.791 18.1117 143.138 18.2782C142.638 18.4023 142.169 18.627 141.759 18.9385C141.413 19.212 141.14 19.5675 140.966 19.973C140.788 20.3999 140.7 20.8588 140.707 21.3213C140.706 21.6577 140.76 21.992 140.868 22.3108C140.974 22.6261 141.151 22.9132 141.385 23.1505C141.647 23.4095 141.964 23.6073 142.312 23.7298C142.76 23.8834 143.232 23.9558 143.705 23.9436C144.419 23.9436 145.237 23.7263 146.158 23.2918C147.23 22.7525 148.214 22.055 149.078 21.223L149.075 18.0455ZM164.11 3.52868H158.809V0.983933H167.257V23.6142H172.601V26.2004H158.221V23.6142H164.11V3.52868ZM37.1069 28.84H17.0111V26.2694H37.1069V28.84Z" fill="white"/>
</g>
<defs>
<clipPath id="clip0_376_2880">
<rect width="172.174" height="33" fill="white" transform="translate(0.413086 0.77002)"/>
</clipPath>
</defs>
</svg>
