<svg width="253" height="45" viewBox="0 0 253 45" fill="none" xmlns="http://www.w3.org/2000/svg">
<g clip-path="url(#clip0_376_2447)">
<path fill-rule="evenodd" clip-rule="evenodd" d="M38.8088 29.569H26.2489V7.92725H22.4185V33.3741H22.4381H26.2489H38.8088V29.569Z" fill="white"/>
<path fill-rule="evenodd" clip-rule="evenodd" d="M137.456 7.92773H133.625V33.3738H133.645H137.456H150.016V29.5695H137.456V7.92773Z" fill="white"/>
<path fill-rule="evenodd" clip-rule="evenodd" d="M119.303 21.6297H129.252V17.8254H119.303V11.7325H130.975V7.92822H119.303H115.492H115.473V33.3743H115.492H119.303H131.863V29.5691H119.303V21.6297Z" fill="white"/>
<path fill-rule="evenodd" clip-rule="evenodd" d="M155.648 21.6297H165.598V17.8254H155.648V11.7325H167.319V7.92822H155.648H151.837H151.819V33.3743H151.837H155.648H168.208V29.5691H155.648V21.6297Z" fill="white"/>
<path fill-rule="evenodd" clip-rule="evenodd" d="M192.513 8.04124L192.498 8.02794L196.924 33.0924H200.773L198.095 17.7706L213.948 33.0196H219.351L192.354 7.14941L192.513 8.04124Z" fill="white"/>
<path fill-rule="evenodd" clip-rule="evenodd" d="M203.894 33.0814H204.786L207.842 33.0645H209.096L202.833 27.064L202.87 27.2708L202.867 27.268L203.894 33.0814Z" fill="white"/>
<path fill-rule="evenodd" clip-rule="evenodd" d="M239.522 7.92773H235.712H235.691V33.3738H235.712H239.522H252.082V29.5687H239.522V21.6292H249.472V17.8257H239.522V11.7329H251.193V7.92773H239.522Z" fill="white"/>
<path fill-rule="evenodd" clip-rule="evenodd" d="M221.552 7.92773H213.485V11.732H221.552V33.3738H225.382V11.732H233.63V7.92773H225.382H221.552Z" fill="white"/>
<path fill-rule="evenodd" clip-rule="evenodd" d="M173.733 19.6045V11.7493H180.939C183.122 11.7493 184.893 13.508 184.893 15.6768C184.893 17.8465 183.122 19.6045 180.939 19.6045H173.733ZM188.886 15.6768C188.886 11.397 185.394 7.92725 181.084 7.92725H173.733H169.903H169.88V23.4274H169.903V33.3741H173.733V23.4274H177.989L184.786 33.3741H189.559L182.557 23.288C186.162 22.6038 188.886 19.4572 188.886 15.6768Z" fill="white"/>
<path fill-rule="evenodd" clip-rule="evenodd" d="M12.5775 29.5349H3.93832V21.6797H12.5775C14.7612 21.6797 16.5321 23.4376 16.5321 25.6074C16.5321 27.7769 14.7612 29.5349 12.5775 29.5349ZM11.2078 11.9583C12.8286 11.9583 14.1429 13.2637 14.1429 14.8743C14.1429 16.4832 12.8286 17.7893 11.2078 17.7893H3.93832V11.9583H11.2078ZM16.6232 18.8941C17.4675 17.911 17.9769 16.6367 17.9769 15.2443V14.4004C17.9769 10.826 15.0588 7.92773 11.4589 7.92773H3.93832H2.1013H0.10791V33.3737H3.93832V33.3569H12.7223C17.0316 33.3569 20.526 29.8873 20.526 25.6074C20.526 22.7384 18.9561 20.2342 16.6232 18.8941Z" fill="white"/>
<path fill-rule="evenodd" clip-rule="evenodd" d="M104.447 7.90527C98.2171 7.90527 93.0303 12.328 91.8911 18.1848H95.8091C96.9296 14.5013 100.372 11.8196 104.447 11.8196C107.073 11.8196 109.437 12.9341 111.086 14.7134L113.755 11.8986C111.423 9.44047 108.115 7.90527 104.447 7.90527Z" fill="white"/>
<path fill-rule="evenodd" clip-rule="evenodd" d="M104.446 29.74C100.201 29.74 96.6416 26.8285 95.6803 22.9062H91.8677C92.9578 28.8224 98.174 33.3064 104.446 33.3064C108.091 33.3064 111.38 31.7917 113.708 29.362L111.139 26.7877C109.489 28.6006 107.102 29.74 104.446 29.74Z" fill="white"/>
<path fill-rule="evenodd" clip-rule="evenodd" d="M80.7583 29.74C76.5132 29.74 72.9537 26.8285 71.9922 22.9062H68.1797C69.2698 28.8224 74.4868 33.3064 80.7583 33.3064C84.4028 33.3064 87.6918 31.7917 90.0212 29.362L87.4515 26.7877C85.8011 28.6006 83.4137 29.74 80.7583 29.74Z" fill="white"/>
<path fill-rule="evenodd" clip-rule="evenodd" d="M80.7584 11.8191C83.3843 11.8191 85.7494 12.9336 87.398 14.7129L90.0668 11.8981C87.7357 9.43997 84.4271 7.90479 80.7584 7.90479C74.5299 7.90479 69.3422 12.3284 68.2039 18.1844H72.121C73.2414 14.5008 76.6841 11.8191 80.7584 11.8191Z" fill="white"/>
<path fill-rule="evenodd" clip-rule="evenodd" d="M46.597 26.6169C45.6856 25.5635 45.0164 24.299 44.675 22.9058H40.8625C41.3513 25.56 42.671 27.9258 44.5437 29.7272L46.597 26.6169Z" fill="white"/>
<path fill-rule="evenodd" clip-rule="evenodd" d="M53.441 11.8191C54.3676 11.8191 55.261 11.9584 56.1027 12.2158L58.3167 8.8614C56.8138 8.24554 55.1672 7.90479 53.441 7.90479C47.2125 7.90479 42.0248 12.3284 40.8865 18.1844H44.8036C45.924 14.5008 49.3666 11.8191 53.441 11.8191Z" fill="white"/>
<path fill-rule="evenodd" clip-rule="evenodd" d="M62.2954 11.4438L60.1135 14.7502C61.0053 15.7229 61.6843 16.8925 62.0774 18.1845H65.9955C65.4852 15.5605 64.1611 13.2239 62.2954 11.4438Z" fill="white"/>
<path fill-rule="evenodd" clip-rule="evenodd" d="M62.9452 29.102C64.4946 27.3928 65.5846 25.2631 66.0189 22.9062H62.2064C61.9392 23.9995 61.4684 25.0146 60.8384 25.9091L62.9452 29.102Z" fill="white"/>
<path fill-rule="evenodd" clip-rule="evenodd" d="M53.4408 29.7401C52.4231 29.7401 51.4456 29.5724 50.5334 29.2644L48.5115 32.3277C50.0286 32.9578 51.6932 33.3065 53.4408 33.3065C55.4941 33.3065 57.4348 32.8256 59.1547 31.9709L57.1587 28.9458C56.0248 29.4561 54.7659 29.7401 53.4408 29.7401Z" fill="white"/>
<path fill-rule="evenodd" clip-rule="evenodd" d="M64.8089 36.2264C64.1209 36.2264 63.5633 35.6727 63.5633 34.9894C63.5633 34.307 64.1209 33.7532 64.8089 33.7532C65.4968 33.7532 66.0544 34.307 66.0544 34.9894C66.0544 35.6727 65.4968 36.2264 64.8089 36.2264ZM52.0257 24.2217C51.5181 24.0211 51.0634 23.7167 50.6898 23.3334C50.0242 22.6501 49.6133 21.7211 49.6133 20.6961C49.6133 18.6009 51.3233 16.9033 53.432 16.9033C53.8564 16.9033 54.2648 16.9725 54.6463 17.1004C54.7106 17.1216 54.7749 17.1447 54.8383 17.1695C55.2815 17.3443 55.6854 17.599 56.0285 17.9158C56.78 18.6081 57.2507 19.5975 57.2507 20.6961C57.2507 22.7904 55.5407 24.4879 53.432 24.4879C52.9352 24.4879 52.4617 24.393 52.0257 24.2217ZM40.5103 41.7326C39.8223 41.7326 39.2647 41.1798 39.2647 40.4965C39.2647 39.8132 39.8223 39.2594 40.5103 39.2594C41.1974 39.2594 41.7549 39.8132 41.7549 40.4965C41.7549 41.1798 41.1974 41.7326 40.5103 41.7326ZM35.9705 21.887C35.2825 21.887 34.7249 21.3332 34.7249 20.6499C34.7249 19.9675 35.2825 19.4138 35.9705 19.4138C36.6575 19.4138 37.2151 19.9675 37.2151 20.6499C37.2151 21.3332 36.6575 21.887 35.9705 21.887ZM64.6972 1.85934C65.3852 1.85934 65.9427 2.41308 65.9427 3.09548C65.9427 3.77877 65.3852 4.33251 64.6972 4.33251C64.0092 4.33251 63.4516 3.77877 63.4516 3.09548C63.4516 2.41308 64.0092 1.85934 64.6972 1.85934ZM80.3628 19.4138C81.0508 19.4138 81.6083 19.9675 81.6083 20.6499C81.6083 21.3332 81.0508 21.887 80.3628 21.887C79.6757 21.887 79.1181 21.3332 79.1181 20.6499C79.1181 19.9675 79.6757 19.4138 80.3628 19.4138ZM104.514 19.4138C105.201 19.4138 105.758 19.9675 105.758 20.6499C105.758 21.3332 105.201 21.887 104.514 21.887C103.825 21.887 103.268 21.3332 103.268 20.6499C103.268 19.9675 103.825 19.4138 104.514 19.4138ZM64.7999 32.1639C64.4595 32.1639 64.1334 32.2233 63.8304 32.3324L57.8208 24.921C58.7214 23.9981 59.33 22.7939 59.5016 21.4539H77.6198V21.3953C77.9513 22.5862 79.0493 23.462 80.3539 23.462C81.6575 23.462 82.7556 22.588 83.0879 21.3989H101.77C102.103 22.588 103.201 23.462 104.505 23.462C106.072 23.462 107.343 22.1994 107.343 20.6428C107.343 19.0864 106.072 17.8245 104.505 17.8245C103.232 17.8245 102.155 18.6568 101.795 19.8025H83.0638C82.7038 18.6568 81.6271 17.8245 80.3539 17.8245C79.0493 17.8245 77.9513 18.6994 77.6198 19.8903V19.8575H77.3982V19.8025H59.4863C59.2621 18.2513 58.4481 16.8892 57.2785 15.9458L63.7519 5.7488C64.0449 5.85085 64.3604 5.90676 64.6882 5.90676C66.2564 5.90676 67.5268 4.64487 67.5268 3.08839C67.5268 1.5319 66.2564 0.27002 64.6882 0.27002C63.1211 0.27002 61.8505 1.5319 61.8505 3.08839C61.8505 3.73885 62.0729 4.33695 62.4447 4.81348L55.9088 15.1108C55.1466 14.7727 54.3023 14.5854 53.4141 14.5854C50.3057 14.5854 47.7377 16.8803 47.3321 19.8575H38.6867C38.3444 18.6835 37.2545 17.8245 35.9615 17.8245C34.3943 17.8245 33.1238 19.0864 33.1238 20.6428C33.1238 22.1994 34.3943 23.462 35.9615 23.462C37.2446 23.462 38.3293 22.6155 38.6796 21.4539H47.3258C47.5225 22.9954 48.2989 24.3565 49.431 25.3168L41.4797 37.8423C41.1742 37.7314 40.8453 37.6701 40.5013 37.6701C38.9342 37.6701 37.6636 38.932 37.6636 40.4894C37.6636 42.0459 38.9342 43.3078 40.5013 43.3078C42.0686 43.3078 43.3391 42.0459 43.3391 40.4894C43.3391 39.8549 43.1282 39.2702 42.7726 38.7989L50.7792 26.1864C51.5772 26.5635 52.4706 26.7747 53.4141 26.7747C54.5641 26.7747 55.6407 26.4606 56.5611 25.9131L62.5367 33.2828C62.1766 33.7549 61.9622 34.3443 61.9622 34.9823C61.9622 36.5396 63.2327 37.8006 64.7999 37.8006C66.368 37.8006 67.6386 36.5396 67.6386 34.9823C67.6386 33.4257 66.368 32.1639 64.7999 32.1639Z" fill="white"/>
</g>
<defs>
<clipPath id="clip0_376_2447">
<rect width="252.784" height="44" fill="white" transform="translate(0.10791 0.27002)"/>
</clipPath>
</defs>
</svg>
