<svg width="193" height="36" viewBox="0 0 193 36" fill="none" xmlns="http://www.w3.org/2000/svg">
<g clip-path="url(#clip0_376_2609)">
<path d="M24.3435 9.85831C23.4376 8.68144 22.2876 7.77799 20.899 7.14498C19.5076 6.51196 18.0713 6.19397 16.5935 6.19397C14.7789 6.19397 13.1401 6.53277 11.6741 7.21037C10.2082 7.88795 8.95374 8.81518 7.91087 9.99205C6.86801 11.1689 6.06053 12.5479 5.48547 14.1289C4.91041 15.713 4.62436 17.4069 4.62436 19.2168C4.62436 20.9048 4.89551 22.5037 5.44077 24.0104C5.98604 25.5172 6.76968 26.8456 7.79765 27.9897C8.82562 29.137 10.08 30.0404 11.5609 30.7032C13.0418 31.3659 14.7193 31.6988 16.5935 31.6988C18.4676 31.6988 20.0529 31.3214 21.4442 30.5694C22.8329 29.8175 24.0127 28.7596 24.981 27.4045L28.6519 30.1623C28.4106 30.4952 27.9875 30.9677 27.3826 31.5858C26.7779 32.2039 25.9762 32.8221 24.981 33.4402C23.9829 34.0584 22.7822 34.6022 21.3758 35.0689C19.9695 35.5356 18.3455 35.7702 16.5011 35.7702C13.9625 35.7702 11.6741 35.2888 9.6331 34.323C7.59205 33.357 5.85494 32.091 4.41876 30.5249C2.98259 28.9587 1.8861 27.1875 1.13225 25.2111C0.375432 23.2377 0 21.2406 0 19.2198C0 16.7472 0.408207 14.4648 1.22462 12.3696C2.04104 10.2744 3.18222 8.46747 4.6482 6.94289C6.11416 5.42128 7.87512 4.23846 9.93106 3.39445C11.987 2.55043 14.2515 2.12842 16.7305 2.12842C18.8461 2.12842 20.9228 2.53557 22.9639 3.34987C25.005 4.16416 26.6736 5.41533 27.9725 7.10336L24.3465 9.86129L24.3435 9.85831Z" fill="white"/>
<path d="M30.7974 24.2391C30.7974 22.6728 31.0923 21.2106 31.6822 19.8525C32.2723 18.4944 33.0798 17.3056 34.1078 16.2803C35.1358 15.255 36.3454 14.4496 37.7339 13.8612C39.1225 13.2727 40.6181 12.9785 42.2212 12.9785C43.8243 12.9785 45.3199 13.2727 46.7086 13.8612C48.097 14.4496 49.3066 15.255 50.3346 16.2803C51.3626 17.3056 52.1701 18.4973 52.7602 19.8525C53.3501 21.2077 53.6451 22.6728 53.6451 24.2391C53.6451 25.8053 53.3501 27.2763 52.7602 28.6463C52.1701 30.0193 51.3626 31.2081 50.3346 32.2185C49.3066 33.229 48.097 34.0284 46.7086 34.6138C45.317 35.2024 43.8214 35.4966 42.2212 35.4966C40.6213 35.4966 39.1225 35.2024 37.7339 34.6138C36.3425 34.0255 35.1327 33.229 34.1078 32.2185C33.0798 31.2081 32.2723 30.0193 31.6822 28.6463C31.0923 27.2763 30.7974 25.8053 30.7974 24.2391ZM35.1506 24.2391C35.1506 25.3237 35.3175 26.3253 35.6481 27.2465C35.9789 28.1678 36.4497 28.9495 37.0547 29.5974C37.6594 30.2453 38.3984 30.7594 39.2773 31.1339C40.1534 31.5113 41.1367 31.6985 42.2241 31.6985C43.3118 31.6985 44.2951 31.5113 45.171 31.1339C46.0471 30.7565 46.7889 30.2453 47.3938 29.5974C47.9987 28.9495 48.4664 28.1649 48.8002 27.2465C49.1339 26.3282 49.2979 25.3237 49.2979 24.2391C49.2979 23.1543 49.131 22.1527 48.8002 21.2314C48.4664 20.3132 47.9987 19.5286 47.3938 18.8807C46.7889 18.2328 46.05 17.7217 45.171 17.3442C44.2951 16.9668 43.3118 16.7796 42.2241 16.7796C41.1367 16.7796 40.1534 16.9668 39.2773 17.3442C38.4014 17.7217 37.6594 18.2328 37.0547 18.8807C36.4497 19.5286 35.9819 20.3132 35.6481 21.2314C35.3145 22.1498 35.1506 23.1543 35.1506 24.2391Z" fill="white"/>
<path d="M57.0474 5.83389C57.0474 5.01959 57.3423 4.31823 57.9322 3.73276C58.5224 3.14433 59.2255 2.8501 60.0418 2.8501C60.8582 2.8501 61.5614 3.14433 62.1484 3.73276C62.7383 4.32119 63.0335 5.02257 63.0335 5.83389C63.0335 6.64521 62.7383 7.34956 62.1484 7.93799C61.5585 8.52642 60.8553 8.82065 60.0418 8.82065C59.2285 8.82065 58.5224 8.52642 57.9322 7.93799C57.3423 7.34956 57.0474 6.64818 57.0474 5.83389ZM57.9979 13.5222H62.0769V34.9556H57.9979V13.5222Z" fill="white"/>
<path d="M67.7268 13.5224H71.8059V16.8242H71.8954C72.4077 15.68 73.3018 14.7527 74.5711 14.0425C75.8404 13.3351 77.3062 12.9785 78.969 12.9785C79.9969 12.9785 80.9861 13.136 81.9396 13.454C82.8931 13.769 83.7214 14.2594 84.4336 14.9221C85.1426 15.5849 85.7088 16.4378 86.1349 17.478C86.558 18.5181 86.7695 19.7455 86.7695 21.1631V34.9557H82.6905V22.2954C82.6905 21.2998 82.5535 20.4499 82.2823 19.7396C82.0111 19.0323 81.6476 18.4587 81.1947 18.0218C80.7418 17.585 80.2203 17.2699 79.6304 17.0708C79.0405 16.8747 78.4295 16.7766 77.795 16.7766C76.9487 16.7766 76.1621 16.9133 75.438 17.1837C74.714 17.4542 74.0794 17.8851 73.5342 18.4736C72.9889 19.062 72.5656 19.8079 72.2648 20.7115C71.9609 21.6148 71.812 22.6847 71.812 23.921V34.9528H67.7329V13.5224H67.7268Z" fill="white"/>
<path d="M92.821 2.93945H114.355V9.45087H99.8916V15.9623H113.264V22.4737H99.8916V34.9527H92.8179V2.93945H92.821Z" fill="white"/>
<path d="M138.924 34.9557H132.396V31.9719H132.306C132.065 32.3939 131.755 32.816 131.377 33.238C130.998 33.6599 130.54 34.0373 129.994 34.3673C129.449 34.7002 128.829 34.9705 128.135 35.1816C127.441 35.3926 126.684 35.4995 125.867 35.4995C124.145 35.4995 122.748 35.2351 121.675 34.7089C120.602 34.183 119.771 33.4518 119.181 32.5158C118.591 31.5826 118.198 30.48 118.001 29.2139C117.805 27.9479 117.706 26.5749 117.706 25.0979V12.9785H124.506V23.7397C124.506 24.3728 124.53 25.0295 124.574 25.7071C124.619 26.3848 124.756 27.0118 124.983 27.5823C125.209 28.156 125.558 28.6226 126.025 28.9851C126.493 29.3477 127.167 29.5289 128.043 29.5289C128.919 29.5289 129.631 29.3714 130.173 29.0535C130.718 28.7356 131.132 28.3166 131.418 27.7875C131.705 27.2615 131.895 26.6642 131.985 26.0013C132.074 25.3386 132.122 24.6462 132.122 23.921V12.9785H138.921V34.9557H138.924Z" fill="white"/>
<path d="M143.468 12.9784H149.997V15.9622H150.086C150.298 15.5402 150.599 15.1182 150.992 14.6962C151.385 14.2742 151.853 13.8968 152.398 13.5669C152.944 13.234 153.56 12.9636 154.258 12.7526C154.952 12.5416 155.709 12.4346 156.525 12.4346C158.247 12.4346 159.639 12.6991 160.697 13.2251C161.754 13.7541 162.577 14.4852 163.167 15.4184C163.756 16.3545 164.156 17.4541 164.367 18.7201C164.579 19.9862 164.686 21.3591 164.686 22.8361V34.9557H157.887V24.1943C157.887 23.5614 157.863 22.9046 157.818 22.2269C157.773 21.5493 157.636 20.9222 157.41 20.3517C157.184 19.7781 156.835 19.3115 156.367 18.949C155.899 18.5864 155.226 18.4051 154.35 18.4051C153.474 18.4051 152.762 18.5626 152.219 18.8806C151.674 19.1986 151.26 19.6206 150.974 20.1466C150.685 20.6757 150.497 21.2701 150.408 21.9328C150.318 22.5954 150.271 23.288 150.271 24.0131V34.9557H143.471V12.9784H143.468Z" fill="white"/>
<path d="M192.075 34.9557H185.818V32.0612H185.728C185.457 32.4534 185.1 32.8516 184.662 33.2588C184.224 33.6659 183.708 34.0344 183.121 34.3673C182.531 34.7002 181.882 34.9707 181.173 35.1816C180.463 35.3926 179.731 35.4996 178.974 35.4996C177.341 35.4996 175.86 35.2201 174.531 34.6615C173.202 34.1029 172.061 33.3212 171.108 32.3107C170.154 31.3003 169.421 30.1025 168.909 28.7148C168.393 27.3298 168.137 25.8053 168.137 24.1469C168.137 22.6104 168.369 21.1394 168.84 19.7396C169.308 18.3369 169.972 17.0946 170.833 16.0099C171.694 14.9251 172.743 14.0574 173.986 13.4095C175.225 12.7616 176.629 12.4377 178.202 12.4377C179.623 12.4377 180.946 12.6576 182.168 13.0945C183.392 13.5313 184.396 14.2773 185.183 15.3323H185.273V0.77002H192.072V34.9557H192.075ZM185.818 23.9686C185.818 22.3104 185.341 20.9701 184.391 19.9447C183.437 18.9194 182.102 18.4082 180.38 18.4082C178.658 18.4082 177.32 18.9223 176.367 19.9447C175.413 20.9701 174.939 22.3104 174.939 23.9686C174.939 25.627 175.416 26.9673 176.367 27.9926C177.32 29.0179 178.655 29.5291 180.38 29.5291C182.105 29.5291 183.44 29.0179 184.391 27.9926C185.344 26.9673 185.818 25.627 185.818 23.9686Z" fill="white"/>
</g>
<defs>
<clipPath id="clip0_376_2609">
<rect width="193" height="35" fill="white" transform="translate(0 0.77002)"/>
</clipPath>
</defs>
</svg>
