<svg width="235" height="42" viewBox="0 0 235 42" fill="none" xmlns="http://www.w3.org/2000/svg">
<g clip-path="url(#clip0_376_2778)">
<mask id="mask0_376_2778" style="mask-type:luminance" maskUnits="userSpaceOnUse" x="0" y="1" width="58" height="41">
<path d="M57.8435 1.25439H0.378906V41.2859H57.8435V1.25439Z" fill="white"/>
</mask>
<g mask="url(#mask0_376_2778)">
<path d="M57.8435 21.2701C57.8435 22.1997 57.4825 23.0693 56.8359 23.714L40.2325 40.2664C39.571 40.9259 38.6987 41.271 37.7812 41.271C36.8637 41.271 35.9766 40.9111 35.3299 40.2664L29.9158 34.8689L30.743 34.0444L34.0063 30.7608L34.8334 29.9361L37.7812 32.9048L49.4365 21.2851L37.7812 9.66549L33.9915 13.3988L33.5101 13.8785L33.1644 14.2234L29.8707 17.5069L29.5549 17.8217L29.0736 18.3015L26.0808 21.2701L28.2464 23.4291L28.081 23.5941L27.7652 23.9389L27.4494 24.2537L24.1859 27.5072L23.84 27.8221L23.3587 28.3019L18.7417 23.699C18.08 23.0393 17.719 22.1697 17.719 21.2552C17.719 20.3406 18.08 19.456 18.7267 18.8113L23.3437 14.2084L24.1708 13.3838L24.3363 13.2189L24.6521 12.904L24.998 12.5592L28.6074 8.96084L28.9232 8.64598L29.0887 8.48105L29.9158 7.65643L35.3299 2.25893C35.9918 1.59923 36.8637 1.25439 37.7812 1.25439C38.6987 1.25439 39.5859 1.61423 40.2325 2.25893L56.8359 18.7813C57.4977 19.471 57.8586 20.3256 57.8586 21.2701M40.4582 21.2701C40.4582 20.3406 40.0972 19.471 39.4354 18.8113L34.8186 14.2084L34.3372 14.6882L34.0215 15.003L30.7279 18.2865L30.4121 18.6014L29.9308 19.0812L32.0965 21.2401L29.9308 23.3992L29.5248 23.804L29.2992 24.0289L29.1187 24.2088L28.9533 24.3737L28.6375 24.6886L28.3216 25.0034L25.0281 28.2569L24.7122 28.5718L24.231 29.0515L23.8249 29.4563L23.4189 29.8612L20.4411 32.8298L8.7858 21.2102L20.4411 9.59053L23.4189 12.5592L23.5843 12.3943L23.9001 12.0794L24.2159 11.7345L27.8253 8.13623L28.1412 7.82137L28.3066 7.65643L22.8925 2.30391C22.2458 1.65921 21.3585 1.29938 20.4411 1.29938C19.5237 1.29938 18.6515 1.64421 17.9898 2.30391L1.38653 18.8562C0.739845 19.5009 0.378906 20.3555 0.378906 21.3001C0.378906 22.2447 0.724807 23.0843 1.38653 23.744L17.9597 40.2964C18.6063 40.9411 19.4936 41.3007 20.411 41.3007C21.3284 41.3007 22.2007 40.9559 22.8624 40.2964L28.2765 34.8989L28.6826 34.4941L29.0887 34.0893L29.9158 33.2647L33.1792 29.9811L34.0063 29.1565L34.4125 28.7517L34.8186 28.3469L39.4354 23.744C40.0824 23.0993 40.4433 22.2447 40.4433 21.3001" fill="white"/>
</g>
<mask id="mask1_376_2778" style="mask-type:luminance" maskUnits="userSpaceOnUse" x="72" y="0" width="163" height="42">
<path d="M234.434 0.77002H72.6938V41.77H234.434V0.77002Z" fill="white"/>
</mask>
<g mask="url(#mask1_376_2778)">
<path d="M205.649 1.2998H187.058V5.81351H205.649V1.2998Z" fill="white"/>
<path d="M120.804 40.1433C119.662 41.2403 118.195 41.77 116.604 41.77C112.488 41.77 110.774 38.9633 110.734 36.0765C110.734 33.1894 112.609 30.2598 116.604 30.2598C118.112 30.2598 119.541 30.8296 120.641 31.9267L119.254 33.2698C118.519 32.5794 117.543 32.2129 116.604 32.2129C113.955 32.2129 112.772 34.206 112.812 36.0362C112.812 37.8663 113.872 39.7791 116.604 39.7791C117.583 39.7791 118.643 39.3727 119.377 38.6821L120.804 40.1459V40.1433Z" fill="white"/>
<path d="M132.506 39.4507H126.715L125.777 41.5242H123.535L128.467 30.501H130.749L135.681 41.5242H133.399L132.503 39.4507H132.506ZM129.612 32.8206L127.573 37.4975H131.69L129.612 32.8206Z" fill="white"/>
<path d="M144.858 38.3132H141.718V41.5668H139.639V30.5436H144.858C150.241 30.5035 150.281 38.3132 144.858 38.3132ZM141.761 36.4004H144.901C147.551 36.4004 147.551 32.4967 144.901 32.4967H141.761V36.4004Z" fill="white"/>
<path d="M155.581 30.5435H153.502V41.5666H155.581V30.5435Z" fill="white"/>
<path d="M163.573 32.4137H160.067V30.5435H169.159V32.4137H165.654V41.5266H163.573V32.4137Z" fill="white"/>
<path d="M181.432 39.4507H175.641L174.703 41.5242H172.461L177.393 30.501H179.675L184.607 41.5242H182.325L181.429 39.4507H181.432ZM178.578 32.8206L176.54 37.4975H180.616L178.578 32.8206Z" fill="white"/>
<path d="M190.687 30.5435V39.6135H196.354V41.5266H188.606V30.5435H190.687Z" fill="white"/>
<path d="M234.434 35.2202H201.573V37.5798H234.434V35.2202Z" fill="white"/>
<path d="M105.555 35.2202H72.6938V37.5798H105.555V35.2202Z" fill="white"/>
<path d="M95.2805 22.9369C92.7111 25.4599 89.4098 26.5971 85.8615 26.5971C76.6491 26.5996 72.7338 20.2533 72.6934 13.8266C72.653 7.35985 76.8932 0.77002 85.8615 0.77002C89.2461 0.77002 92.4267 2.03024 94.9935 4.55319L91.853 7.56317C90.2224 5.9766 88.0206 5.24357 85.8592 5.24357C79.8652 5.24357 77.2557 9.71712 77.2983 13.8266C77.3387 17.9337 79.7041 22.2064 85.8592 22.2064C88.0206 22.2064 90.4664 21.3127 92.097 19.6835L95.2779 22.9369H95.2805Z" fill="white"/>
<path d="M111.182 11.5071L117.787 1.2998H123.414V1.50315L113.547 15.82V26.07H108.859V15.82L99.3169 1.50315V1.2998H104.863L111.182 11.5071Z" fill="white"/>
<path d="M141.109 18.7895H134.096V26.0697H129.408V1.29944C133.321 1.29944 137.196 1.25928 141.109 1.25928C153.218 1.25928 153.258 18.7895 141.109 18.7895ZM134.056 14.4766H141.069C147.063 14.4766 147.023 5.69015 141.069 5.69015H134.056V14.4766Z" fill="white"/>
<path d="M174.174 26.1101V16.1035H161.982V26.1101H157.294V1.33984H161.982V11.753H174.174V1.33984H178.822V26.1101H174.174Z" fill="white"/>
<path d="M191.706 15.8604H205.161V11.5073H187.058V26.0702H205.649V21.4736H191.706V15.8604Z" fill="white"/>
<path d="M234.434 26.0702H228.848L221.631 17.7733H217.146V26.0702H212.418V1.25732C216.374 1.25732 220.287 1.29749 224.243 1.29749C230.113 1.33766 233.171 5.20117 233.171 9.51405C233.171 12.8905 231.621 16.3474 226.892 17.2838L234.434 25.7438V26.0702ZM217.106 5.65053V13.5809H224.24C227.217 13.5809 228.48 11.5876 228.48 9.63456C228.48 7.68145 227.177 5.6882 224.24 5.6882H217.106V5.64804V5.65053Z" fill="white"/>
</g>
</g>
<defs>
<clipPath id="clip0_376_2778">
<rect width="234.378" height="41" fill="white" transform="translate(0.311035 0.77002)"/>
</clipPath>
</defs>
</svg>
