<svg width="179" height="28" viewBox="0 0 179 28" fill="none" xmlns="http://www.w3.org/2000/svg">
<g clip-path="url(#clip0_376_2558)">
<path d="M19.1783 1.21582V5.009H4.00558V12.5953H15.3851V16.3885H4.00558V27.768H0.212402V1.21582H19.1783ZM22.9715 27.768V1.21582H26.7646V23.9749H41.9373V27.768H22.9715ZM49.5234 16.3885H60.9032V10.6987H59.0066V8.80215H57.11V6.90557H53.3167V8.80215H51.4201V10.6987H49.5234V16.3885ZM49.5234 27.768H45.7305V8.80215H47.6273V6.90557H49.5234V5.009H51.4201V3.11241H53.3167V1.21582H57.11V3.11241H59.0066V5.009H60.9032V6.90557H62.7999V8.80215H64.6965V27.768H60.9032V20.1817H49.5234V27.768ZM72.2826 27.768H68.4898V1.21582H72.2826V5.009H74.1792V6.90557H76.0758V8.80215H79.8691V6.90557H81.7657V5.009H83.6623V1.21582H87.4556V27.768H83.6623V10.6987H81.7657V12.5953H79.8691V16.3885H76.0758V12.5953H74.1792V10.6987H72.2826V27.768ZM95.0417 27.768V23.9749H98.8349V5.009H95.0417V1.21582H106.421V5.009H102.628V23.9749H106.421V27.768H95.0417ZM117.801 12.5953V27.768H114.008V1.21582H117.801V6.90557H119.697V8.80215H121.594V10.6987H123.491V12.5953H125.387V14.492H127.284V16.3885H129.181V1.21582H132.973V27.768H129.181V22.0783H127.284V20.1817H125.387V18.2851H123.491V16.3885H121.594V14.492H119.697V12.5953H117.801ZM153.836 5.009H155.732V8.80215H151.939V6.90557H150.043V5.009H142.457V6.90557H140.56V22.0783H142.457V23.9749H150.043V22.0783H151.939V16.3885H146.25V12.5953H155.732V23.9749H153.836V25.8715H151.939V27.768H140.56V25.8715H138.663V23.9749H136.767V5.009H138.663V3.11241H140.56V1.21582H151.939V3.11241H153.836V5.009ZM172.802 5.009H165.216V6.90557H163.319V22.0783H165.216V23.9749H172.802V22.0783H174.698V6.90557H172.802V5.009ZM163.319 3.11241V1.21582H174.698V3.11241H176.595V5.009H178.492V23.9749H176.595V25.8715H174.698V27.768H163.319V25.8715H161.422V23.9749H159.526V5.009H161.422V3.11241H163.319Z" fill="white"/>
</g>
<defs>
<clipPath id="clip0_376_2558">
<rect width="178.579" height="27" fill="white" transform="translate(0.210449 0.77002)"/>
</clipPath>
</defs>
</svg>
