<svg width="257" height="31" viewBox="0 0 257 31" fill="none" xmlns="http://www.w3.org/2000/svg">
<g clip-path="url(#clip0_376_2706)">
<g style="mix-blend-mode:difference">
<path d="M15.9644 22.0427H15.7766L4.25991 6.02066V30.27H0.772705V0.27002H4.39403L15.9108 16.6398L27.4274 0.27002H31.0488V30.27H27.4811V5.96976L15.9644 22.0427Z" fill="white"/>
<path d="M62.6191 4.22846L55.3364 19.4222H69.8659L62.6191 4.22846ZM78.8791 30.27H75.0124L71.2809 22.4036H53.9304L50.1448 30.27H46.4585L60.9878 0.27002H64.3678L78.8971 30.27H78.888H78.8791Z" fill="white"/>
<path d="M111.295 0.27002H115.118L101.562 30.27H98.4073L84.8423 0.27002H88.8085L100.02 25.9326L111.286 0.27002H111.295Z" fill="white"/>
<path d="M155.988 3.36587H136.097V13.6034H153.887V16.6907H136.097V27.1826H156.209V30.27H132.42V0.27002H155.969V3.35738L155.988 3.36587Z" fill="white"/>
<path d="M192.301 0.27002H195.675V30.27H192.918L173.099 5.67291V30.27H169.725V0.27002H172.969L192.301 24.3073V0.27002Z" fill="white"/>
<path d="M224.82 0.27002H227.575V30.27H223.862V3.75683L217.656 5.50866L216.762 2.77984L224.82 0.27002Z" fill="white"/>
<path d="M252.933 0.27002H255.686V30.27H251.974V3.75683L245.767 5.50866L244.874 2.77984L252.933 0.27002Z" fill="white"/>
</g>
</g>
<defs>
<clipPath id="clip0_376_2706">
<rect width="255.455" height="30" fill="white" transform="translate(0.772705 0.27002)"/>
</clipPath>
</defs>
</svg>
