<svg width="191" height="38" viewBox="0 0 191 38" fill="none" xmlns="http://www.w3.org/2000/svg">
<g clip-path="url(#clip0_376_2716)">
<path d="M5.39771 37.77V24.5635H21.26V21.9258H23.8977V19.27H26.5354V6.06348H23.8977V3.42578H21.26V0.77002H0.122314V37.77H5.39771ZM5.39771 19.27V6.06348H18.6223V8.70118H21.26V16.6323H18.6223V19.27H5.39771Z" fill="white"/>
<path d="M46.3723 37.77V35.1323H49.01V37.77H54.3035V11.3569H49.01V29.8569H46.3723V32.4946H39.76V29.8569H37.1223V11.3569H31.8469V32.4946H34.4846V35.1323H37.1223V37.77H46.3723Z" fill="white"/>
<path d="M64.8723 37.77V19.27H67.51V16.6323H74.1223V19.27H76.76V37.77H82.0535V16.6323H79.4158V13.9946H76.76V11.3569H67.51V13.9946H64.8723V11.3569H59.5969V37.77H64.8723Z" fill="white"/>
<path d="M92.6223 37.77V27.2012H95.26V29.857H97.9158V32.4946H100.553V35.1323H103.191V37.77H109.803V35.1323H107.166V32.4946H104.51V29.857H101.872V27.2012H99.2346V21.9258H101.872V19.27H104.51V16.6323H107.166V13.9946H109.803V11.357H103.191V13.9946H100.553V16.6323H97.9158V19.27H95.26V21.9258H92.6223V0.77002H87.3469V37.77H92.6223Z" fill="white"/>
<path d="M133.178 37.77V35.883H135.065V33.9961H136.952V32.1091H138.852V16.9746H136.952V15.0876H135.065V13.2007H133.178V11.3008H118.056V37.77H133.178ZM121.83 33.9961V15.0876H131.291V16.9746H133.178V18.8745H135.065V30.2092H133.178V32.1091H131.291V33.9961H121.83Z" fill="white"/>
<path d="M146.515 37.77V32.1091H159.749V37.77H163.536V32.1091H161.636V26.4353H159.749V20.7614H157.862V15.0876H155.975V11.3008H150.301V15.0876H148.402V20.7614H146.515V26.4353H144.628V32.1091H142.741V37.77H146.515ZM148.402 28.3223V26.4353H150.301V20.7614H152.188V16.9746H154.075V20.7614H155.975V26.4353H157.862V28.3223H148.402Z" fill="white"/>
<path d="M184.434 37.77V35.883H186.321V33.9961H188.221V32.1091H190.108V16.9746H188.221V15.0876H186.321V13.2007H184.434V11.3008H173.087V13.2007H171.2V15.0876H169.313V16.9746H167.426V32.1091H169.313V33.9961H171.2V35.883H173.087V37.77H184.434ZM174.986 33.9961V32.1091H173.087V30.2092H171.2V18.8745H173.087V16.9746H174.986V15.0876H182.547V16.9746H184.434V18.8745H186.321V30.2092H184.434V32.1091H182.547V33.9961H174.986Z" fill="white"/>
<path d="M176.223 21.8315H181.346V26.9546H176.223V21.8315Z" fill="white"/>
</g>
<defs>
<clipPath id="clip0_376_2716">
<rect width="190.756" height="37" fill="white" transform="translate(0.122314 0.77002)"/>
</clipPath>
</defs>
</svg>
