<svg width="69" height="35" viewBox="0 0 69 35" fill="none" xmlns="http://www.w3.org/2000/svg">
<g clip-path="url(#clip0_376_2581)">
<mask id="mask0_376_2581" style="mask-type:luminance" maskUnits="userSpaceOnUse" x="0" y="0" width="69" height="35">
<path d="M68.675 0.405762H0.398682V34.0662H68.675V0.405762Z" fill="white"/>
</mask>
<g mask="url(#mask0_376_2581)">
<path d="M14.5656 22.3928H10.4045V34.0662H0.398682V0.405762H17.318C21.5275 0.405762 24.7333 1.34482 26.9352 3.20675C29.1372 5.06868 30.2381 7.8211 30.2381 11.4155C30.2381 16.305 28.1819 19.5917 24.0857 21.2594L32.1487 34.0662H20.9933L14.5656 22.3928ZM10.4045 15.3012H15.3589C17.0265 15.3012 18.2085 15.026 18.9047 14.4593C19.6008 13.8926 19.957 12.9697 19.957 11.6745C19.957 10.3792 19.6008 9.44018 18.8885 8.87348C18.1761 8.29062 16.9941 7.99921 15.3589 7.99921H10.4045V15.3012Z" fill="white"/>
<path d="M41.603 34.0662H32.1316L43.8213 0.405762H53.2927L41.603 34.0662Z" fill="white"/>
<path d="M56.987 34.0662H47.5156L59.2053 0.405762H68.6767L56.987 34.0662Z" fill="white"/>
</g>
</g>
<defs>
<clipPath id="clip0_376_2581">
<rect width="68.3953" height="34" fill="white" transform="translate(0.302246 0.27002)"/>
</clipPath>
</defs>
</svg>
