<svg width="620" height="591" viewBox="0 0 620 591" fill="none" xmlns="http://www.w3.org/2000/svg">
<g opacity="0.79">
<path opacity="0.79" d="M712.864 380.864C844.099 249.63 844.099 36.8564 712.864 -94.3782C581.629 -225.613 368.856 -225.613 237.621 -94.3783C106.387 36.8563 106.387 249.63 237.621 380.865C368.856 512.099 581.629 512.099 712.864 380.864Z" stroke="white" stroke-opacity="0.2" stroke-width="0.5" stroke-miterlimit="10"/>
<path opacity="0.79" d="M696.118 364.118C818.104 242.132 818.104 44.3542 696.118 -77.6316C574.132 -199.617 376.354 -199.617 254.369 -77.6317C132.383 44.3541 132.383 242.132 254.368 364.118C376.354 486.104 574.132 486.104 696.118 364.118Z" stroke="white" stroke-opacity="0.2" stroke-width="0.7273" stroke-miterlimit="10"/>
<path opacity="0.79" d="M475.257 431.922C634.693 431.922 763.94 302.674 763.94 143.238C763.94 -16.1972 634.693 -145.445 475.257 -145.445C315.821 -145.445 186.573 -16.1972 186.573 143.238C186.573 302.674 315.821 431.922 475.257 431.922Z" stroke="white" stroke-opacity="0.2" stroke-width="0.9545" stroke-miterlimit="10"/>
<path opacity="0.79" d="M475.258 408.276C621.634 408.276 740.295 289.615 740.295 143.24C740.295 -3.13591 621.634 -121.797 475.258 -121.797C328.883 -121.797 210.222 -3.13591 210.222 143.24C210.222 289.615 328.883 408.276 475.258 408.276Z" stroke="white" stroke-opacity="0.2" stroke-width="1.1818" stroke-miterlimit="10"/>
<path opacity="0.79" d="M475.257 384.591C608.553 384.591 716.61 276.533 716.61 143.238C716.61 9.94226 608.553 -98.1152 475.257 -98.1152C341.962 -98.1152 233.904 9.94226 233.904 143.238C233.904 276.533 341.962 384.591 475.257 384.591Z" stroke="white" stroke-opacity="0.2" stroke-width="1.4091" stroke-miterlimit="10"/>
<path opacity="0.79" d="M475.257 360.907C595.473 360.907 692.927 263.454 692.927 143.238C692.927 23.0224 595.473 -74.4316 475.257 -74.4316C355.042 -74.4316 257.588 23.0224 257.588 143.238C257.588 263.454 355.042 360.907 475.257 360.907Z" stroke="white" stroke-opacity="0.2" stroke-width="1.6364" stroke-miterlimit="10"/>
<path opacity="0.79" d="M475.258 337.225C582.393 337.225 669.244 250.375 669.244 143.239C669.244 36.1035 582.393 -50.7471 475.258 -50.7471C368.122 -50.7471 281.272 36.1035 281.272 143.239C281.272 250.375 368.122 337.225 475.258 337.225Z" stroke="white" stroke-opacity="0.2" stroke-width="1.8636" stroke-miterlimit="10"/>
<path opacity="0.79" d="M475.258 313.542C569.313 313.542 645.56 237.295 645.56 143.239C645.56 49.1836 569.313 -27.0635 475.258 -27.0635C381.202 -27.0635 304.955 49.1836 304.955 143.239C304.955 237.295 381.202 313.542 475.258 313.542Z" stroke="white" stroke-opacity="0.2" stroke-width="2.0909" stroke-miterlimit="10"/>
<path opacity="0.79" d="M475.258 289.857C556.233 289.857 621.877 224.214 621.877 143.238C621.877 62.2628 556.233 -3.38086 475.258 -3.38086C394.282 -3.38086 328.639 62.2628 328.639 143.238C328.639 224.214 394.282 289.857 475.258 289.857Z" stroke="white" stroke-opacity="0.2" stroke-width="2.3182" stroke-miterlimit="10"/>
<path opacity="0.79" d="M475.258 266.174C543.153 266.174 598.193 211.134 598.193 143.238C598.193 75.3429 543.153 20.3027 475.258 20.3027C407.362 20.3027 352.322 75.3429 352.322 143.238C352.322 211.134 407.362 266.174 475.258 266.174Z" stroke="white" stroke-opacity="0.2" stroke-width="2.5454" stroke-miterlimit="10"/>
<path opacity="0.79" d="M475.258 242.491C530.073 242.491 574.51 198.055 574.51 143.239C574.51 88.424 530.073 43.9873 475.258 43.9873C420.442 43.9873 376.006 88.424 376.006 143.239C376.006 198.055 420.442 242.491 475.258 242.491Z" stroke="white" stroke-opacity="0.2" stroke-width="2.7727" stroke-miterlimit="10"/>
<path opacity="0.79" d="M475.257 218.807C516.993 218.807 550.826 184.974 550.826 143.239C550.826 101.503 516.993 67.6699 475.257 67.6699C433.522 67.6699 399.689 101.503 399.689 143.239C399.689 184.974 433.522 218.807 475.257 218.807Z" stroke="white" stroke-opacity="0.2" stroke-width="3" stroke-miterlimit="10"/>
</g>
</svg>
