<svg width="951" height="951" viewBox="0 0 951 951" fill="none" xmlns="http://www.w3.org/2000/svg">
<g opacity="0.79">
<path opacity="0.79" d="M712.864 712.864C844.099 581.63 844.099 368.856 712.864 237.622C581.629 106.387 368.856 106.387 237.621 237.622C106.387 368.856 106.387 581.63 237.621 712.865C368.856 844.099 581.629 844.099 712.864 712.864Z" stroke="white" stroke-opacity="0.2" stroke-width="0.5" stroke-miterlimit="10"/>
<path opacity="0.79" d="M696.118 696.118C818.104 574.132 818.104 376.354 696.118 254.368C574.132 132.383 376.354 132.383 254.369 254.368C132.383 376.354 132.383 574.132 254.368 696.118C376.354 818.104 574.132 818.104 696.118 696.118Z" stroke="white" stroke-opacity="0.2" stroke-width="0.7273" stroke-miterlimit="10"/>
<path opacity="0.79" d="M475.257 763.922C634.693 763.922 763.94 634.674 763.94 475.238C763.94 315.803 634.693 186.555 475.257 186.555C315.821 186.555 186.573 315.803 186.573 475.238C186.573 634.674 315.821 763.922 475.257 763.922Z" stroke="white" stroke-opacity="0.2" stroke-width="0.9545" stroke-miterlimit="10"/>
<path opacity="0.79" d="M475.258 740.276C621.634 740.276 740.295 621.615 740.295 475.24C740.295 328.864 621.634 210.203 475.258 210.203C328.883 210.203 210.222 328.864 210.222 475.24C210.222 621.615 328.883 740.276 475.258 740.276Z" stroke="white" stroke-opacity="0.2" stroke-width="1.1818" stroke-miterlimit="10"/>
<path opacity="0.79" d="M475.257 716.591C608.553 716.591 716.61 608.534 716.61 475.238C716.61 341.942 608.553 233.885 475.257 233.885C341.962 233.885 233.904 341.942 233.904 475.238C233.904 608.534 341.962 716.591 475.257 716.591Z" stroke="white" stroke-opacity="0.2" stroke-width="1.4091" stroke-miterlimit="10"/>
<path opacity="0.79" d="M475.257 692.908C595.473 692.908 692.927 595.454 692.927 475.238C692.927 355.022 595.473 257.568 475.257 257.568C355.042 257.568 257.588 355.022 257.588 475.238C257.588 595.454 355.042 692.908 475.257 692.908Z" stroke="white" stroke-opacity="0.2" stroke-width="1.6364" stroke-miterlimit="10"/>
<path opacity="0.79" d="M475.258 669.225C582.393 669.225 669.244 582.375 669.244 475.239C669.244 368.104 582.393 281.253 475.258 281.253C368.122 281.253 281.272 368.104 281.272 475.239C281.272 582.375 368.122 669.225 475.258 669.225Z" stroke="white" stroke-opacity="0.2" stroke-width="1.8636" stroke-miterlimit="10"/>
<path opacity="0.79" d="M475.258 645.542C569.313 645.542 645.56 569.295 645.56 475.239C645.56 381.184 569.313 304.937 475.258 304.937C381.202 304.937 304.955 381.184 304.955 475.239C304.955 569.295 381.202 645.542 475.258 645.542Z" stroke="white" stroke-opacity="0.2" stroke-width="2.0909" stroke-miterlimit="10"/>
<path opacity="0.79" d="M475.258 621.857C556.233 621.857 621.877 556.214 621.877 475.238C621.877 394.263 556.233 328.619 475.258 328.619C394.282 328.619 328.639 394.263 328.639 475.238C328.639 556.214 394.282 621.857 475.258 621.857Z" stroke="white" stroke-opacity="0.2" stroke-width="2.3182" stroke-miterlimit="10"/>
<path opacity="0.79" d="M475.258 598.174C543.153 598.174 598.193 543.134 598.193 475.238C598.193 407.343 543.153 352.303 475.258 352.303C407.362 352.303 352.322 407.343 352.322 475.238C352.322 543.134 407.362 598.174 475.258 598.174Z" stroke="white" stroke-opacity="0.2" stroke-width="2.5454" stroke-miterlimit="10"/>
<path opacity="0.79" d="M475.258 574.492C530.073 574.492 574.51 530.055 574.51 475.239C574.51 420.424 530.073 375.987 475.258 375.987C420.442 375.987 376.006 420.424 376.006 475.239C376.006 530.055 420.442 574.492 475.258 574.492Z" stroke="white" stroke-opacity="0.2" stroke-width="2.7727" stroke-miterlimit="10"/>
<path opacity="0.79" d="M475.257 550.807C516.993 550.807 550.826 516.974 550.826 475.239C550.826 433.503 516.993 399.67 475.257 399.67C433.522 399.67 399.689 433.503 399.689 475.239C399.689 516.974 433.522 550.807 475.257 550.807Z" stroke="white" stroke-opacity="0.2" stroke-width="3" stroke-miterlimit="10"/>
</g>
</svg>
