<svg width="792" height="811" viewBox="0 0 792 811" fill="none" xmlns="http://www.w3.org/2000/svg">
<path opacity="0.0416667" d="M350.149 512.619C300.21 498.11 265.349 458.908 260.133 408.262L260.015 407.064C255.511 358.724 284.953 309.267 331.891 286.294L331.899 286.361L332.538 286.053C387.401 259.572 452.013 278.471 490.863 332.504C525.812 381.1 565.032 425.072 620.526 452.736C686.873 485.79 756.421 485.396 827.797 470.793C835.07 469.309 842.266 467.476 849.443 465.621C856.623 463.766 863.783 461.889 870.999 460.312C884.979 457.258 899.145 455.335 913.997 456.88L915.436 457.04C972.251 463.838 1015.02 499.708 1024.54 551.236C1034.33 604.173 1006.45 659.43 957.255 684.516C909.291 708.977 851.052 700.055 813.28 660.186C802.161 648.445 791.874 635.943 781.684 623.325C771.498 610.711 761.405 597.977 750.688 585.799C670.382 494.579 567.559 477.108 451.282 503.691C417.884 511.33 385.199 522.81 350.149 512.619Z" stroke="white" stroke-opacity="0.2"/>
<path opacity="0.0833333" d="M336.515 474.522C288.03 455.716 256.719 413.625 255.936 362.717L255.923 361.513C255.649 312.965 289.29 266.262 338.052 247.467L338.053 247.534L338.717 247.283C395.679 225.685 458.398 250.143 492.391 307.356C522.972 358.813 558.21 406.037 611.082 438.432C674.296 477.143 743.613 482.812 815.99 474.485C823.365 473.64 830.694 472.441 838.005 471.219C845.319 469.997 852.615 468.751 859.942 467.809C874.135 465.985 888.414 465.305 903.075 468.137L904.494 468.423C960.501 480.146 999.979 519.607 1004.98 571.77C1010.11 625.358 977.521 677.974 926.328 698.677C876.415 718.866 819.176 704.901 785.022 661.892C774.969 649.227 765.81 635.875 756.759 622.417C747.711 608.964 738.766 595.399 729.151 582.333C657.102 484.461 556.192 458.094 438.041 474.443C404.104 479.141 370.543 487.729 336.515 474.522Z" stroke="white" stroke-opacity="0.2"/>
<path opacity="0.125" d="M325.121 436.42C278.46 413.46 250.937 368.8 254.594 318.017L254.685 316.817C258.644 268.429 296.227 224.836 346.441 210.363L346.437 210.43L347.121 210.238C405.748 193.686 466.096 223.518 494.974 283.476C520.954 337.402 551.942 387.517 601.789 424.397C661.388 468.47 729.948 480.159 802.775 478.172C810.196 477.973 817.601 477.417 824.991 476.837C832.384 476.257 839.761 475.652 847.141 475.353C861.439 474.772 875.724 475.339 890.082 479.438L891.471 479.847C946.243 496.406 982.132 539.158 982.564 591.558C983.011 645.39 945.957 694.965 893.154 711.128C841.671 726.889 785.866 707.989 755.592 662.167C746.68 648.674 738.721 634.575 730.876 620.379C723.035 606.188 715.306 591.895 706.867 578.041C643.622 474.262 545.395 439.201 426.268 445.189C392.051 446.912 357.869 452.543 325.121 436.42Z" stroke="white" stroke-opacity="0.2"/>
<path opacity="0.166667" d="M315.961 398.505C271.479 371.566 247.952 324.677 256.021 274.406L256.218 273.219C264.378 225.36 305.618 185.209 356.902 175.167L356.892 175.233L357.59 175.101C417.437 163.722 474.956 198.7 498.498 260.947C519.678 316.933 546.181 369.557 592.624 410.642C648.155 459.741 715.435 477.361 788.159 481.729C795.568 482.178 802.994 482.269 810.406 482.336C817.822 482.402 825.223 482.442 832.602 482.787C846.896 483.455 861.077 485.264 875.023 490.6L876.371 491.128C929.491 512.398 961.517 558.115 957.381 610.353C953.135 664.02 911.9 710.177 857.89 721.675C805.23 732.89 751.284 709.198 725.118 660.911C717.417 646.693 710.716 631.954 704.139 617.128C697.565 602.308 691.111 587.396 683.911 572.859C629.952 463.963 535.154 420.474 415.959 416.057C381.722 414.791 347.179 417.421 315.961 398.505Z" stroke="white" stroke-opacity="0.2"/>
<path opacity="0.208333" d="M309.011 360.971C267.047 330.257 247.696 281.496 260.116 232.12L260.415 230.953C272.716 183.989 317.297 147.584 369.262 142.05L369.246 142.115L369.953 142.045C430.564 135.925 484.815 175.783 502.843 239.845C519.063 297.463 540.878 352.198 583.564 397.174C634.604 450.926 700.092 474.343 772.159 485.032C779.501 486.125 786.89 486.863 794.268 487.575C801.65 488.288 809.02 488.973 816.34 489.96C830.522 491.871 844.491 494.909 857.919 501.44L859.216 502.083C910.28 527.902 938.2 576.237 929.527 627.916C920.62 681.008 875.519 723.395 820.712 730.143C767.275 736.725 715.599 708.422 693.742 658.038C687.309 643.203 681.918 627.936 676.658 612.594C671.4 597.257 666.271 581.839 660.365 566.73C616.102 453.545 525.456 401.959 407.099 387.171C373.102 382.926 338.462 382.535 309.011 360.971Z" stroke="white" stroke-opacity="0.2"/>
<path opacity="0.25" d="M304.228 324.012C265.099 289.757 250.072 239.495 266.748 191.39L267.147 190.254C283.495 144.54 331.08 112.159 383.329 111.176L383.308 111.239L384.018 111.23C444.931 110.417 495.502 154.851 507.878 220.24C519.015 279.053 535.977 335.481 574.58 384.006C620.742 442.002 683.939 471.037 754.8 487.967C762.019 489.696 769.316 491.075 776.604 492.428C783.895 493.781 791.177 495.106 798.384 496.727C812.345 499.867 825.996 504.111 838.804 511.787L840.04 512.541C888.659 542.712 912.26 593.296 899.116 644.022C885.615 696.136 836.992 734.432 781.806 736.377C727.998 738.277 678.986 705.577 661.603 653.48C656.487 638.141 652.448 622.462 648.545 606.72C644.644 590.983 640.878 575.177 636.312 559.61C602.081 442.998 516.276 383.709 399.658 358.661C366.161 351.469 331.686 348.061 304.228 324.012Z" stroke="white" stroke-opacity="0.2"/>
<path opacity="0.291667" d="M301.554 287.809C265.56 250.274 254.97 198.894 275.776 152.425L276.272 151.328C296.542 107.213 346.768 79.1031 398.904 82.677L398.877 82.7384L399.585 82.7915C460.338 87.2898 506.844 135.963 513.473 202.182C519.442 261.742 531.422 319.433 565.649 371.138C606.58 432.936 667.007 467.369 736.122 490.41C743.163 492.762 750.311 494.772 757.454 496.754C764.6 498.738 771.738 500.692 778.776 502.935C792.411 507.28 805.64 512.698 817.73 521.461L818.896 522.32C864.701 556.614 883.803 609.062 866.288 658.45C848.296 709.189 796.52 743.101 741.374 740.229C687.606 737.431 641.63 700.585 628.854 647.171C625.095 631.444 622.437 615.473 619.921 599.45C617.406 583.433 615.032 567.359 611.84 551.454C587.904 432.302 507.592 365.76 393.601 330.644C360.859 320.56 326.812 314.16 301.554 287.809Z" stroke="white" stroke-opacity="0.2"/>
<path opacity="0.333333" d="M300.915 252.549C268.33 212.021 262.259 159.913 287.035 115.434L287.625 114.385C311.663 72.2039 364.147 48.5785 415.774 56.6828L415.742 56.7416L416.442 56.8563C476.572 66.6325 518.659 119.173 519.492 185.718C520.246 245.572 527.152 304.087 556.743 358.578C592.132 423.709 649.328 463.278 716.172 492.255C722.981 495.211 729.927 497.837 736.87 500.434C743.816 503.033 750.757 505.602 757.573 508.45C770.776 513.966 783.483 520.517 794.763 530.3L795.85 531.257C838.491 569.413 852.95 623.327 831.197 671C808.852 719.978 754.317 749.248 699.632 741.581C646.311 734.108 603.722 693.394 595.649 639.07C593.275 623.075 592.02 606.933 590.91 590.753C589.801 574.577 588.837 558.357 587.043 542.235C573.582 421.45 499.376 348.162 388.879 303.244C357.14 290.344 323.781 281.002 300.915 252.549Z" stroke="white" stroke-opacity="0.2"/>
<path opacity="0.375" d="M302.221 218.403C273.291 175.188 271.785 122.75 300.343 80.5992L301.023 79.6055C328.645 39.6801 382.989 20.7189 433.713 33.2919L433.676 33.3477L434.364 33.5229C493.412 48.5026 530.76 104.512 525.79 170.876C521.325 230.567 523.105 289.462 547.833 346.325C577.411 414.292 630.941 458.695 695.005 493.388C701.531 496.926 708.222 500.148 714.911 503.34C721.605 506.534 728.295 509.699 734.837 513.129C747.51 519.776 759.597 527.409 769.982 538.138L770.981 539.186C810.134 580.913 819.839 635.882 794.014 681.478C767.485 728.322 710.607 752.728 656.798 740.323C604.332 728.232 565.453 683.961 562.146 629.141C561.175 612.999 561.331 596.809 561.635 580.594C561.94 564.383 562.393 548.141 562.012 531.923C559.129 410.425 491.593 330.948 385.432 276.571C354.937 260.954 322.519 248.739 302.221 218.403Z" stroke="white" stroke-opacity="0.2"/>
<path opacity="0.416667" d="M305.369 185.538C280.316 139.967 283.385 87.5962 315.509 48.0952L316.273 47.1646C347.269 9.79849 403.059 -4.35409 452.494 12.5919L452.452 12.6442L453.122 12.8788C510.641 32.9479 542.964 91.999 532.229 157.677C522.579 216.753 519.219 275.578 538.898 334.38C562.439 404.667 611.895 453.566 672.692 493.71C678.884 497.804 685.269 501.596 691.655 505.359C698.044 509.125 704.434 512.86 710.652 516.848C722.697 524.574 734.073 533.231 743.483 544.825L744.387 545.956C779.755 590.937 784.632 646.542 754.931 689.714C724.42 734.067 665.632 753.423 613.108 736.376C561.895 719.758 527.023 672.267 528.506 617.367C528.946 601.202 530.512 585.088 532.229 568.96C533.945 552.838 535.813 536.697 536.846 520.508C544.564 399.221 484.211 314.16 383.193 250.737C354.176 232.522 322.946 217.528 305.369 185.538Z" stroke="white" stroke-opacity="0.2"/>
<path opacity="0.458333" d="M310.238 154.105C289.252 106.523 296.874 54.6197 332.318 18.0689L333.16 17.2083C367.296 -17.3141 424.107 -26.5504 471.876 -5.36031L471.83 -5.31186L472.477 -5.01979C528.028 19.986 555.082 81.6296 538.663 146.122C523.901 204.132 515.427 262.441 529.906 322.734C547.232 394.805 592.238 447.828 649.304 493.119C655.116 497.736 661.146 502.071 667.18 506.376C673.217 510.684 679.256 514.962 685.103 519.477C696.429 528.223 707.007 537.839 715.371 550.209L716.173 551.415C747.486 599.306 747.498 655.125 714.148 695.544C679.887 737.069 619.635 751.228 568.797 729.668C519.228 708.649 488.628 658.3 494.89 603.738C496.737 587.674 499.702 571.757 502.818 555.84C505.932 539.929 509.199 524.012 511.64 507.974C529.899 387.822 477.189 297.824 382.084 225.839C354.765 205.164 324.96 187.505 310.238 154.105Z" stroke="white" stroke-opacity="0.2"/>
<path opacity="0.5" d="M316.696 124.252C299.938 75.0227 312.055 23.981 350.549 -9.34168L351.463 -10.1256C388.477 -41.5415 445.877 -45.7912 491.618 -20.5184L491.568 -20.4742L492.187 -20.1268C545.347 9.62537 566.925 73.3923 544.948 136.209C525.187 192.711 511.663 250.059 520.831 311.385C531.81 384.692 572.024 441.436 624.926 491.528C630.313 496.634 635.943 501.478 641.578 506.293C647.216 511.11 652.86 515.899 658.291 520.906C668.811 530.606 678.511 541.107 685.765 554.158L686.459 555.43C713.479 605.868 708.626 661.476 671.88 698.834C634.131 737.215 572.874 746.069 524.108 720.16C476.56 694.901 450.464 642.077 461.458 588.268C464.698 572.425 469.039 556.828 473.53 541.243C478.02 525.664 482.661 510.092 486.49 494.329C515.152 376.225 470.487 281.976 382.017 201.975C356.604 178.998 328.452 158.809 316.696 124.252Z" stroke="white" stroke-opacity="0.2"/>
<path opacity="0.541667" d="M324.605 96.0971C312.201 45.5943 328.72 -4.19711 369.972 -34.0379L370.951 -34.7392C410.563 -62.8096 468.114 -62.0404 511.479 -32.8771L511.425 -32.8375L512.011 -32.4375C562.376 1.83467 578.314 67.2396 550.946 127.901C526.335 182.466 507.864 238.418 511.654 300.309C516.202 374.294 551.316 434.327 599.651 488.839C604.573 494.396 609.759 499.711 614.953 504.999C620.15 510.29 625.355 515.552 630.329 521.013C639.964 531.593 648.712 542.9 654.801 556.534L655.381 557.861C677.902 610.462 668.221 665.435 628.359 699.449C587.408 734.394 525.613 737.875 479.291 707.814C434.125 678.508 412.732 623.61 428.374 570.964C432.982 555.464 438.666 540.304 444.499 525.17C450.329 510.042 456.31 494.934 461.498 479.564C500.345 364.407 464.064 266.624 382.903 179.217C359.589 154.113 333.304 131.547 324.605 96.0971Z" stroke="white" stroke-opacity="0.2"/>
<path opacity="0.583333" d="M333.803 69.7919C325.848 18.4003 346.644 -29.7619 390.34 -55.8938L391.376 -56.5071C433.283 -81.0183 490.549 -75.2361 531.207 -42.4044L531.15 -42.3695L531.699 -41.9199C578.885 -3.38867 589.062 63.1565 556.512 121.202C527.238 173.414 503.961 227.543 502.342 289.529C500.424 363.629 530.173 426.494 573.573 485.011C577.992 490.976 582.695 496.723 587.409 502.444C592.125 508.167 596.851 513.863 601.33 519.737C610.006 531.116 617.736 543.142 622.613 557.255L623.075 558.627C640.926 612.992 626.491 666.912 583.815 697.321C539.975 728.565 478.112 726.646 434.586 692.663C392.146 659.532 375.619 602.978 395.79 551.896C401.732 536.857 408.715 522.25 415.844 507.682C422.971 493.119 430.247 478.59 436.754 463.73C485.489 352.398 457.869 251.825 384.635 157.677C363.598 130.636 339.379 105.865 333.803 69.7919Z" stroke="white" stroke-opacity="0.2"/>
<path opacity="0.625" d="M344.129 45.4207C340.682 -6.46881 365.597 -52.6352 411.405 -74.8593L412.49 -75.38C456.374 -96.1454 512.918 -85.3942 550.56 -49.1438L550.5 -49.1141L551.008 -48.6183C594.656 -6.12118 598.995 61.0578 561.509 116.046C527.796 165.508 499.89 217.402 492.874 279.011C484.506 352.662 508.663 417.88 546.798 479.957C550.68 486.284 554.864 492.42 559.061 498.529C563.26 504.642 567.472 510.728 571.422 516.97C579.074 529.062 585.725 541.716 589.354 556.2L589.695 557.608C602.74 613.321 583.66 665.778 538.497 692.352C492.1 719.656 430.639 712.353 390.241 674.706C350.85 638.001 339.315 580.223 363.861 531.093C371.091 516.628 379.321 502.686 387.693 488.795C396.062 474.908 404.576 461.069 412.354 446.833C470.607 340.171 451.857 237.574 387.107 137.401C368.507 108.63 346.54 81.8423 344.129 45.4207Z" stroke="white" stroke-opacity="0.2"/>
<path opacity="0.666667" d="M355.41 23.0795C356.499 -28.9129 385.343 -72.7321 432.913 -90.8793L434.04 -91.3034C479.567 -108.165 534.958 -92.5266 569.297 -53.1335L569.235 -53.1092L569.698 -52.571C609.476 -6.43138 607.943 60.8702 565.808 112.382C527.913 158.717 495.59 207.982 483.231 268.745C468.475 341.386 486.856 408.462 519.435 473.626C522.751 480.268 526.385 486.744 530.033 493.196C533.684 499.652 537.349 506.081 540.74 512.644C547.309 525.357 552.832 538.543 555.185 553.288L555.402 554.72C563.541 611.358 539.962 661.952 492.655 684.49C444.055 707.645 383.465 695.014 346.501 653.989C310.459 613.991 304.004 555.427 332.739 508.623C341.201 494.844 350.615 481.672 360.166 468.563C369.713 455.459 379.401 442.414 388.39 428.91C455.718 327.732 445.981 223.891 390.209 118.456C374.187 88.1728 354.637 59.5727 355.41 23.0795Z" stroke="white" stroke-opacity="0.2"/>
<path opacity="0.708333" d="M367.465 2.84544C373.081 -48.8542 405.634 -89.9928 454.605 -103.925L455.764 -104.249C502.588 -117.079 556.406 -96.6721 587.18 -54.436L587.116 -54.4172L587.531 -53.8407C623.136 -4.40982 615.743 62.502 569.278 110.145C527.489 153.002 490.996 199.262 473.388 258.717C452.358 329.795 464.822 398.218 491.598 465.973C494.323 472.878 497.378 479.647 500.45 486.393C503.524 493.142 506.615 499.867 509.421 506.7C514.857 519.937 519.21 533.554 520.268 548.448L520.36 549.893C523.532 607.025 495.633 655.372 446.541 673.7C396.108 692.532 336.85 674.668 303.602 630.578C271.183 587.59 269.857 528.687 302.562 484.565C312.193 471.576 322.719 459.275 333.376 447.048C344.029 434.826 354.817 422.675 364.949 410.007C440.838 315.081 440.189 210.786 393.818 100.892C380.497 69.3275 363.514 39.1324 367.465 2.84544Z" stroke="white" stroke-opacity="0.2"/>
<path opacity="0.75" d="M380.107 -15.2314C390.208 -66.2447 426.223 -104.39 476.222 -114.001L477.405 -114.223C525.168 -122.922 577.003 -97.9029 603.979 -53.1454L603.914 -53.1323L604.276 -52.5218C635.438 -0.175846 622.242 65.8371 571.801 109.249C526.436 148.301 486.049 191.204 463.327 248.898C436.182 317.873 442.635 387.122 463.404 456.953C465.516 464.069 467.97 471.079 470.443 478.066C472.917 485.058 475.41 492.026 477.61 499.078C481.871 512.738 485.021 526.683 484.777 541.613L484.742 543.06C482.923 600.252 450.917 645.983 400.414 659.963C348.532 674.327 291.055 651.366 261.778 604.546C233.228 558.897 237.041 500.102 273.466 458.999C284.193 446.899 295.752 435.561 307.434 424.31C319.111 413.063 330.917 401.898 342.115 390.161C425.989 302.211 434.432 198.256 397.815 84.7387C387.295 52.1335 373.009 20.5732 380.107 -15.2314Z" stroke="white" stroke-opacity="0.2"/>
<path opacity="0.791667" d="M393.147 -31.0994C407.655 -81.0382 446.858 -115.899 497.503 -121.116L498.702 -121.234C547.041 -125.738 596.498 -96.2957 619.471 -49.3574L619.405 -49.35L619.713 -48.7103C646.193 6.15241 627.294 70.7641 573.262 109.615C524.666 144.564 480.694 183.784 453.029 239.278C419.976 305.625 420.369 375.172 434.973 446.548C436.457 453.821 438.29 461.018 440.145 468.194C442 475.375 443.876 482.534 445.453 489.751C448.508 503.731 450.43 517.897 448.886 532.748L448.725 534.188C441.928 591.003 406.058 633.77 354.529 643.295C301.592 653.083 246.336 625.2 221.25 576.006C196.788 528.043 205.71 469.804 245.58 432.032C257.32 420.913 269.823 410.626 282.441 400.436C295.055 390.249 307.788 380.156 319.966 369.439C411.187 289.134 428.658 186.311 402.074 70.0336C394.436 36.6356 382.955 3.95035 393.147 -31.0994Z" stroke="white" stroke-opacity="0.2"/>
<path opacity="0.833333" d="M406.389 -44.7371C425.195 -93.2214 467.286 -124.533 518.194 -125.316L519.398 -125.329C567.947 -125.603 614.649 -91.9621 633.444 -43.2001L633.377 -43.1986L633.628 -42.5345C655.226 14.4274 630.768 77.146 573.555 111.14C522.098 141.72 474.875 176.959 442.479 229.83C403.769 293.044 398.099 362.361 406.427 434.738C407.271 442.113 408.47 449.442 409.692 456.753C410.914 464.068 412.16 471.363 413.102 478.69C414.926 492.883 415.607 507.162 412.774 521.823L412.488 523.243C400.765 579.249 361.304 618.728 309.141 623.726C255.553 628.863 202.937 596.27 182.234 545.077C162.045 495.164 176.01 437.924 219.019 403.771C231.684 393.717 245.036 384.559 258.494 375.507C271.947 366.459 285.512 357.514 298.578 347.899C396.45 275.85 422.817 174.941 406.469 56.7892C401.77 22.8526 393.182 -10.709 406.389 -44.7371Z" stroke="white" stroke-opacity="0.2"/>
<path opacity="0.875" d="M419.639 -56.1309C442.599 -102.792 487.26 -130.315 538.042 -126.658L539.242 -126.567C587.63 -122.608 631.223 -85.0251 645.696 -34.8106L645.629 -34.8149L645.821 -34.1314C662.373 24.4961 632.541 84.8444 572.583 113.722C518.657 139.702 468.542 170.69 431.662 220.537C387.589 280.136 375.9 348.696 377.887 421.523C378.086 428.944 378.642 436.349 379.222 443.739C379.802 451.132 380.407 458.509 380.707 465.889C381.287 480.187 380.72 494.472 376.621 508.83L376.212 510.219C359.653 564.991 316.901 600.88 264.501 601.312C210.669 601.759 161.094 564.705 144.931 511.902C129.17 460.42 148.07 404.615 193.892 374.34C207.385 365.428 221.484 357.469 235.68 349.624C249.871 341.783 264.164 334.054 278.018 325.615C381.797 262.37 416.858 164.143 410.87 45.016C409.147 10.799 403.516 -23.3833 419.639 -56.1309Z" stroke="white" stroke-opacity="0.2"/>
<path opacity="0.916667" d="M432.701 -65.2908C459.64 -109.773 506.529 -133.3 556.8 -125.23L557.988 -125.034C605.846 -116.874 645.997 -75.6344 656.039 -24.3495L655.973 -24.3597L656.105 -23.662C667.484 36.185 632.506 93.7036 570.259 117.246C514.273 138.426 461.649 164.929 420.564 211.372C371.465 266.903 353.845 334.183 349.478 406.907C349.028 414.316 348.937 421.742 348.871 429.154C348.804 436.57 348.764 443.971 348.419 451.35C347.751 465.644 345.942 479.825 340.606 493.771L340.078 495.119C318.808 548.239 273.091 580.265 220.853 576.129C167.186 571.883 121.03 530.649 109.531 476.638C98.3164 423.978 122.008 370.032 170.295 343.867C184.513 336.165 199.252 329.464 214.078 322.887C228.898 316.313 243.81 309.859 258.347 302.659C367.243 248.7 410.732 153.902 415.149 34.7069C416.415 0.469928 413.785 -34.0731 432.701 -65.2908Z" stroke="white" stroke-opacity="0.2"/>
<path opacity="0.958333" d="M445.381 -72.2352C476.095 -114.2 524.856 -133.551 574.232 -121.131L575.399 -120.832C622.364 -108.531 658.768 -63.9494 664.302 -11.9845L664.237 -12.0004L664.307 -11.2939C670.427 49.3171 630.569 103.568 566.507 121.596C508.889 137.816 454.154 159.632 409.178 202.317C355.426 253.358 332.009 318.846 321.32 390.912C320.227 398.254 319.489 405.644 318.777 413.022C318.064 420.404 317.379 427.773 316.392 435.094C314.481 449.275 311.443 463.244 304.912 476.672L304.269 477.97C278.45 529.034 230.115 556.954 178.436 548.281C125.344 539.373 82.9568 494.272 76.2091 439.466C69.627 386.028 97.9302 334.353 148.314 312.495C163.149 306.062 178.416 300.671 193.759 295.412C209.095 290.153 224.513 285.024 239.622 279.119C352.807 234.856 404.393 144.209 419.181 25.8522C423.426 -8.14409 423.817 -42.7849 445.381 -72.2352Z" stroke="white" stroke-opacity="0.2"/>
<path d="M457.489 -77.021C491.744 -116.149 542.006 -131.176 590.111 -114.5L591.247 -114.101C636.961 -97.7537 669.342 -50.1689 670.325 2.08057L670.262 2.05908L670.271 2.76904C671.084 63.6828 626.65 114.254 561.261 126.629C502.448 137.766 446.02 154.728 397.495 193.332C339.499 239.493 310.464 302.691 293.534 373.551C291.805 380.77 290.426 388.067 289.073 395.355C287.72 402.647 286.395 409.928 284.774 417.135C281.634 431.096 277.39 444.747 269.714 457.555L268.96 458.792C238.789 507.411 188.205 531.012 137.479 517.868C85.3646 504.367 47.0693 455.744 45.124 400.557C43.2244 346.749 75.9236 297.737 128.021 280.354C143.36 275.238 159.039 271.199 174.781 267.296C190.518 263.395 206.324 259.629 221.891 255.063C338.503 220.833 397.792 135.027 422.84 18.4097C430.032 -15.0873 433.44 -49.5622 457.489 -77.021Z" stroke="white" stroke-opacity="0.2"/>
</svg>
