<svg width="710" height="691" viewBox="0 0 710 691" fill="none" xmlns="http://www.w3.org/2000/svg">
<g opacity="0.0110169">
<path d="M239.38 176.532C228.894 137.853 240.68 97.9513 271.89 72.3562C301.298 48.2514 344.82 45.3547 378.214 65.2241L378.175 65.2581L378.771 65.6193C417.573 89.1088 430.975 138.797 411.439 187.476C393.863 231.284 380.964 275.811 385.075 323.606C390.005 380.746 417.853 425.211 455.612 464.582C459.459 468.598 463.501 472.41 467.546 476.197C471.593 479.987 475.643 483.751 479.522 487.684C487.034 495.301 493.882 503.529 498.763 513.716L499.229 514.708C517.338 554.098 511.104 597.276 481.577 626.04C451.242 655.594 404.505 662.005 368.839 641.527C334.065 621.565 316.756 580.344 327.559 538.604C330.743 526.307 334.75 514.209 338.871 502.119C342.991 490.035 347.226 477.954 350.855 465.718C364.435 419.89 363.869 378.54 351.974 340.773C340.081 303.012 316.873 268.863 285.217 237.414C267.02 219.337 246.673 203.457 239.38 176.532Z" stroke="#F2F2F2" stroke-opacity="0.5"/>
<path d="M82.4756 338.015L83.1987 336.902C114.358 289.539 178.061 274.842 223.381 304.394L223.372 304.408L223.779 304.676C271.093 335.885 283.807 400.14 252.285 448.793C221.516 496.277 155.01 510.295 108.791 479.03C63.9588 448.698 52.1866 385.28 82.4756 338.015Z" stroke="#F2F2F2" stroke-opacity="0.5"/>
</g>
<g opacity="0.0220339">
<path d="M240.789 173.866C231.086 135.431 243.259 96.1774 274.272 71.1769L275.008 70.5892C304.74 47.0738 348.172 44.9435 381.114 65.3289L381.073 65.3621L381.664 65.7342C419.634 89.6354 432.23 138.81 412.578 186.639L412.108 187.769C393.825 231.133 380.192 275.292 383.459 323.007L383.46 323.008C387.379 380.053 414.364 424.86 451.319 464.764C455.083 468.833 459.046 472.704 463.012 476.549C466.981 480.398 470.952 484.22 474.75 488.208C482.343 496.181 489.219 504.789 493.924 515.488C511.29 555.068 504.325 598 474.391 626.158C443.64 655.089 396.94 660.666 361.744 639.633C327.429 619.129 310.893 577.74 322.388 536.32C325.776 524.119 329.981 512.129 334.299 500.149C338.616 488.175 343.047 476.207 346.877 464.073C361.212 418.626 361.366 377.398 350.166 339.544C338.968 301.695 316.428 267.252 285.42 235.351C267.595 217.015 247.591 200.832 240.789 173.866Z" stroke="#F2F2F2" stroke-opacity="0.5"/>
<path d="M105.352 473.128C60.8436 441.869 50.3949 377.693 82.3147 331.01C114.198 284.341 177.952 270.8 222.612 301.044L222.604 301.057L223.006 301.334C269.626 333.266 281.181 397.535 248.913 445.484C217.417 492.281 150.879 505.097 105.352 473.128Z" stroke="#F2F2F2" stroke-opacity="0.5"/>
</g>
<g opacity="0.0330508">
<path d="M242.219 171.267C233.145 132.483 246.235 93.2577 278.124 68.9167C308.17 45.9946 351.498 44.6262 383.979 65.5183L383.938 65.5509L384.522 65.9327C422.249 90.6105 433.838 140.431 412.745 188.105C394.062 230.342 379.858 273.427 381.733 320.186L381.834 322.416C384.703 378.457 410.058 423.068 445.324 463.003L447.012 464.9C450.693 469.023 454.576 472.949 458.462 476.852C462.351 480.757 466.243 484.636 469.96 488.677C477.158 496.504 483.675 504.914 488.17 515.202L488.598 516.204C505.22 555.958 497.529 598.63 467.202 626.177C436.046 654.481 389.399 659.228 354.682 637.65C320.834 616.615 305.072 575.071 317.25 533.984C320.84 521.881 325.24 510.002 329.753 498.136C334.264 486.275 338.889 474.423 342.918 462.394L342.917 462.393C357.997 417.341 358.869 376.247 348.363 338.319C337.859 300.396 315.991 265.669 285.637 233.331C268.188 214.743 248.53 198.264 242.219 171.267Z" stroke="#F2F2F2" stroke-opacity="0.5"/>
<path d="M102.006 467.217C58.1845 435.283 48.8854 371.131 81.5151 325.153C114.108 279.188 177.893 266.799 221.884 297.723L221.874 297.737L222.272 298.019C268.186 330.66 278.586 394.925 245.588 442.159C213.378 488.258 146.831 499.874 102.006 467.217Z" stroke="#F2F2F2" stroke-opacity="0.5"/>
</g>
<g opacity="0.0440678">
<path d="M243.666 168.734C235.295 129.917 249.026 91.0454 281.236 67.3375C311.584 45.0124 354.795 44.4024 386.808 65.7913L386.767 65.8231L387.343 66.2151C424.519 91.4698 435.204 141.331 413.349 188.486C393.992 230.263 379.084 272.962 380.139 319.604L380.201 321.828C382.115 378.628 407.367 424.073 442.69 464.992C446.289 469.165 450.09 473.147 453.897 477.104C457.706 481.064 461.518 484.999 465.152 489.092C472.191 497.019 478.54 505.515 482.841 515.848L483.251 516.854C499.127 556.77 490.72 599.172 460.011 626.102C428.463 653.772 381.884 657.692 347.654 635.58C314.281 614.023 299.29 572.339 312.144 531.596C315.933 519.594 320.527 507.83 325.232 496.08C329.935 484.336 334.751 472.601 338.976 460.681C354.792 416.036 356.377 375.088 346.564 337.098C336.907 299.707 316.217 265.212 287.25 232.892L285.865 231.355C268.794 212.523 249.486 195.754 243.666 168.734Z" stroke="#F2F2F2" stroke-opacity="0.5"/>
<path d="M98.7518 461.295C55.6269 428.702 47.4739 364.596 80.7985 319.333L80.7991 319.332C114.087 274.083 177.88 262.844 221.191 294.433L221.182 294.446L221.574 294.736C266.42 327.809 275.875 391.308 243.09 437.724L242.308 438.817C209.4 484.207 142.865 494.628 98.7518 461.295Z" stroke="#F2F2F2" stroke-opacity="0.5"/>
</g>
<g opacity="0.0550847">
<path d="M245.129 166.268C237.461 127.431 251.824 88.9241 284.342 65.8531C314.98 44.1284 358.061 44.2707 389.598 66.1462L389.557 66.1765L390.128 66.579C426.744 92.399 436.527 142.286 413.922 188.908C393.582 230.869 377.802 273.86 378.56 321.246C379.465 377.012 403.104 422.204 436.749 463.095L438.358 465.039C441.872 469.261 445.592 473.296 449.317 477.307C453.045 481.32 456.777 485.309 460.328 489.452C467.428 497.734 473.785 506.609 477.885 517.439C493.016 557.502 483.898 599.62 452.82 625.93C420.891 652.962 374.395 656.059 340.66 633.422C307.769 611.355 293.553 569.544 307.074 529.157C311.06 517.259 315.843 505.613 320.737 493.984C325.629 482.359 330.635 470.745 335.054 458.937C351.595 414.709 353.887 373.92 344.767 335.881C335.649 297.848 315.13 262.596 286.102 229.421C269.414 210.352 250.46 193.302 245.129 166.268Z" stroke="#F2F2F2" stroke-opacity="0.5"/>
<path d="M95.5893 455.368C53.1707 422.129 46.1599 358.088 80.1645 313.551L80.1651 313.55C114.132 269.026 177.915 258.933 220.536 291.172L220.526 291.185L220.914 291.481C265.387 325.494 273.488 389.687 239.074 435.458C205.482 480.13 138.98 489.361 95.5893 455.368Z" stroke="#F2F2F2" stroke-opacity="0.5"/>
</g>
<g opacity="0.0661017">
<path d="M246.607 163.868C239.694 125.327 254.393 87.4863 286.675 64.9885L287.441 64.4603C318.357 43.3393 361.295 44.2309 392.35 66.5831L392.308 66.6127L392.871 67.0246C428.919 93.3979 437.803 143.294 414.459 189.372C393.455 230.844 376.978 273.423 376.909 320.669C376.841 376.272 399.618 421.73 432.443 463.074L434.013 465.04C437.443 469.31 441.081 473.397 444.724 477.46C448.37 481.525 452.02 485.565 455.487 489.756C462.42 498.136 468.603 507.092 472.501 517.958C486.774 557.842 477.216 599.326 446.362 625.058L445.63 625.663C413.334 652.052 366.934 654.33 333.702 631.18C301.302 608.611 287.86 566.688 302.04 526.667C306.22 514.877 311.189 503.352 316.27 491.845C321.349 480.343 326.541 468.854 331.151 457.16C348.409 413.362 351.403 372.744 342.975 334.669C334.679 297.194 315.325 262.213 287.673 229.105L286.35 227.53C270.047 208.232 251.451 190.908 246.607 163.868Z" stroke="#F2F2F2" stroke-opacity="0.5"/>
<path d="M92.5191 449.434C50.8162 415.565 44.9426 351.608 79.6123 307.807C114.244 264.019 177.994 255.068 219.917 287.943L219.908 287.955L220.29 288.259C264.027 322.936 270.985 387.062 235.886 432.086C201.625 476.029 135.178 484.072 92.5191 449.434Z" stroke="#F2F2F2" stroke-opacity="0.5"/>
</g>
<g opacity="0.0771186">
<path d="M248.1 161.535C241.88 122.999 257.19 85.5369 289.759 63.6739L290.531 63.1603C321.713 42.6461 364.496 44.2818 395.061 67.1008L395.018 67.1297L395.574 67.5512C431.046 94.466 439.033 144.354 414.964 189.877C393.305 230.85 376.141 273.004 375.25 320.097L375.25 320.097C374.199 376.4 396.828 422.676 429.658 464.996C433.002 469.311 436.557 473.449 440.118 477.562C443.682 481.678 447.249 485.769 450.633 490.007C457.398 498.48 463.404 507.515 467.101 518.414C480.74 558.731 470.222 600.247 438.442 625.3C405.792 651.041 359.504 652.505 326.783 628.852C295.13 605.974 282.411 564.428 296.699 525.058L297.041 524.128C301.413 512.449 306.567 501.047 311.832 489.666C317.094 478.289 322.469 466.927 327.268 455.352C345.232 411.995 348.923 371.561 341.184 333.461C333.446 295.367 314.289 259.641 286.607 225.683C270.692 206.164 252.458 188.572 248.101 161.536L248.1 161.535Z" stroke="#F2F2F2" stroke-opacity="0.5"/>
<path d="M89.5414 443.497C48.563 409.013 43.8198 345.161 79.1392 302.105C114.42 259.062 178.119 251.249 219.334 284.745L219.324 284.758L219.701 285.068C262.693 320.393 268.512 384.432 232.744 428.699C197.83 471.903 131.459 478.765 89.5414 443.497Z" stroke="#F2F2F2" stroke-opacity="0.5"/>
</g>
<g opacity="0.0881356">
<path d="M249.607 159.27C244.034 120.447 260.241 83.0929 293.611 61.9529C325.048 42.0485 367.661 44.4233 397.729 67.6987L397.687 67.726L398.235 68.1572C433.123 95.6014 440.216 145.465 415.433 190.422C393.132 230.885 375.29 272.604 373.583 319.529L373.582 319.53C371.586 374.756 392.632 420.697 423.802 462.901L425.294 464.907C428.552 469.267 432.024 473.452 435.501 477.614C438.982 481.778 442.467 485.918 445.765 490.201C452.361 498.765 458.19 507.874 461.685 518.802C474.578 559.225 463.373 600.424 431.261 624.842C398.27 649.932 352.106 650.585 319.903 626.44C288.506 602.901 276.609 560.797 292.081 521.54C296.641 509.974 301.976 498.699 307.422 487.446C312.865 476.198 318.421 464.967 323.405 453.513L323.406 453.512C342.066 410.609 346.448 370.369 339.397 332.258C332.347 294.153 313.873 258.207 286.872 223.877C271.348 204.144 253.48 186.293 249.607 159.27Z" stroke="#F2F2F2" stroke-opacity="0.5"/>
<path d="M77.9111 297.441L78.7466 296.445C114.661 254.156 178.288 247.477 218.786 281.581L218.776 281.593L219.147 281.909C261.385 317.867 266.071 381.8 229.649 425.301C194.097 467.756 127.822 473.44 86.6549 437.558C46.7244 402.747 42.852 339.741 77.9111 297.441Z" stroke="#F2F2F2" stroke-opacity="0.5"/>
</g>
<g opacity="0.0991525">
<path d="M251.124 157.07C246.245 118.277 263.049 81.3279 296.677 60.8375C328.357 41.5454 370.79 44.6522 400.355 68.3732L400.311 68.4005L400.852 68.8412C435.149 96.8026 441.351 146.627 415.867 191.006C392.934 230.95 374.424 272.224 371.905 318.967C368.908 374.852 389.781 421.601 420.92 464.773C424.092 469.175 427.479 473.407 430.873 477.616C434.27 481.827 437.672 486.015 440.886 490.341C447.311 498.991 452.962 508.173 456.255 519.126C468.403 559.641 456.517 600.51 424.085 624.29C390.765 648.723 344.741 648.571 313.063 623.944C282.178 599.936 271.053 557.763 287.157 518.903C291.904 507.455 297.418 496.309 303.042 485.187C308.663 474.07 314.396 462.972 319.564 451.642C338.91 409.202 343.979 369.168 337.613 331.058C331.249 292.954 313.46 256.805 287.144 222.117C272.014 202.177 254.515 184.073 251.124 157.07Z" stroke="#F2F2F2" stroke-opacity="0.5"/>
<path d="M83.8596 431.618C44.3564 395.948 41.8601 332.367 78.4322 290.829C114.965 249.303 178.5 243.752 218.272 278.448L218.262 278.46L218.627 278.783C260.101 315.358 263.66 379.163 226.6 421.888C190.425 463.587 124.268 468.099 83.8596 431.618Z" stroke="#F2F2F2" stroke-opacity="0.5"/>
</g>
<g opacity="0.110169">
<path d="M252.652 154.938C248.464 116.187 265.855 79.6515 299.73 59.8132C331.641 41.1358 373.88 44.9701 402.935 69.1267L402.891 69.1533L403.424 69.6033C437.122 98.0697 442.438 147.839 416.265 191.629C392.711 231.044 373.544 271.861 370.22 318.409C366.261 374.06 386.251 421.02 416.538 464.593C419.622 469.036 422.926 473.313 426.235 477.567C429.548 481.824 432.865 486.057 435.993 490.425C442.051 498.886 447.378 507.831 450.516 518.359L450.813 519.383C462.216 559.977 449.658 600.505 416.918 623.643C383.282 647.417 337.411 646.465 306.266 621.367C275.9 596.901 265.544 554.673 282.272 516.22C287.202 504.892 292.893 493.878 298.692 482.891C304.489 471.908 310.395 460.946 315.743 449.742C335.765 407.777 341.514 367.961 335.832 329.864C330.152 291.773 313.05 255.431 287.422 220.398C272.689 200.26 255.561 181.911 252.652 154.938Z" stroke="#F2F2F2" stroke-opacity="0.5"/>
<path d="M81.1546 425.681C42.4016 389.44 41.0202 326.023 78.1952 285.258C115.331 244.504 178.753 240.076 217.791 275.349L217.781 275.361L218.14 275.69C258.842 312.867 261.28 376.525 223.598 418.466C186.816 459.398 120.796 462.746 81.1546 425.681Z" stroke="#F2F2F2" stroke-opacity="0.5"/>
</g>
<g opacity="0.121186">
<path d="M254.189 152.873C250.689 114.176 268.659 78.0628 302.768 58.8791C334.898 40.8187 376.93 45.3749 405.47 69.956L405.426 69.9811L405.951 70.4411C439.043 99.4001 443.475 149.098 416.626 192.289C392.464 231.165 372.648 271.517 368.525 317.855C363.687 372.39 382.128 418.935 410.778 462.305L412.149 464.368C415.146 468.851 418.365 473.172 421.59 477.469C424.817 481.77 428.05 486.046 431.092 490.454C437.173 499.268 442.467 508.583 445.358 519.575C456.017 560.234 442.796 600.411 409.762 622.903C375.823 646.014 330.118 644.267 299.512 618.71C269.671 593.796 260.084 551.525 277.426 513.489C282.538 502.284 288.402 491.406 294.373 480.555C300.342 469.709 306.42 458.885 311.945 447.811C332.632 406.331 339.054 366.746 334.054 328.674C329.054 290.608 312.641 254.088 287.706 218.723C273.371 198.395 256.619 179.808 254.189 152.873Z" stroke="#F2F2F2" stroke-opacity="0.5"/>
<path d="M78.5414 419.746C40.5465 382.949 40.2728 319.718 78.0348 279.733C115.757 239.759 179.047 236.449 217.344 272.283L217.333 272.296L217.688 272.631C257.609 310.395 258.931 373.886 220.642 415.034C183.269 455.192 117.408 457.378 78.5414 419.746Z" stroke="#F2F2F2" stroke-opacity="0.5"/>
</g>
<g opacity="0.132203">
<path d="M255.734 150.875C252.918 112.245 271.458 76.563 305.788 58.0359C338.126 40.5944 379.939 45.8661 407.957 70.8617L407.913 70.886L408.43 71.3544C440.908 100.794 444.461 150.406 416.949 192.988C392.19 231.316 371.737 271.19 366.822 317.305L366.823 317.305C360.96 372.439 379.184 419.772 407.753 464.097C410.663 468.618 413.796 472.98 416.936 477.32C420.077 481.663 423.226 485.981 426.181 490.428C432.089 499.319 437.204 508.695 439.894 519.701C449.81 560.412 435.933 600.226 402.616 622.069C368.387 644.513 322.864 641.977 292.803 615.972C263.494 590.62 254.675 548.322 272.621 510.714C277.91 499.634 283.945 488.894 290.085 478.182C296.223 467.476 302.469 456.794 308.169 445.852L308.169 445.851C329.509 404.867 336.6 365.523 332.279 327.489C327.958 289.461 312.233 252.774 287.995 217.092C274.06 196.58 257.688 177.764 255.734 150.875Z" stroke="#F2F2F2" stroke-opacity="0.5"/>
<path d="M76.0192 413.816C38.7894 376.48 39.6162 313.452 77.9495 274.255L77.9502 274.255C116.243 235.07 179.381 232.872 216.928 269.253L216.917 269.264L217.265 269.607C256.398 307.94 256.611 371.245 217.733 411.591C179.785 450.966 114.103 452.001 76.0192 413.816Z" stroke="#F2F2F2" stroke-opacity="0.5"/>
</g>
<g opacity="0.14322">
<path d="M257.285 148.944C255.151 110.392 274.25 75.1501 308.789 57.2815C341.323 40.4606 382.906 46.4422 410.396 71.8415L410.352 71.8651L410.86 72.3424C442.719 102.249 445.398 151.759 417.236 193.721C391.891 231.493 370.811 270.88 365.11 316.758C358.307 371.61 375.65 419.104 403.353 463.781C406.175 468.337 409.221 472.741 412.275 477.121C415.331 481.504 418.393 485.863 421.261 490.346C426.994 499.31 431.93 508.744 434.42 519.76C443.596 560.509 429.072 599.951 395.485 621.143C360.978 642.917 315.649 639.597 286.14 613.154C257.37 587.377 249.315 545.066 267.856 507.894C273.321 496.943 279.522 486.343 285.829 475.773C292.132 465.208 298.544 454.67 304.416 443.864L304.416 443.863C326.4 403.385 334.151 364.294 330.506 326.309C326.861 288.33 311.826 251.49 288.289 215.503C274.756 194.816 258.765 175.777 257.285 148.944Z" stroke="#F2F2F2" stroke-opacity="0.5"/>
<path d="M73.5866 407.892C37.1293 370.032 39.0503 307.226 77.9392 268.826C116.787 230.437 179.754 229.344 216.544 266.258L216.533 266.269L216.875 266.616C255.212 305.504 254.323 368.604 214.871 408.14C176.363 446.725 110.88 446.613 73.5866 407.892Z" stroke="#F2F2F2" stroke-opacity="0.5"/>
</g>
<g opacity="0.154237">
<path d="M258.842 147.079C257.385 108.618 277.034 73.8253 311.769 56.6166C344.487 40.4178 385.827 47.1021 412.785 72.8939L412.74 72.9174L413.24 73.4035C444.473 103.765 446.281 153.156 417.483 194.49L417.482 194.491C391.564 231.697 369.868 270.588 363.388 316.216C355.774 369.917 371.605 416.918 397.698 461.309L398.948 463.421C401.681 468.011 404.64 472.452 407.608 476.871C410.577 481.293 413.554 485.691 416.335 490.209C421.893 499.243 426.647 508.732 428.938 519.755C437.374 560.529 422.212 599.586 388.368 620.123C353.597 641.225 308.477 637.128 279.526 610.26C251.52 584.272 244.122 542.417 262.69 505.892L263.133 505.03C268.771 494.21 275.135 483.753 281.604 473.328C288.071 462.908 294.646 452.515 300.686 441.846C323.302 401.884 331.708 363.055 328.735 325.132C325.763 287.215 311.418 250.235 288.584 213.957C275.456 193.103 259.85 173.849 258.842 147.079Z" stroke="#F2F2F2" stroke-opacity="0.5"/>
<path d="M71.2437 401.976C35.566 363.607 38.5732 301.043 78.0013 263.447C117.388 225.861 180.164 225.867 216.19 263.297L216.179 263.308L216.515 263.661C254.049 303.087 252.064 365.962 212.055 404.681C173.004 442.469 107.74 441.218 71.2437 401.976Z" stroke="#F2F2F2" stroke-opacity="0.5"/>
</g>
<g opacity="0.165254">
<path d="M260.403 145.28C259.621 106.922 279.809 72.5872 314.728 56.0402C347.619 40.4647 388.704 47.8452 415.123 74.0192L415.077 74.0412L415.569 74.536C445.931 105.1 447.097 153.831 418.375 194.34L417.691 195.295C391.211 231.927 368.911 270.312 361.658 315.677C353 369.915 368.575 417.684 394.539 463.014C397.183 467.636 400.055 472.115 402.936 476.571C405.819 481.03 408.709 485.465 411.402 490.017C416.785 499.118 421.359 508.658 423.449 519.683C431.149 560.469 415.357 599.133 381.268 619.013C346.246 639.44 301.347 634.57 272.96 607.288C245.282 580.691 238.751 538.395 258.453 502.123C264.259 491.437 270.784 481.125 277.414 470.848C284.04 460.574 290.774 450.331 296.98 439.802C320.216 400.365 329.271 361.811 326.967 323.962C324.665 286.117 311.011 249.01 288.884 212.454C276.162 191.44 260.942 171.979 260.403 145.28Z" stroke="#F2F2F2" stroke-opacity="0.5"/>
<path d="M77.2051 258.986L78.1353 258.119C118.045 221.343 180.611 222.441 215.866 260.372L215.855 260.383L216.186 260.743C252.908 300.69 249.837 363.322 209.287 401.216C169.708 438.198 104.682 435.817 68.9895 396.071C34.3708 357.512 38.1226 295.876 77.2051 258.986Z" stroke="#F2F2F2" stroke-opacity="0.5"/>
</g>
<g opacity="0.176271">
<path d="M261.967 143.548C261.854 105.304 282.573 71.4352 317.663 55.5509C350.714 40.6 391.532 48.6702 417.408 75.2149L417.363 75.2368L417.846 75.7401C447.809 106.974 447.893 156.084 417.861 196.133L417.86 196.133C390.831 232.184 367.936 270.053 359.918 315.142C350.344 369.05 365.038 416.931 390.127 462.563C392.682 467.216 395.467 471.73 398.261 476.221C401.056 480.715 403.86 485.186 406.464 489.769C411.671 498.933 416.063 508.521 417.955 519.547C424.865 560.011 408.763 597.992 374.989 617.357L374.187 617.81L373.359 618.269C338.229 637.471 294.045 631.709 266.444 604.241C239.322 577.251 233.547 534.983 253.814 499.175C259.788 488.626 266.471 478.461 273.257 468.333C280.04 458.209 286.93 448.116 293.299 437.73C317.144 398.828 326.838 360.56 325.201 322.795C323.565 285.036 310.602 247.814 289.184 210.995C276.87 189.829 262.04 170.168 261.967 143.549L261.967 143.548Z" stroke="#F2F2F2" stroke-opacity="0.5"/>
<path d="M77.3986 253.691L78.3403 252.843C118.756 216.885 181.094 219.067 215.572 257.484L215.56 257.494L215.885 257.859C251.79 298.313 247.639 360.683 206.565 397.745C166.475 433.916 101.707 430.41 66.8257 390.176C32.9928 351.144 37.804 289.778 77.3986 253.691Z" stroke="#F2F2F2" stroke-opacity="0.5"/>
</g>
<g opacity="0.187288">
<path d="M263.532 141.884C264.085 103.766 285.324 70.37 320.574 55.1493C353.774 40.8237 394.314 49.5762 419.641 76.4811L419.596 76.5015L420.07 77.0132C449.389 108.663 448.618 157.611 417.989 197.003C390.422 232.464 366.945 269.81 358.169 314.609L358.169 314.609C347.69 368.172 361.501 416.15 385.713 462.067C388.178 466.749 390.876 471.296 393.582 475.821C396.29 480.349 399.007 484.853 401.523 489.466C406.396 498.402 410.5 507.721 412.291 518.315L412.457 519.344C418.689 560.112 401.666 597.959 367.126 616.518C331.639 635.588 287.222 629.196 259.979 601.12C233.624 573.963 228.478 532.18 248.737 497.015L249.22 496.185C255.357 485.775 262.194 475.761 269.134 465.784C276.071 455.812 283.114 445.873 289.642 435.633C314.085 397.274 324.413 359.301 323.439 321.633C322.464 283.971 310.191 246.648 289.485 209.578L289.485 209.577C277.58 188.268 263.141 168.415 263.532 141.884Z" stroke="#F2F2F2" stroke-opacity="0.5"/>
<path d="M64.7494 384.294C31.4488 344.493 37.6663 282.765 78.6147 247.621C119.52 212.487 181.611 215.745 215.306 254.633L215.294 254.643L215.612 255.013C250.693 295.956 245.471 358.045 203.89 394.269C163.304 429.621 98.8147 425.001 64.7494 384.294Z" stroke="#F2F2F2" stroke-opacity="0.5"/>
</g>
<g opacity="0.198305">
<path d="M265.098 140.285C266.312 102.304 288.061 69.3896 323.457 54.8332C356.794 41.1337 397.044 50.5616 421.819 77.8151L421.774 77.8348L422.239 78.3554C450.909 110.409 449.289 159.179 418.078 197.906C389.986 232.769 365.937 269.582 356.411 314.079C345.035 367.281 357.965 415.34 381.297 461.525C383.673 466.235 386.282 470.813 388.901 475.37C391.521 479.93 394.15 484.467 396.578 489.109C401.43 498.39 405.46 508.063 406.956 519.077C412.457 559.816 394.834 597.239 360.087 615.135C324.387 633.524 280.23 626.381 253.567 597.925C227.57 570.184 223.302 528.009 244.669 493.155C250.967 482.886 257.956 473.025 265.047 463.203C272.134 453.384 279.325 443.601 286.009 433.508L286.01 433.508C311.039 395.702 321.993 358.036 321.677 320.476C321.361 282.923 309.779 245.509 289.786 208.203C278.471 187.093 264.685 167.347 265.069 141.52L265.098 140.285Z" stroke="#F2F2F2" stroke-opacity="0.5"/>
<path d="M62.7612 378.427C30.2647 338.18 37.5346 276.766 78.9569 242.453C120.336 208.148 182.162 212.476 215.067 251.818L215.056 251.828L215.367 252.204C249.618 293.619 243.334 355.409 201.262 390.788C160.197 425.316 96.0039 419.589 62.7612 378.427Z" stroke="#F2F2F2" stroke-opacity="0.5"/>
</g>
<g opacity="0.209322">
<path d="M266.663 138.752C268.534 100.92 290.782 68.4956 326.312 54.6038C359.774 41.5304 399.725 51.6253 423.942 79.2172L423.897 79.2361L424.352 79.764C452.368 112.209 449.906 160.787 418.125 198.841C389.521 233.098 364.912 269.37 354.643 313.553C342.379 366.379 354.431 414.503 376.882 460.939C379.168 465.674 381.688 470.283 384.219 474.869C386.751 479.46 389.293 484.027 391.632 488.696C396.161 497.739 399.913 507.134 401.324 517.716L401.454 518.743C406.227 559.442 388.012 596.433 353.071 613.664C317.171 631.369 273.287 623.481 247.209 594.657C221.782 566.558 218.262 524.451 240.164 490.086C246.619 479.961 253.757 470.255 260.994 460.588C268.228 450.926 275.566 441.301 282.404 431.358C308.007 394.114 319.58 356.764 319.918 319.324C320.257 281.89 309.363 244.401 290.087 206.872C279.004 185.298 265.354 165.083 266.663 138.752Z" stroke="#F2F2F2" stroke-opacity="0.5"/>
<path d="M60.8605 372.575C29.1737 331.898 37.4874 270.818 79.3672 237.341L79.368 237.34C121.204 203.872 182.745 209.26 214.855 249.041L214.843 249.051L215.148 249.432C248.563 291.304 241.226 352.776 198.68 387.305C157.152 421.002 93.2753 414.177 60.8605 372.575Z" stroke="#F2F2F2" stroke-opacity="0.5"/>
</g>
<g opacity="0.220339">
<path d="M268.225 137.285C270.748 99.6131 293.485 67.6849 329.137 54.4581C362.713 42.0112 402.353 52.7669 426.008 80.6858L425.963 80.7039L426.409 81.2396C453.765 114.062 450.466 162.433 418.131 199.805C389.027 233.45 363.87 269.172 352.867 313.029C339.725 365.465 350.9 413.636 372.467 460.307C374.663 465.066 377.095 469.703 379.537 474.319C381.981 478.938 384.435 483.534 386.684 488.227C391.181 497.612 394.847 507.357 395.95 518.345C400 558.989 381.202 595.538 346.078 612.103C309.993 629.124 266.395 620.5 240.906 591.32C216.248 563.095 213.322 521.503 235.182 487.774L235.703 486.979C242.313 477 249.595 467.45 256.977 457.942C264.355 448.439 271.835 438.973 278.822 429.183C304.987 392.51 317.172 355.486 318.161 318.178C319.149 280.875 308.945 243.321 290.387 205.583C279.716 183.888 266.463 163.504 268.225 137.285Z" stroke="#F2F2F2" stroke-opacity="0.5"/>
<path d="M59.0458 366.742C28.1736 325.651 37.5229 264.921 79.844 232.285C122.121 199.657 183.36 206.098 214.67 246.301L214.658 246.311L214.956 246.698C247.53 289.01 239.148 350.147 196.145 383.819C154.171 416.68 90.6274 408.767 59.0458 366.742Z" stroke="#F2F2F2" stroke-opacity="0.5"/>
</g>
<g opacity="0.231356">
<path d="M269.786 135.883C272.956 98.3827 296.17 66.9584 331.932 54.3966L331.931 54.3959C365.609 42.5755 404.926 53.9839 428.016 82.2181L427.97 82.2355L428.408 82.7797C455.101 115.967 450.971 164.116 418.095 200.8C388.504 233.825 362.81 268.989 351.081 312.506L351.08 312.507C337.071 364.538 347.37 412.742 368.053 459.631C370.159 464.412 372.502 469.077 374.856 473.719C377.212 478.365 379.576 482.989 381.736 487.705C386.054 497.136 389.538 506.911 390.447 517.881C393.776 558.458 374.407 594.557 339.114 610.455C302.854 626.791 259.554 617.437 234.659 587.912C210.575 559.354 208.383 517.852 230.756 484.617L231.289 483.834C238.05 474.004 245.474 464.613 252.996 455.265C260.514 445.922 268.134 436.619 275.269 426.983L275.268 426.982C301.983 390.887 314.771 354.2 316.405 317.035C318.039 279.875 308.522 242.27 290.683 204.335C280.425 182.528 267.574 161.983 269.786 135.883Z" stroke="#F2F2F2" stroke-opacity="0.5"/>
<path d="M57.3188 360.927C27.2658 319.439 37.6393 259.077 80.385 227.288C123.086 195.506 184.004 202.99 214.509 243.6L214.497 243.61L214.788 244.002C246.516 286.737 237.098 347.522 193.655 380.331C151.252 412.351 88.0624 403.36 57.3188 360.927Z" stroke="#F2F2F2" stroke-opacity="0.5"/>
</g>
<g opacity="0.242373">
<path d="M271.341 134.547C275.152 97.229 298.835 66.3148 334.694 54.4179C368.462 43.2239 407.446 55.2765 429.966 83.8153L429.92 83.8318L430.348 84.3828C456.372 117.921 451.42 165.836 418.018 201.823C387.952 234.222 361.732 268.821 349.286 311.988C334.651 362.794 343.555 410.313 362.721 456.703L363.641 458.911C365.657 463.713 367.911 468.402 370.176 473.07C372.443 477.741 374.719 482.39 376.79 487.128C380.93 496.602 384.231 506.404 384.946 517.353C387.558 557.85 367.626 593.489 332.177 608.719C295.756 624.369 252.765 614.294 228.468 584.436C204.779 555.329 203.48 513.505 226.921 480.654C233.83 470.975 241.392 461.744 249.051 452.559C256.707 443.378 264.463 434.238 271.741 424.759C298.994 389.251 312.377 352.909 314.652 315.897C316.927 278.891 308.097 241.248 290.977 203.131C281.133 181.218 268.682 160.52 271.341 134.547Z" stroke="#F2F2F2" stroke-opacity="0.5"/>
<path d="M55.6769 355.133C26.4477 313.263 37.8359 253.287 80.9895 222.349C124.098 191.418 184.679 199.936 214.375 240.938L214.362 240.948L214.646 241.344C245.523 284.486 235.08 344.901 191.213 376.843C148.397 408.017 85.5779 397.957 55.6769 355.133Z" stroke="#F2F2F2" stroke-opacity="0.5"/>
</g>
<g opacity="0.25339">
<path d="M272.89 133.275C277.337 96.1511 301.478 65.7539 337.421 54.5212C371.268 43.9531 409.909 56.6425 431.857 85.4747L431.811 85.4899L432.229 86.0482C457.581 119.925 451.811 167.59 417.896 202.874C387.369 234.64 360.636 268.666 347.481 311.47C331.766 362.649 340.321 410.871 359.232 458.147C361.157 462.967 363.322 467.679 365.498 472.371C367.676 477.066 369.864 481.738 371.845 486.496C375.806 496.01 378.926 505.836 379.448 516.76C381.347 557.165 360.863 592.336 325.27 606.897C288.701 621.86 246.031 611.072 222.337 580.893C199.415 551.703 198.677 510.42 222.044 478.196L222.6 477.437C229.654 467.911 237.35 458.844 245.143 449.823C252.933 440.806 260.821 431.832 268.239 422.512L268.24 422.511C296.018 387.597 309.988 351.612 312.899 314.765C315.765 278.499 307.917 241.43 292.029 203.762L291.266 201.968C281.837 179.958 269.789 159.114 272.89 133.275Z" stroke="#F2F2F2" stroke-opacity="0.5"/>
<path d="M80.6416 218.181L81.6561 217.47C125.156 187.395 185.381 196.937 214.262 238.315L214.249 238.324L214.526 238.725C244.547 282.258 233.09 342.285 188.817 373.356C145.943 403.441 84.1477 392.73 54.8064 350.368L54.1198 349.361C25.9405 307.455 37.9203 248.482 80.6416 218.181Z" stroke="#F2F2F2" stroke-opacity="0.5"/>
</g>
<g opacity="0.264407">
<path d="M274.433 132.069C279.511 95.1488 304.097 65.2764 340.113 54.7073C374.028 44.7642 412.314 58.0805 433.686 87.1945L433.64 87.2088L434.048 87.7752C458.725 121.977 452.146 169.378 417.733 203.952C386.757 235.079 359.522 268.524 345.667 310.954C329.115 361.687 336.802 409.894 354.826 457.338C356.661 462.175 358.737 466.909 360.824 471.623C362.913 476.339 365.012 481.034 366.904 485.811C370.567 495.063 373.44 504.593 373.916 515.086L373.954 516.104C375.143 556.403 354.118 591.098 318.393 604.99C281.976 619.154 240.014 607.949 216.809 577.995L216.264 577.284C193.753 547.563 193.913 505.991 218.327 474.186C225.523 464.816 233.35 455.913 241.273 447.058C248.698 438.761 256.21 430.503 263.345 421.955L264.767 420.242C293.058 385.93 307.606 350.309 311.149 313.638C314.691 276.972 307.228 239.288 291.551 200.847C282.537 178.747 270.893 157.765 274.433 132.069Z" stroke="#F2F2F2" stroke-opacity="0.5"/>
<path d="M52.6474 343.613C25.0782 301.027 38.4645 241.874 82.3837 212.652C126.257 183.437 186.11 193.993 214.173 235.731L214.161 235.739L214.431 236.146C243.592 280.052 231.128 339.674 186.466 369.869C142.874 399.335 80.8508 387.169 52.6474 343.613Z" stroke="#F2F2F2" stroke-opacity="0.5"/>
</g>
<g opacity="0.275424">
<path d="M275.968 130.928C281.67 94.2224 306.692 64.8789 342.768 54.9726C376.739 45.6537 414.662 59.5902 435.454 88.975L435.408 88.9885L435.806 89.5611C459.802 124.075 452.422 171.2 417.526 205.057C386.604 235.062 359.257 267.369 344.536 308.476L343.844 310.441C326.466 360.713 333.287 408.889 350.426 456.486C352.17 461.339 354.156 466.092 356.154 470.826C358.154 475.563 360.165 480.278 361.967 485.071C365.457 494.355 368.153 503.903 368.445 514.368L368.466 515.383C368.95 555.565 347.392 589.775 311.549 602.998C274.722 616.586 232.731 604.394 210.252 573.61C188.335 543.599 189.217 502.173 214.101 470.902C221.434 461.688 229.391 452.952 237.441 444.266C245.488 435.583 253.632 426.947 261.321 417.95C290.113 384.246 305.231 349 309.4 312.514C313.568 276.035 306.786 238.35 291.831 199.767C283.232 177.586 271.993 156.473 275.968 130.928Z" stroke="#F2F2F2" stroke-opacity="0.5"/>
<path d="M51.2583 337.89C24.5246 294.971 38.8939 236.253 83.1708 207.896C127.402 179.544 186.865 191.104 214.106 233.186L214.093 233.195L214.356 233.606C242.654 277.869 229.196 337.07 184.162 366.384C140.207 394.992 78.6074 381.787 51.2583 337.89Z" stroke="#F2F2F2" stroke-opacity="0.5"/>
</g>
<g opacity="0.286441">
<path d="M277.493 129.849C283.765 93.6545 308.865 65.0131 344.541 55.5382L345.386 55.3181C379.401 46.6225 416.949 61.1701 437.159 90.8144L437.113 90.8266L437.501 91.4061C460.815 126.218 452.64 173.052 417.275 206.185C385.44 236.017 357.24 268.28 342.012 309.928C323.818 359.726 329.779 407.857 346.03 455.588C347.684 460.455 349.581 465.228 351.49 469.98C353.4 474.736 355.322 479.47 357.034 484.278C360.351 493.591 362.872 503.153 362.981 513.586L362.984 514.598C362.767 554.651 340.69 588.368 304.739 600.922C267.803 613.823 226.169 600.943 204.302 569.874C183.149 539.821 184.559 498.961 209.335 468.308L209.924 467.585C217.393 458.531 225.475 449.964 233.648 441.447C241.819 432.934 250.085 424.469 257.904 415.636C287.184 382.548 302.863 347.685 307.653 311.397C312.441 275.114 306.338 237.44 292.105 198.729C283.921 176.474 273.088 155.238 277.493 129.849Z" stroke="#F2F2F2" stroke-opacity="0.5"/>
<path d="M49.9522 332.195C24.0567 288.958 39.3984 230.692 84.0164 203.202L84.0172 203.202C128.589 175.717 187.645 188.272 214.061 230.682L214.049 230.69L214.304 231.105C241.734 275.708 227.292 334.472 181.903 362.901C137.601 390.646 76.4436 376.416 49.9522 332.195Z" stroke="#F2F2F2" stroke-opacity="0.5"/>
</g>
<g opacity="0.297458">
<path d="M279.009 128.835C285.943 92.5906 311.803 64.3259 347.963 55.7415C382.011 47.6678 419.177 62.8173 438.801 92.7092L438.755 92.7211L439.133 93.3081C461.76 128.405 452.8 174.936 416.979 207.34C384.735 236.515 356.07 268.177 340.17 309.418C321.172 358.729 326.276 406.798 341.641 454.649C343.205 459.528 345.012 464.317 346.831 469.086C348.652 473.859 350.485 478.61 352.108 483.431C355.251 492.769 357.598 502.342 357.525 512.742L357.51 513.75C356.598 553.661 334.009 586.877 297.964 598.763C260.93 610.977 219.664 597.417 198.414 566.075C177.694 535.52 180.007 494.421 205.796 464.237C213.397 455.344 221.599 446.947 229.893 438.601C238.184 430.26 246.568 421.967 254.514 413.301C284.27 380.836 300.503 346.364 305.906 310.283C311.309 274.209 305.882 236.557 292.372 197.731C284.724 175.759 274.502 154.727 278.793 130.015L279.009 128.835Z" stroke="#F2F2F2" stroke-opacity="0.5"/>
<path d="M48.7284 326.527C23.6744 282.989 39.9766 225.191 84.9188 198.572L84.9197 198.571C129.815 171.957 188.449 185.495 214.036 228.217L214.023 228.225L214.271 228.645C240.624 273.22 225.656 330.97 180.756 358.772L179.691 359.423C135.059 386.301 74.3592 371.057 48.7284 326.527Z" stroke="#F2F2F2" stroke-opacity="0.5"/>
</g>
<g opacity="0.308475">
<path d="M280.512 127.884C288.053 91.8857 314.315 64.1691 350.5 56.2435L350.5 56.2426C384.57 48.7893 421.342 64.5326 440.379 94.6612L440.332 94.6723L440.7 95.265C462.639 130.634 452.901 176.848 416.64 208.517C384.509 236.585 355.793 267.115 339.104 307.001L338.319 308.908C318.529 357.719 322.778 405.713 337.259 453.666C338.732 458.556 340.449 463.36 342.18 468.144C343.911 472.932 345.655 477.698 347.189 482.531C350.255 492.194 352.469 502.091 352.044 512.84C350.441 552.597 327.353 585.304 291.227 596.522L291.226 596.523C254.108 608.05 213.22 593.819 192.589 562.215C172.63 531.646 175.446 491.128 201.106 461.555L201.717 460.859C209.446 452.129 217.767 443.903 226.177 435.73C234.584 427.562 243.085 419.444 251.154 410.945C281.372 379.11 298.148 345.039 304.161 309.176C310.079 273.879 305.566 236.878 293.225 198.599L292.631 196.775C285.277 174.395 275.258 152.937 280.512 127.884Z" stroke="#F2F2F2" stroke-opacity="0.5"/>
<path d="M47.586 320.888C23.3761 277.065 40.6271 219.749 85.8772 194.005C131.08 168.263 189.275 182.775 214.031 225.793L214.018 225.801L214.259 226.224C239.945 271.457 223.571 329.296 177.523 355.948C132.578 381.957 72.3534 365.71 47.586 320.888Z" stroke="#F2F2F2" stroke-opacity="0.5"/>
</g>
<g opacity="0.319492">
<path d="M282.003 126.996C290.144 91.2538 316.797 64.0904 352.994 56.8215C387.074 49.9867 423.445 66.3134 441.892 96.6676L441.846 96.6774L442.203 97.2764C463.45 132.904 452.941 178.788 416.256 209.717C383.231 237.564 353.674 268.005 336.458 308.399L336.458 308.399C315.887 356.698 319.287 404.6 332.883 452.64C334.267 457.538 335.895 462.356 337.536 467.153C339.178 471.955 340.833 476.736 342.277 481.579C345.164 491.261 347.199 501.161 346.589 511.865C344.299 551.457 320.723 583.649 284.526 594.2C247.337 605.041 206.839 590.149 186.829 558.297C167.471 527.487 170.982 487.158 197.068 458.134L197.688 457.451C205.543 448.885 213.977 440.833 222.501 432.835C230.488 425.34 238.557 417.891 246.282 410.126L247.822 408.57C278.49 377.369 295.801 343.709 302.417 308.074C309.032 272.445 304.95 234.875 292.883 195.859C285.943 173.428 276.332 151.871 282.004 126.996L282.003 126.996Z" stroke="#F2F2F2" stroke-opacity="0.5"/>
<path d="M46.5244 315.28C23.161 271.188 41.3489 214.372 86.8897 189.504C132.383 164.638 190.123 180.111 214.045 223.409L214.031 223.417L214.265 223.846C239.076 269.368 221.752 326.722 175.4 352.48C130.159 377.617 70.4262 360.377 46.5244 315.28Z" stroke="#F2F2F2" stroke-opacity="0.5"/>
</g>
<g opacity="0.330508">
<path d="M283.481 126.171C292.215 90.695 319.247 64.0887 355.444 57.4748C389.524 51.2568 425.483 68.1586 443.339 98.7263L443.292 98.7353L443.64 99.3412C464.193 135.214 452.922 180.755 415.827 210.938C382.432 238.115 352.448 267.937 334.588 307.892C313.582 354.919 315.73 401.968 327.929 449.317L328.517 451.571C329.81 456.477 331.349 461.306 332.901 466.115C334.454 470.929 336.02 475.721 337.375 480.572C340.084 490.271 341.94 500.173 341.145 510.829C338.175 550.243 314.12 581.914 277.866 591.798C240.618 601.955 200.52 586.41 181.134 554.32C162.231 523.036 166.648 482.522 193.709 454.015C201.686 445.616 210.231 437.737 218.864 429.915C227.493 422.097 236.214 414.333 244.52 406.175C275.624 375.616 293.461 342.372 300.674 306.975C307.886 271.584 304.471 234.073 293.124 194.983C286.599 172.509 277.397 150.86 283.481 126.171Z" stroke="#F2F2F2" stroke-opacity="0.5"/>
<path d="M86.8863 185.637L87.9549 185.069C133.722 161.082 190.99 177.504 214.076 221.066L214.064 221.073L214.29 221.506C238.222 267.301 219.961 324.155 173.323 349.017C127.802 373.28 68.5773 355.061 45.543 309.706C23.2036 265.707 41.8438 209.937 86.8863 185.637Z" stroke="#F2F2F2" stroke-opacity="0.5"/>
</g>
<g opacity="0.341525">
<path d="M284.943 125.407C294.264 90.2071 321.665 64.1645 357.851 58.2035C391.919 52.6002 427.458 70.0672 444.719 100.838L444.673 100.846L445.009 101.457C464.711 137.28 453.03 182.043 416.227 211.488L415.352 212.181C381.601 238.682 351.202 267.878 332.709 307.384C310.612 354.621 312.327 402.296 324.16 450.461C325.363 455.372 326.813 460.211 328.275 465.031C329.739 469.854 331.217 474.657 332.483 479.515C335.013 489.227 336.69 499.127 335.713 509.731C332.067 548.956 307.546 580.097 271.247 589.316C234.244 598.715 194.885 582.853 175.948 551.042L175.504 550.287L175.08 549.547C157.294 518.155 162.532 478.27 189.78 450.552C197.875 442.32 206.528 434.617 215.267 426.973C224.003 419.332 232.828 411.746 241.247 403.761C272.775 373.849 291.128 341.032 298.932 305.883C306.735 270.74 303.983 233.3 293.356 194.148C287.244 171.638 278.451 149.904 284.943 125.407Z" stroke="#F2F2F2" stroke-opacity="0.5"/>
<path d="M44.6391 304.165C22.9739 259.583 42.9993 203.81 89.0716 180.701C135.096 157.594 191.878 174.954 214.126 218.765L214.114 218.772L214.331 219.208C237.383 265.26 218.197 321.597 171.289 345.561C125.505 368.947 66.8038 349.762 44.6391 304.165Z" stroke="#F2F2F2" stroke-opacity="0.5"/>
</g>
<g opacity="0.352542">
<path d="M286.39 124.705C296.29 89.7907 324.048 64.3156 360.211 59.0049C394.257 54.014 429.366 72.0376 446.032 102.999L445.985 103.007L446.311 103.623C465.47 139.947 452.704 184.765 414.832 213.442C381.27 238.861 350.899 266.939 331.726 305.055L330.821 306.878C307.979 353.567 308.859 401.105 319.813 449.307C320.926 454.221 322.287 459.069 323.661 463.898C325.036 468.73 326.424 473.543 327.601 478.405C329.953 488.128 331.453 498.021 330.295 508.572C325.979 547.596 301.002 578.202 264.67 586.756C227.341 595.548 188.074 578.727 169.942 546.199C152.4 514.736 157.961 475.048 185.254 447.705L185.903 447.061C194.112 438.999 202.868 431.474 211.71 424.009C220.548 416.546 229.475 409.14 238.003 401.329C269.942 372.07 288.803 339.685 297.191 304.794C305.578 269.91 303.488 232.552 293.578 193.352C287.879 170.814 279.494 149.004 286.39 124.705Z" stroke="#F2F2F2" stroke-opacity="0.5"/>
<path d="M43.8144 298.658C23.0006 253.857 43.9258 198.627 90.2385 176.401C136.503 154.175 192.783 172.462 214.192 216.505L214.179 216.512L214.39 216.951C236.56 263.242 216.461 319.049 169.3 342.113C123.63 364.445 66.017 344.794 44.3208 299.728L43.8144 298.658Z" stroke="#F2F2F2" stroke-opacity="0.5"/>
</g>
<g opacity="0.363559">
<path d="M287.82 124.064C298.293 89.4446 326.396 64.5431 362.523 59.8799C396.535 55.4987 431.207 74.0676 447.276 105.209L447.23 105.216L447.545 105.839C465.861 142.082 452.713 186.112 415.158 214.066L414.266 214.724C380.379 239.47 349.627 266.921 329.857 304.571L328.924 306.371C305.717 351.779 305.403 398.407 315.011 445.853L315.476 448.112C316.501 453.029 317.772 457.883 319.057 462.719C320.343 467.558 321.643 472.378 322.731 477.244C324.838 486.669 326.144 496.241 325.008 506.37L324.89 507.352C319.911 546.163 294.489 576.226 258.136 584.119C220.786 592.23 181.95 574.785 164.447 542.057C147.381 510.15 153.846 470.326 182.077 443.545C190.398 435.654 199.254 428.308 208.194 421.023C217.131 413.74 226.156 406.515 234.791 398.88C267.127 370.278 286.485 338.335 295.45 303.712C304.415 269.095 302.981 231.831 293.788 192.594C288.501 170.036 280.526 148.157 287.82 124.064Z" stroke="#F2F2F2" stroke-opacity="0.5"/>
<path d="M43.0668 293.188C23.1056 248.182 44.9178 193.511 91.4541 172.168L91.455 172.168C137.942 150.826 193.705 170.027 214.273 214.286L214.261 214.292L214.463 214.736C235.75 261.25 214.752 316.509 167.356 338.672C121.096 360.3 63.4888 339.221 43.0668 293.188Z" stroke="#F2F2F2" stroke-opacity="0.5"/>
</g>
<g opacity="0.374576">
<path d="M289.232 123.485C300.27 89.1693 328.706 64.8435 364.788 60.8252C398.755 57.0511 432.981 76.1572 448.452 107.467L448.406 107.473L448.709 108.1C466.469 144.821 452.244 188.869 413.655 216.023C378.914 240.475 347.347 267.765 327.017 305.864C302.723 351.422 301.948 398.645 311.151 446.876C312.086 451.793 313.269 456.652 314.465 461.493C315.663 466.338 316.874 471.163 317.874 476.031C319.81 485.46 320.945 495.021 319.636 505.094L319.502 506.071C313.866 544.659 288.011 574.174 251.649 581.406C214.289 588.84 175.893 570.78 159.021 537.863C142.57 505.772 149.705 466.201 178.302 440.006C186.73 432.287 195.684 425.122 204.72 418.017C213.187 411.359 221.731 404.753 229.965 397.808L231.608 396.414C264.328 368.475 284.173 336.98 293.71 302.634C303.245 268.294 302.466 231.135 293.987 191.877C289.111 169.306 281.544 147.365 289.232 123.485Z" stroke="#F2F2F2" stroke-opacity="0.5"/>
<path d="M42.3956 287.756C23.2878 242.562 45.9737 188.463 92.7171 168.005L92.718 168.005C139.412 147.546 194.644 167.649 214.37 212.108L214.357 212.114L214.552 212.562C234.955 259.282 213.069 313.982 165.455 335.242C118.982 355.989 61.9448 333.981 42.3956 287.756Z" stroke="#F2F2F2" stroke-opacity="0.5"/>
</g>
<g opacity="0.385593">
<path d="M290.624 122.964C302.129 89.228 330.531 65.5891 366.16 61.9239L367.003 61.8415C400.914 58.6717 434.685 78.3038 449.558 109.77L449.513 109.775L449.805 110.408C466.864 147.308 451.921 190.952 412.997 217.339C377.952 241.101 346.021 267.746 325.101 305.359C300.49 349.631 298.562 395.907 306.455 443.338L306.837 445.598C307.684 450.515 308.778 455.377 309.886 460.222C310.995 465.071 312.118 469.9 313.029 474.768C314.852 484.502 315.821 494.36 314.129 504.73C307.842 543.083 281.565 572.044 245.206 578.619C207.849 585.376 169.904 566.712 153.665 533.618C137.954 501.607 145.507 462.662 173.904 437.045L174.579 436.443C183.112 428.898 192.159 421.913 201.286 414.991C210.41 408.071 219.619 401.212 228.455 393.932C261.546 366.66 281.871 335.621 291.971 301.561C302.07 267.507 301.939 230.466 294.173 191.198C289.706 168.621 282.548 146.627 290.624 122.964Z" stroke="#F2F2F2" stroke-opacity="0.5"/>
<path d="M41.8 282.364C23.5457 236.997 47.0924 183.484 94.0267 163.911C140.911 144.337 195.597 165.329 214.481 209.973L214.468 209.979L214.655 210.429C234.173 257.339 211.413 311.464 163.597 331.821C116.928 351.686 60.4762 328.765 41.8 282.364Z" stroke="#F2F2F2" stroke-opacity="0.5"/>
</g>
<g opacity="0.39661">
<path d="M291.996 122.504C304.142 88.824 333.212 65.6637 369.167 62.9258C403.012 60.3573 436.321 80.5062 450.594 112.118L450.548 112.122L450.83 112.761C467.186 149.827 451.538 193.055 412.293 218.672C376.959 241.74 344.677 267.736 323.175 304.852C297.881 348.54 295.155 394.62 302.195 442.021L302.537 444.28C303.295 449.194 304.301 454.059 305.321 458.906C306.342 463.756 307.377 468.588 308.2 473.455C309.795 482.881 310.59 492.411 308.942 502.364L308.775 503.329C301.843 541.436 275.156 569.837 238.812 575.756C201.47 581.839 163.984 562.582 148.378 529.323C133.161 496.899 141.614 457.868 170.908 432.857C179.542 425.488 188.678 418.685 197.894 411.945C207.106 405.209 216.402 398.534 225.333 391.433C258.782 364.833 279.574 334.257 290.231 300.493C300.887 266.735 301.401 229.821 294.346 190.557C290.288 167.982 283.537 145.941 291.996 122.504Z" stroke="#F2F2F2" stroke-opacity="0.5"/>
<path d="M41.2776 277.011C23.8771 231.488 48.2717 178.574 95.3798 159.887C142.438 141.199 196.564 163.066 214.605 207.879L214.591 207.885L214.771 208.338C233.404 255.42 209.783 308.959 161.783 328.412C114.934 347.394 59.0802 323.573 41.2776 277.011Z" stroke="#F2F2F2" stroke-opacity="0.5"/>
</g>
<g opacity="0.407627">
<path d="M293.346 122.102C306.035 88.7535 335.405 66.1811 371.279 64.0783C405.048 62.1076 437.886 82.7637 451.56 114.51L451.514 114.514L451.784 115.157C467.437 152.374 451.094 195.178 411.542 220.021C375.932 242.392 343.312 267.735 321.241 304.346C294.864 348.123 291.652 394.766 298.25 442.921C298.92 447.831 299.838 452.696 300.77 457.543C301.703 462.395 302.65 467.227 303.385 472.091C304.811 481.512 305.438 491.021 303.622 500.91L303.439 501.869C295.928 539.425 269.204 567.12 233.314 572.694L232.466 572.822C195.151 578.234 158.133 558.393 143.16 524.981C128.562 492.408 137.664 453.663 167.289 429.251C176.021 422.058 185.243 415.437 194.543 408.882C203.84 402.33 213.219 395.84 222.242 388.921C256.035 362.997 277.285 332.889 288.492 299.43C299.698 265.977 300.852 229.203 294.505 189.954C290.853 167.388 284.51 145.309 293.346 122.102Z" stroke="#F2F2F2" stroke-opacity="0.5"/>
<path d="M95.6714 156.358L96.776 155.935C143.991 138.131 197.543 160.861 214.74 205.828L214.728 205.833L214.899 206.289C232.646 253.528 208.179 306.465 160.012 325.014C112.999 343.114 57.7588 318.406 40.8294 271.7C24.4121 226.393 49.1184 174.552 95.6714 156.358Z" stroke="#F2F2F2" stroke-opacity="0.5"/>
</g>
<g opacity="0.418644">
<path d="M294.674 121.759C307.898 88.7502 337.556 66.7702 373.338 65.2988C407.019 63.9224 439.381 85.0741 452.454 116.944L452.408 116.947L452.667 117.594C467.616 154.951 450.587 197.316 410.745 221.382C375.433 242.717 342.957 266.97 320.366 302.154L319.298 303.838C292.253 347.002 288.24 393.423 293.978 441.522C294.56 446.426 295.39 451.29 296.234 456.136C297.079 460.987 297.939 465.818 298.588 470.678C299.885 480.393 300.332 490.187 298.123 500.349C289.922 537.934 262.448 565.2 226.169 569.815C188.894 574.558 152.354 554.145 138.016 520.593L138.016 520.592C124.145 488.137 133.629 450.033 163.025 426.184L163.723 425.624C172.549 418.608 181.853 412.172 191.235 405.802C200.612 399.435 210.071 393.131 219.182 386.393C253.306 361.148 275.005 331.518 286.755 298.372C298.502 265.232 300.291 228.609 294.649 189.39C291.403 166.84 285.467 144.73 294.675 121.76L294.674 121.759Z" stroke="#F2F2F2" stroke-opacity="0.5"/>
<path d="M97.1065 152.455L98.2137 152.053C145.569 135.135 198.534 158.714 214.889 203.817L214.875 203.823L215.039 204.283C231.902 251.661 206.601 303.982 158.283 321.627C111.124 338.846 56.5103 313.265 40.4538 266.432C24.8833 221.001 50.403 169.775 97.1065 152.455Z" stroke="#F2F2F2" stroke-opacity="0.5"/>
</g>
<g opacity="0.429661">
<path d="M295.981 121.474C309.731 88.8136 339.663 67.4274 375.343 66.5836C408.926 65.7979 440.804 87.4362 453.276 119.418L453.23 119.42L453.478 120.072C467.724 157.554 450.019 199.472 409.9 222.759C373.779 243.73 340.522 267.754 317.345 303.329C290.079 345.204 284.996 390.614 289.499 437.834L289.722 440.084C290.216 444.981 290.958 449.841 291.715 454.685C292.472 459.533 293.246 464.362 293.808 469.216C294.931 478.919 295.206 488.686 292.828 498.773C284.002 536.08 256.153 562.77 219.924 566.738C182.7 570.816 146.646 549.84 132.943 516.158C119.582 483.322 129.959 445.18 160.209 421.977C169.126 415.14 178.509 408.889 187.968 402.705C196.831 396.91 205.765 391.172 214.424 385.075L216.153 383.852C250.595 359.29 272.732 330.143 285.016 297.319C297.297 264.501 299.718 228.04 294.778 188.862C291.936 166.336 286.406 144.202 295.981 121.474Z" stroke="#F2F2F2" stroke-opacity="0.5"/>
<path d="M40.1498 261.208C25.3092 215.311 52.1607 164.274 99.6911 148.243C147.17 132.209 199.535 156.625 215.047 201.85L215.034 201.855L215.189 202.318C231.167 249.82 205.048 301.514 156.596 318.255C109.306 334.591 55.3343 308.152 40.1498 261.208Z" stroke="#F2F2F2" stroke-opacity="0.5"/>
</g>
<g opacity="0.440678">
<path d="M297.261 121.246C311.419 89.1942 341.256 68.4791 376.461 67.9425L377.293 67.9337C410.769 67.735 442.154 89.8481 454.026 121.93L453.98 121.931L454.216 122.587C467.759 160.182 449.39 201.642 409.01 224.148C373.221 244.099 340.145 267.046 316.502 301.186L315.383 302.821C287.043 344.727 281.452 390.665 285.48 438.606C285.888 443.494 286.542 448.35 287.212 453.19C287.883 458.034 288.569 462.86 289.045 467.705C289.995 477.394 290.099 487.13 287.555 497.139C278.112 534.159 249.898 560.268 213.731 563.591C176.57 567.007 141.01 545.48 127.943 511.681C115.201 478.73 126.204 440.907 156.749 418.313C165.752 411.656 175.211 405.59 184.743 399.592C193.676 393.972 202.678 388.411 211.412 382.487L213.155 381.297C247.901 357.422 270.467 328.764 283.278 296.271C296.087 263.784 299.132 227.494 294.891 188.371C292.451 165.876 287.326 143.725 297.261 121.246Z" stroke="#F2F2F2" stroke-opacity="0.5"/>
<path d="M39.9159 256.029C25.927 210.039 53.5694 159.652 101.208 144.506C148.795 129.356 200.546 154.594 215.217 199.925L215.203 199.93L215.35 200.395C230.445 248.004 203.52 299.057 154.951 314.896C107.547 330.351 54.2293 303.068 39.9159 256.029Z" stroke="#F2F2F2" stroke-opacity="0.5"/>
</g>
<g opacity="0.451695">
<path d="M298.517 121.074C313.296 89.1347 343.746 68.9465 379.187 69.3458C412.544 69.7301 443.431 92.3087 454.703 124.48L454.658 124.48L454.882 125.14C467.722 162.835 448.697 203.825 408.072 225.547C371.493 245.111 337.65 267.803 313.413 302.31C284.898 342.929 278.28 387.824 281.113 434.849L281.255 437.09C281.576 441.967 282.144 446.818 282.727 451.652C283.311 456.49 283.911 461.309 284.301 466.146C285.079 475.816 285.014 485.519 282.305 495.448C272.252 532.17 243.686 557.694 207.592 560.376C170.505 563.134 135.448 541.065 123.016 507.161C110.988 474.366 122.334 437.198 152.623 415.15L153.342 414.632C162.428 408.155 171.957 402.276 181.56 396.465C191.158 390.658 200.834 384.917 210.189 378.729C245.226 355.544 268.209 327.381 281.539 295.227C294.867 263.079 298.534 226.973 294.988 187.916C292.948 165.459 288.226 143.299 298.517 121.074Z" stroke="#F2F2F2" stroke-opacity="0.5"/>
<path d="M39.7503 250.896C26.6118 204.829 55.0315 155.105 102.761 140.842L102.762 140.842C150.44 126.574 201.564 152.621 215.394 198.042L215.381 198.047L215.52 198.514C229.731 246.213 202.017 296.615 153.348 311.552C105.846 326.127 53.1939 298.015 39.7503 250.896Z" stroke="#F2F2F2" stroke-opacity="0.5"/>
</g>
<g opacity="0.462712">
<path d="M299.746 120.958C315.027 89.3917 345.717 69.8072 381.023 70.8212C414.252 71.7841 444.634 94.8165 455.306 127.066L455.261 127.066L455.474 127.73C467.612 165.511 447.944 206.021 407.088 226.959C370.3 245.815 336.185 267.838 311.434 301.8L311.433 301.8C281.852 342.412 274.71 387.813 277.047 435.535C277.282 440.401 277.763 445.244 278.26 450.07C278.758 454.901 279.273 459.714 279.577 464.539C280.184 474.188 279.95 483.855 277.077 493.701C266.422 530.115 237.516 555.049 201.506 557.094C164.506 559.197 129.96 536.599 118.163 502.602C106.659 469.458 118.89 432.3 149.988 410.935C159.154 404.639 168.752 398.947 178.42 393.325C188.085 387.706 197.826 382.153 207.255 376.15C242.569 353.658 265.959 325.996 279.8 294.19C293.64 262.389 297.921 226.476 295.068 187.498C293.425 165.086 289.106 142.924 299.746 120.958Z" stroke="#F2F2F2" stroke-opacity="0.5"/>
<path d="M39.6539 245.811C27.3643 199.682 56.5463 150.633 104.351 137.252C152.105 123.865 202.59 150.705 215.581 196.202L215.567 196.206L215.698 196.676C229.029 244.45 200.537 294.186 151.784 308.222C104.201 321.918 52.2293 292.993 39.6539 245.811Z" stroke="#F2F2F2" stroke-opacity="0.5"/>
</g>
<g opacity="0.473729">
<path d="M300.948 120.898C316.476 90.1996 346.68 71.3281 381.157 72.2953L382.802 72.356C415.893 73.8933 445.762 97.3696 455.835 129.686L455.791 129.685L455.992 130.352C467.429 168.207 447.127 208.228 406.055 228.379C369.65 246.244 335.772 267.212 310.635 299.73L309.445 301.287C279.264 341.238 271.358 386.351 272.856 433.942C273.006 438.794 273.402 443.628 273.814 448.446C274.226 453.268 274.653 458.073 274.872 462.886C275.296 472.21 274.933 481.536 272.152 490.983L271.876 491.898C260.626 527.995 231.391 552.336 195.476 553.747C158.573 555.198 124.546 532.082 113.383 498.002C102.497 464.779 115.33 427.97 146.687 407.223C155.93 401.11 165.591 395.605 175.323 390.171C185.051 384.74 194.853 379.377 204.352 373.559C239.93 351.762 263.717 324.606 278.062 293.156C292.405 261.71 297.294 226.001 295.129 187.114C293.882 164.754 289.965 142.599 300.948 120.898Z" stroke="#F2F2F2" stroke-opacity="0.5"/>
<path d="M39.6247 240.775C28.1821 194.6 58.1108 146.236 105.975 133.735C153.787 121.228 203.621 148.848 215.774 194.403L215.761 194.407L215.883 194.88C228.335 242.712 199.082 291.773 150.262 304.91C102.614 317.728 51.3337 288.004 39.6247 240.775Z" stroke="#F2F2F2" stroke-opacity="0.5"/>
</g>
<g opacity="0.484746">
<path d="M302.121 120.892C318.381 90.0942 349.518 71.7202 384.522 73.9501C417.464 76.0573 446.816 99.967 456.291 132.34L456.246 132.338L456.436 133.009C467.173 170.924 446.25 210.446 404.977 229.809C367.812 247.249 333.19 267.924 307.448 300.773C277.162 339.44 268.295 383.469 268.66 430.09L268.684 432.312C268.749 437.149 269.06 441.972 269.386 446.78C269.713 451.591 270.055 456.386 270.19 461.185C270.458 470.782 269.891 480.368 266.699 490.04C254.862 525.809 225.311 549.553 189.503 550.334C152.71 551.138 119.208 527.514 108.678 493.365C98.4105 460.074 111.837 423.622 143.44 403.497C152.756 397.566 162.478 392.249 172.269 387.004C181.444 382.09 190.683 377.237 199.684 372.009L201.481 370.958C237.31 349.859 261.483 323.215 276.323 292.128C291.16 261.045 296.654 225.55 295.173 186.766C294.32 164.465 290.801 142.323 302.121 120.892Z" stroke="#F2F2F2" stroke-opacity="0.5"/>
<path d="M106.511 130.571L107.631 130.293C155.486 118.662 204.658 147.048 215.975 192.648L215.961 192.652L216.076 193.126C227.65 241 197.65 289.374 148.78 301.614C101.083 313.557 50.5068 283.049 39.6616 235.789C29.1464 189.944 59.2469 142.66 106.511 130.571Z" stroke="#F2F2F2" stroke-opacity="0.5"/>
</g>
<g opacity="0.495763">
<path d="M303.267 120.94C319.741 91.0123 350.369 73.3308 384.551 75.4855L386.182 75.6033C418.966 78.2756 447.794 102.607 456.672 135.025L456.628 135.022L456.806 135.696C466.843 173.66 445.31 212.673 403.852 231.248L403.851 231.248C366.518 247.978 331.661 267.976 305.442 300.257C274.103 338.861 264.695 383.361 264.532 430.645C264.512 435.465 264.737 440.276 264.979 445.072C265.22 449.871 265.479 454.655 265.529 459.439C265.63 469.006 264.898 478.547 261.55 488.127C249.134 523.561 219.278 546.703 183.587 546.859C146.914 547.021 113.947 522.9 104.049 488.693C94.3979 455.345 108.409 419.26 140.247 399.757C149.632 394.011 159.41 388.882 169.257 383.826C179.099 378.773 189.013 373.791 198.642 368.347C234.707 347.947 259.257 321.82 274.584 291.103C289.908 260.392 295.998 225.122 295.197 186.453C294.735 164.218 291.615 142.095 303.267 120.94Z" stroke="#F2F2F2" stroke-opacity="0.5"/>
<path d="M108.199 127.183L109.319 126.925C157.2 116.169 205.698 145.305 216.182 190.935L216.168 190.938L216.274 191.414C226.973 239.314 196.242 286.989 147.338 298.334C99.6071 309.404 49.7468 278.129 39.7632 230.853C30.0837 184.993 60.8967 138.405 108.199 127.183Z" stroke="#F2F2F2" stroke-opacity="0.5"/>
</g>
<g opacity="0.50678">
<path d="M304.381 121.04C321.584 91.0407 353.121 73.8861 387.781 77.3122C420.397 80.5448 448.696 105.287 456.978 137.739L456.933 137.736L457.1 138.414C466.367 176.115 444.652 214.306 403.65 232.273L402.678 232.692C365.776 248.462 331.21 267.428 304.685 298.262L303.427 299.739C271.531 337.658 261.383 381.832 260.398 428.94C260.295 433.743 260.435 438.541 260.593 443.324C260.75 448.11 260.924 452.88 260.891 457.648C260.825 467.181 259.93 476.673 256.428 486.16C243.442 521.248 213.292 543.786 177.729 543.321C141.188 542.844 108.762 518.239 99.4955 483.986C90.4596 450.592 105.046 414.883 137.106 396.006C146.556 390.443 156.39 385.504 166.288 380.638C176.182 375.775 186.147 370.983 195.836 365.726C232.124 346.028 257.038 320.423 272.844 290.085C288.646 259.751 295.328 224.715 295.203 186.173C295.129 164.011 292.405 141.915 304.381 121.04Z" stroke="#F2F2F2" stroke-opacity="0.5"/>
<path d="M39.9276 225.968C31.0116 179.748 63.0906 133.506 111.036 123.632C158.928 113.749 206.741 143.62 216.393 189.263L216.379 189.266L216.478 189.744C226.305 237.655 194.857 284.62 145.935 295.074C98.1869 305.273 49.0522 273.245 39.9276 225.968Z" stroke="#F2F2F2" stroke-opacity="0.5"/>
</g>
<g opacity="0.517797">
<path d="M305.465 121.194C323.126 91.6039 354.845 75.0618 389.317 79.0779C421.757 82.8657 449.521 108.007 457.209 140.483L457.165 140.478L457.32 141.158C465.965 179.179 443.244 217.148 401.458 234.144L401.457 234.145C363.828 249.454 328.544 268.092 301.404 299.22C269.472 335.864 258.43 378.914 256.376 425.004L256.285 427.201C256.099 431.984 256.155 436.767 256.229 441.534C256.302 446.306 256.393 451.062 256.277 455.812C256.046 465.309 254.988 474.75 251.334 484.141C237.891 518.603 207.83 540.462 172.761 539.744L171.932 539.723L171.08 539.692C135.037 538.22 103.587 513.266 95.018 479.245C86.5963 445.818 101.75 410.494 134.02 392.244C143.533 386.866 153.415 382.116 163.363 377.44C173.305 372.766 183.316 368.165 193.061 363.096C229.559 344.102 254.828 319.024 271.103 289.071C287.121 259.591 294.413 225.417 295.157 187.725L295.187 185.928C295.499 163.846 293.17 141.784 305.465 121.195L305.465 121.194Z" stroke="#F2F2F2" stroke-opacity="0.5"/>
<path d="M40.1555 221.137C32.0762 174.932 64.8411 129.419 112.782 120.414C160.669 111.401 207.786 141.993 216.609 187.634L216.596 187.637L216.685 188.117C225.642 236.023 193.494 282.267 144.57 291.831C96.8203 301.163 48.4243 268.398 40.1555 221.137Z" stroke="#F2F2F2" stroke-opacity="0.5"/>
</g>
<g opacity="0.528814">
<path d="M306.517 121.4C324.627 92.2259 356.517 76.2956 390.792 80.8964C423.045 85.2342 450.269 110.765 457.364 143.253L457.321 143.248L457.463 143.931C465.353 181.664 442.48 218.809 401.17 235.217L400.191 235.602C362.433 250.2 326.953 268.156 299.372 298.698C266.405 335.223 254.802 378.709 252.192 425.424C251.924 430.187 251.897 434.953 251.887 439.705C251.878 444.46 251.885 449.2 251.687 453.93C251.291 463.388 250.074 472.777 246.27 482.07C232.167 516.438 201.468 537.76 166.194 536.066C129.95 534.326 98.6245 508.786 90.6161 474.474C82.8067 441.024 98.5196 406.093 130.988 388.472C140.559 383.279 150.488 378.718 160.48 374.232C170.467 369.749 180.521 365.34 190.319 360.459C227.014 342.168 252.626 317.621 269.362 288.061C286.096 258.506 293.941 223.968 295.152 185.716C295.847 163.72 293.909 141.699 306.517 121.4Z" stroke="#F2F2F2" stroke-opacity="0.5"/>
<path d="M40.4447 216.36C33.1991 170.185 66.634 125.41 114.554 117.272L114.555 117.272C162.421 109.125 208.83 140.422 216.828 186.048L216.815 186.05L216.897 186.532C224.988 234.416 192.154 279.931 143.244 288.609C95.5088 297.076 47.8611 263.59 40.4447 216.36Z" stroke="#F2F2F2" stroke-opacity="0.5"/>
</g>
<g opacity="0.539831">
<path d="M307.536 121.656C326.087 92.9048 358.135 77.5888 392.203 82.7688C424.26 87.6512 450.938 113.559 457.444 146.049L457.4 146.043L457.531 146.728C464.792 184.755 440.931 221.645 398.877 237.062L398.876 237.063C361.004 250.951 325.343 268.223 297.332 298.174C263.85 333.991 251.534 377.116 248.122 423.614C247.771 428.355 247.661 433.102 247.569 437.836C247.477 442.574 247.402 447.296 247.123 452.006C246.564 461.422 245.187 470.755 241.236 479.947C226.588 513.943 195.632 534.65 160.519 532.349C124.44 529.986 93.6736 503.996 86.2917 469.672C79.0931 436.21 95.3545 401.683 128.009 384.692C137.635 379.685 147.607 375.312 157.64 371.017C167.668 366.724 177.762 362.506 187.608 357.813C224.486 340.228 250.431 316.217 267.62 287.057C284.537 258.357 292.958 224.697 295.003 187.319L295.095 185.536C296.153 163.975 294.669 142.347 306.941 122.595L307.536 121.656Z" stroke="#F2F2F2" stroke-opacity="0.5"/>
<path d="M40.7943 211.638C34.3782 165.508 68.4675 121.479 116.351 114.205L116.352 114.205C164.183 106.921 209.876 138.909 217.051 184.504L217.038 184.506L217.11 184.988C224.339 232.835 190.835 277.611 141.955 285.406C94.2498 293.011 47.362 258.821 40.7943 211.638Z" stroke="#F2F2F2" stroke-opacity="0.5"/>
</g>
<g opacity="0.550847">
<path d="M308.523 121.962C327.504 93.6406 359.699 78.9386 393.551 84.6917C425.402 90.1133 451.53 116.388 457.447 148.869L457.404 148.862L457.522 149.549C464.095 187.561 439.682 223.899 397.515 238.528C359.542 251.706 323.712 268.295 295.283 297.648L295.282 297.648C261.833 332.202 248.693 374.168 244.276 419.603L244.073 421.769C243.641 426.486 243.449 431.214 243.275 435.929C243.101 440.647 242.944 445.351 242.584 450.038C241.886 459.117 240.425 468.104 236.609 476.92L236.233 477.773C221.048 511.388 189.848 531.481 154.905 528.577C119.001 525.595 88.8019 499.166 82.0444 464.842C75.4545 431.379 92.2558 397.264 125.084 380.903C134.762 376.082 144.772 371.901 154.842 367.796C164.908 363.693 175.038 359.664 184.929 355.16C221.977 338.281 248.244 314.81 265.877 286.057C283.506 257.308 292.488 223.306 295.016 185.389C296.467 163.585 295.308 141.668 308.522 121.962L308.523 121.962Z" stroke="#F2F2F2" stroke-opacity="0.5"/>
<path d="M41.2027 206.971C35.6127 160.901 70.3412 117.629 118.174 111.215C165.952 104.789 210.918 137.453 217.275 183.001L217.262 183.003L217.326 183.487C223.646 230.908 190.069 274.62 141.847 282.056L140.705 282.225C93.0443 288.972 46.9253 254.093 41.2027 206.971Z" stroke="#F2F2F2" stroke-opacity="0.5"/>
</g>
<g opacity="0.561864">
<path d="M309.474 122.317C328.877 94.4319 361.208 80.3444 394.833 86.6647C426.471 92.6199 452.043 119.25 457.374 151.712L457.331 151.704L457.438 152.393C463.325 190.377 438.371 226.155 396.108 239.996C358.046 252.465 322.059 268.369 293.226 297.118C258.76 331.5 245.045 373.867 240.047 419.889C239.535 424.581 239.261 429.29 239.006 433.984C238.75 438.682 238.512 443.364 238.071 448.028C237.19 457.352 235.502 466.565 231.262 475.549C215.549 508.774 184.115 528.249 149.354 524.748C113.636 521.153 84.01 494.299 77.8745 459.985C71.8911 426.533 89.2229 392.837 122.213 377.108C131.938 372.474 141.984 368.481 152.089 364.567C162.188 360.654 172.351 356.817 182.284 352.502C219.488 336.33 246.066 313.403 264.134 285.062C282.198 256.726 291.738 223.007 294.915 185.273C296.741 163.576 295.967 141.72 309.474 122.317Z" stroke="#F2F2F2" stroke-opacity="0.5"/>
<path d="M41.6678 202.361C36.8999 156.366 72.2518 113.86 120.017 108.301C167.729 102.73 211.959 136.053 217.501 181.541L217.487 181.543L217.543 182.028C223.057 229.755 188.262 273.023 139.491 279.065C91.8911 284.958 46.5495 249.407 41.6678 202.361Z" stroke="#F2F2F2" stroke-opacity="0.5"/>
</g>
<g opacity="0.572881">
<path d="M310.39 122.722C330.206 95.2786 362.66 81.8063 396.049 88.6874C427.464 95.1702 452.477 122.143 457.225 154.575L457.182 154.566L457.276 155.258C462.481 193.202 436.999 228.411 394.653 241.465C356.516 253.226 320.387 268.446 291.16 296.587C256.225 330.242 241.823 372.213 236.044 417.977C235.452 422.642 235.097 427.328 234.761 432C234.425 436.676 234.107 441.337 233.587 445.976C232.579 454.96 230.819 463.827 226.728 472.443L226.324 473.275C210.093 506.103 178.438 524.958 143.868 520.867C108.623 516.697 79.7513 489.819 73.915 455.905L73.782 455.102C68.4028 421.672 86.255 388.404 119.395 373.308C129.165 368.86 139.243 365.056 149.378 361.332C159.508 357.61 169.699 353.964 179.67 349.837C217.017 334.372 243.895 311.992 262.388 284.071C280.878 256.154 290.969 222.726 294.791 185.188C296.987 163.603 296.596 141.817 310.39 122.722Z" stroke="#F2F2F2" stroke-opacity="0.5"/>
<path d="M120.767 105.581L121.882 105.464C169.511 100.744 212.995 134.709 217.726 180.122L217.713 180.124L217.76 180.61C222.425 228.254 187.006 270.755 138.313 275.925C90.7885 280.969 46.2356 244.763 42.1903 197.809C38.2711 152.262 73.6393 110.823 120.767 105.581Z" stroke="#F2F2F2" stroke-opacity="0.5"/>
</g>
<g opacity="0.583898">
<path d="M311.271 123.174C331.489 96.1779 364.056 83.3204 397.2 90.7564C428.382 97.7608 452.832 125.066 456.999 157.457L456.957 157.449L457.04 158.141C461.565 196.032 435.566 230.667 393.152 242.936C354.953 253.989 318.693 268.524 289.086 296.052C253.696 328.974 238.618 370.538 232.065 416.031C231.394 420.669 230.959 425.331 230.543 429.979C230.126 434.632 229.729 439.271 229.13 443.883C227.933 453.104 225.938 462.186 221.42 470.953C204.679 503.376 172.815 521.609 138.446 516.931C103.13 512.127 74.6651 484.454 69.7665 450.196C64.9889 416.797 83.3533 383.964 116.631 369.501C126.442 365.24 136.548 361.627 146.71 358.093C156.867 354.56 167.084 351.106 177.09 347.168C214.566 332.41 241.733 310.581 260.643 283.085C279.55 255.594 290.184 222.466 294.645 185.135C297.208 163.668 297.196 141.957 311.271 123.174Z" stroke="#F2F2F2" stroke-opacity="0.5"/>
<path d="M42.7682 193.315C39.631 147.514 76.1796 106.563 123.766 102.703C171.297 98.8288 214.028 133.422 217.952 178.746L217.938 178.748L217.977 179.234C221.795 226.78 185.772 268.506 137.171 272.81C89.7378 277.008 45.9821 240.164 42.7682 193.315Z" stroke="#F2F2F2" stroke-opacity="0.5"/>
</g>
<g opacity="0.594915">
<path d="M312.114 123.672C332.404 97.5445 364.376 85.2739 396.742 92.513L398.283 92.8722C429.226 100.392 453.108 128.018 456.697 160.358L456.655 160.349L456.725 161.043C460.575 198.87 434.071 232.922 391.604 244.407C353.356 254.755 316.98 268.603 287.004 295.514L287.005 295.515C251.174 327.698 235.43 368.844 228.11 414.052C227.361 418.661 226.846 423.298 226.351 427.922C225.855 432.55 225.378 437.164 224.701 441.748C223.348 450.914 221.203 459.927 216.55 468.582C199.308 500.591 167.248 518.203 133.09 512.945C97.9915 507.545 70.1145 479.482 65.83 445.268C61.6511 411.912 80.5171 379.522 113.921 365.692C123.769 361.617 133.9 358.193 144.085 354.849C154.265 351.507 164.504 348.242 174.541 344.493C212.134 330.443 239.578 309.168 258.896 282.104C278.21 255.045 289.38 222.225 294.473 185.112C297.4 163.77 297.767 142.14 312.114 123.672Z" stroke="#F2F2F2" stroke-opacity="0.5"/>
<path d="M43.4 188.881C41.0711 143.197 78.1937 103.037 125.667 100.019C173.087 96.9858 215.053 132.191 218.176 177.411L218.162 177.412L218.193 177.899C221.17 225.332 184.556 266.274 136.064 269.717C88.7364 273.074 45.7869 235.608 43.4 188.881Z" stroke="#F2F2F2" stroke-opacity="0.5"/>
</g>
<g opacity="0.605932">
<path d="M312.92 124.217C333.916 98.1335 366.673 86.5056 399.299 95.0317C429.993 103.061 453.304 130.996 456.318 163.275L456.276 163.265L456.334 163.961C459.511 201.712 432.516 235.173 390.01 245.876C352.324 255.369 316.386 268.275 286.341 293.751L284.915 294.973C249.226 325.921 232.775 365.861 224.564 409.94L224.179 412.042C223.353 416.621 222.761 421.231 222.187 425.829C221.613 430.431 221.056 435.02 220.302 439.575C218.795 448.682 216.501 457.624 211.716 466.165C193.982 497.754 161.737 514.74 127.799 508.908C92.9276 502.918 65.6447 474.477 61.9715 440.318C58.3885 407.016 77.7456 375.077 111.264 361.881C121.145 357.992 131.298 354.757 141.503 351.603C151.703 348.45 161.96 345.376 172.024 341.816L172.025 341.816C209.721 328.472 237.431 307.753 257.147 281.127C276.859 254.505 288.559 222.003 294.278 185.117C297.565 163.906 298.306 142.365 312.92 124.217Z" stroke="#F2F2F2" stroke-opacity="0.5"/>
<path d="M44.0844 184.506C42.5587 138.955 80.2388 99.5925 127.585 97.4114L127.586 97.4113C174.878 95.2145 216.072 131.015 218.397 176.117L218.385 176.118L218.407 176.605C220.548 223.91 183.361 264.061 134.992 266.648C88.154 269.15 46.3081 231.69 44.1283 185.596L44.0844 184.506Z" stroke="#F2F2F2" stroke-opacity="0.5"/>
</g>
<g opacity="0.616949">
<path d="M313.688 124.808C335.058 99.1886 367.893 88.1743 400.247 97.2353C430.683 105.768 453.419 134.001 455.862 166.208L455.82 166.198L455.866 166.894C458.375 204.556 430.901 237.421 388.369 247.345C350.062 256.287 313.49 268.767 282.816 294.429C246.15 325.119 229.104 365.4 220.274 410.001C219.371 414.548 218.702 419.131 218.05 423.702C217.397 428.276 216.764 432.837 215.934 437.362C214.274 446.409 211.833 455.277 206.917 463.702C188.702 494.862 156.283 511.224 122.576 504.824C87.9408 498.25 61.2565 469.442 58.1913 435.349C55.2011 402.111 75.04 370.63 108.66 358.067C118.572 354.365 128.743 351.319 138.964 348.354C149.18 345.39 159.452 342.506 169.54 339.134C207.326 326.496 235.294 306.338 255.398 280.155C275.499 253.976 287.719 221.8 294.058 185.153C297.701 164.079 298.814 142.633 313.688 124.808Z" stroke="#F2F2F2" stroke-opacity="0.5"/>
<path d="M44.8192 180.192C44.0915 134.788 82.3136 96.2304 129.518 94.8808L129.519 94.8807C176.669 93.5146 217.084 129.894 218.617 174.864L218.604 174.865L218.618 175.353C219.928 222.516 182.184 261.868 133.954 263.603C86.8829 265.295 45.5683 226.635 44.8192 180.192Z" stroke="#F2F2F2" stroke-opacity="0.5"/>
</g>
<g opacity="0.627966">
<path d="M314.418 125.442C336.152 100.292 369.052 89.8908 401.125 99.4796C431.296 108.508 453.455 137.028 455.329 169.155L455.287 169.144L455.321 169.84C457.165 207.402 429.225 239.664 386.683 248.811C348.365 257.053 311.715 268.85 280.711 293.881C244.229 323.351 226.524 362.407 216.85 405.856L216.395 407.929C215.417 412.443 214.67 416.997 213.941 421.538C213.211 426.085 212.5 430.618 211.595 435.111C209.841 443.814 207.359 452.337 202.62 460.414L202.155 461.194C183.467 491.918 150.888 507.653 117.421 500.692C83.0322 493.54 56.9504 464.379 54.4896 430.363C52.0886 397.2 72.3993 366.184 106.11 354.253C116.048 350.737 126.233 347.879 136.467 345.103C146.696 342.328 156.979 339.635 167.087 336.451C204.95 324.517 233.163 304.921 253.646 279.186C274.126 253.456 286.86 221.615 293.812 185.216C297.808 164.285 299.291 142.94 314.418 125.442Z" stroke="#F2F2F2" stroke-opacity="0.5"/>
<path d="M45.6049 175.94C45.6696 130.696 84.4169 92.9503 131.465 92.4269C178.458 91.8858 218.086 128.828 218.833 173.653L218.82 173.653L218.825 174.142C219.31 221.148 181.026 259.693 132.949 260.583C86.0279 261.449 45.5436 222.218 45.6049 175.94Z" stroke="#F2F2F2" stroke-opacity="0.5"/>
</g>
<g opacity="0.638983">
<path d="M315.108 126.12C337.195 101.444 370.151 91.6544 401.934 101.764C431.832 111.283 453.41 140.078 454.719 172.113L454.678 172.101L454.7 172.799C455.883 210.248 427.489 241.901 384.95 250.273C346.635 257.817 309.918 268.932 278.597 293.33C241.741 322.053 223.425 360.654 213.032 403.769L212.543 405.826C211.49 410.306 210.666 414.829 209.861 419.342C209.055 423.858 208.268 428.361 207.288 432.821C205.389 441.46 202.769 449.907 197.907 457.871L197.43 458.641C178.28 488.923 145.551 504.031 112.333 496.514C78.2005 488.793 52.7251 459.289 50.8653 425.36C49.0502 392.282 69.8227 361.738 103.612 350.439C113.573 347.11 123.77 344.44 134.013 341.853C144.252 339.266 154.542 336.761 164.668 333.765C202.594 322.535 231.04 303.504 251.893 278.223C272.743 252.947 285.983 221.447 293.542 185.308L293.542 185.307C297.819 164.85 299.676 143.952 314.397 126.928L315.108 126.12Z" stroke="#F2F2F2" stroke-opacity="0.5"/>
<path d="M46.4395 171.751C47.2905 126.682 86.5456 89.7533 133.423 90.05C180.246 90.328 219.08 127.818 219.045 172.483L219.031 172.484L219.028 172.971C218.694 219.806 179.886 257.538 131.978 257.589C85.2212 257.636 45.574 217.851 46.4395 171.751Z" stroke="#F2F2F2" stroke-opacity="0.5"/>
</g>
<g opacity="0.65">
<path d="M315.757 126.841C337.838 103.021 370.16 93.7554 401.198 103.605L402.674 104.089C432.291 114.091 453.284 143.148 454.032 175.082L453.992 175.069L454.002 175.767C454.53 213.093 425.695 244.131 383.173 251.731C344.873 258.58 308.102 269.015 276.476 292.774V292.775C238.67 321.192 219.747 360.097 208.717 403.694C207.59 408.139 206.69 412.631 205.81 417.111C204.929 421.596 204.067 426.069 203.013 430.495C200.971 439.068 198.214 447.437 193.233 455.286L192.743 456.044C173.14 485.877 140.275 500.358 107.316 492.293H107.315C73.4474 484.007 48.5833 454.173 47.3206 420.342C46.0877 387.36 67.3115 357.295 101.167 346.627C111.149 343.484 121.352 341.001 131.601 338.602C141.845 336.203 152.141 333.886 162.28 331.077C200.257 320.55 228.926 302.086 250.14 277.264C271.35 252.446 285.086 221.297 293.244 185.427C297.934 164.799 300.144 143.676 315.757 126.841Z" stroke="#F2F2F2" stroke-opacity="0.5"/>
<path d="M134.299 87.7303L135.392 87.7499C182.029 88.8409 220.061 126.861 219.251 171.353H219.239L219.227 171.841C218.08 218.49 178.764 255.402 131.038 254.62C84.4604 253.854 45.6576 213.533 47.3215 167.625C48.9401 123.094 88.0805 87.2034 134.299 87.7303Z" stroke="#F2F2F2" stroke-opacity="0.5"/>
</g>
</svg>
