<svg width="103" height="27" viewBox="0 0 103 27" fill="none" xmlns="http://www.w3.org/2000/svg">
<path d="M85.9381 11.5703H82.9141V8.87033H85.9381V7.50233C85.9381 6.37433 86.0941 5.40233 86.4061 4.58633C86.7421 3.74633 87.1741 3.06233 87.7021 2.53433C88.2541 2.00633 88.8781 1.62233 89.5741 1.38233C90.2701 1.11833 91.0021 0.986328 91.7701 0.986328C92.6581 0.986328 93.5221 1.13033 94.3621 1.41833C95.2261 1.68233 96.0181 2.15033 96.7381 2.82233L95.1181 4.91033C94.2301 4.16633 93.2821 3.79433 92.2741 3.79433C91.3381 3.79433 90.5821 4.09433 90.0061 4.69433C89.4541 5.29433 89.1781 6.32633 89.1781 7.79033V8.87033H93.9661V11.5703H89.1781V25.6103H85.9381V11.5703Z" fill="#F2F2F2"/>
<path d="M71.2218 11.5704H68.1978V8.87044H71.2218V3.39844H74.4618V8.87044H79.3578V11.5704H74.4618V19.8144C74.4618 21.1584 74.6658 22.0824 75.0738 22.5864C75.5058 23.0904 76.1058 23.3424 76.8738 23.3424C77.4978 23.3424 78.0138 23.2464 78.4218 23.0544C78.8298 22.8624 79.2378 22.5744 79.6458 22.1904L81.1218 24.1704C80.4258 24.8424 79.7058 25.3224 78.9618 25.6104C78.2418 25.9224 77.3778 26.0784 76.3698 26.0784C74.5938 26.0784 73.2858 25.5984 72.4458 24.6384C71.6298 23.6784 71.2218 22.1784 71.2218 20.1384V11.5704Z" fill="#F2F2F2"/>
<path d="M58.0787 11.5703H55.0547V8.87033H58.0787V7.50233C58.0787 6.37433 58.2347 5.40233 58.5467 4.58633C58.8827 3.74633 59.3147 3.06233 59.8427 2.53433C60.3947 2.00633 61.0187 1.62233 61.7147 1.38233C62.4107 1.11833 63.1427 0.986328 63.9107 0.986328C64.7987 0.986328 65.6627 1.13033 66.5027 1.41833C67.3667 1.68233 68.1587 2.15033 68.8787 2.82233L67.2587 4.91033C66.3707 4.16633 65.4227 3.79433 64.4147 3.79433C63.4787 3.79433 62.7227 4.09433 62.1467 4.69433C61.5947 5.29433 61.3187 6.32633 61.3187 7.79033V8.87033H66.1067V11.5703H61.3187V25.6103H58.0787V11.5703Z" fill="#F2F2F2"/>
<path d="M36.1566 25.6106V10.5986C36.1566 10.3826 36.1566 10.1666 36.1566 9.95061C36.1566 9.71061 36.1446 9.35061 36.1206 8.87061H39.2166L39.3246 11.3906C39.5406 11.1026 39.8046 10.7906 40.1166 10.4546C40.4286 10.0946 40.8126 9.77061 41.2686 9.48261C41.7246 9.19461 42.2526 8.95461 42.8526 8.76261C43.4766 8.57061 44.1726 8.47461 44.9406 8.47461C47.1246 8.47461 48.7446 9.11061 49.8006 10.3826C50.8566 11.6546 51.3846 13.3826 51.3846 15.5666V25.6106H48.1446V15.8186C48.1446 14.2586 47.8086 13.1186 47.1366 12.3986C46.4646 11.6546 45.5166 11.2826 44.2926 11.2826C43.3566 11.2826 42.5766 11.4746 41.9526 11.8586C41.3286 12.2426 40.8246 12.7466 40.4406 13.3706C40.0806 13.9706 39.8166 14.6666 39.6486 15.4586C39.4806 16.2266 39.3966 17.0186 39.3966 17.8346V25.6106H36.1566Z" fill="#F2F2F2"/>
<path d="M99.085 2.24609H102.721V5.88209H99.085V2.24609ZM99.301 8.87009H102.541V25.6101H99.301V8.87009Z" fill="#F2F2F2"/>
<path d="M25.9221 6.03842C25.9547 8.34495 24.1729 10.2583 21.5544 10.7263C19.2079 11.1459 16.9593 11.7845 15.0261 13.2369C12.7158 14.9734 11.5584 17.3512 10.8832 20.0202C10.6077 21.1066 10.5542 22.2414 9.89981 23.2389C8.69166 25.0775 6.66418 25.9721 4.62944 25.4742C2.54033 24.9631 1.0059 23.1228 0.927952 21.0344C0.85182 18.998 2.16239 17.1427 4.25059 16.4847C5.47687 16.0985 6.75662 15.8751 7.99831 15.5311C12.6442 14.2433 15.007 11.0157 16.0058 6.62429C16.2922 5.36458 16.4291 4.05824 17.3934 3.01845C18.7765 1.5265 20.8121 0.959986 22.7544 1.61535C24.5961 2.23729 25.8967 4.05208 25.9248 6.0393L25.9221 6.03842Z" fill="#F2F2F2"/>
<path d="M11.5284 5.79879C11.4577 8.67622 9.03281 10.9519 6.09068 10.9037C3.21831 10.8565 0.825334 8.37054 0.927989 5.53843C1.02865 2.769 3.48043 0.543426 6.35878 0.61189C9.2441 0.67939 11.5972 3.03996 11.5294 5.79879H11.5284Z" fill="#F2F2F2"/>
</svg>
