<svg width="1274" height="851" viewBox="0 0 1274 851" fill="none" xmlns="http://www.w3.org/2000/svg">
<g opacity="0.01">
<path d="M-0.0646982 435.063C-40.8272 374.27 -40.7007 304.488 3.44426 252.304C45.1867 202.99 125.126 184.502 198.554 207.239L198.496 207.311L199.2 207.531C283.934 234.089 335.953 311.277 327.248 397.152L327.032 399.183C318.284 477.125 318.642 554.741 352.407 632.404L352.408 632.404C392.791 725.224 468.847 789.928 560.593 843.137C569.935 848.561 579.529 853.589 589.13 858.582C598.733 863.577 608.341 868.535 617.722 873.827C635.898 884.079 653.2 895.567 667.91 910.935L669.325 912.435C724.704 972.018 736.719 1045.5 697.443 1102.41C657.093 1160.87 573.427 1186.25 495.573 1163.51C419.658 1141.33 364.787 1078.41 362.055 1005.89C361.255 984.549 362.096 963.279 363.153 941.996C364.209 920.719 365.482 899.423 365.541 878.059C365.954 718.041 270.874 605.588 118.742 521.515C75.0573 497.377 28.3258 477.424 -0.0646982 435.063Z" stroke="#F2F2F2" stroke-opacity="0.4"/>
</g>
<g opacity="0.0204082">
<path d="M18.6311 408.579C-18.6965 345.805 -14.8323 276.137 31.9165 226.285C76.1186 179.175 156.698 164.79 228.584 191.231L228.523 191.299L229.214 191.555C312.806 222.631 360.559 303.364 346.22 389.419C333.334 466.794 329.533 544.306 358.99 623.567C393.674 716.819 464.234 784.633 550.842 841.863L554.978 844.58C563.989 850.471 573.273 855.981 582.564 861.455C591.857 866.931 601.157 872.371 610.215 878.132C628.328 889.655 645.443 902.444 659.523 919.308C711.468 981.619 719.495 1055.6 677.341 1110.41C634.034 1166.74 549.374 1187.81 473.08 1161.13L473.079 1161.13C398.685 1135.13 347.425 1069.51 348.59 996.962L348.589 996.963C348.936 975.614 350.914 954.421 353.107 933.225C355.298 912.035 357.706 890.837 358.909 869.51C367.893 709.764 279.252 592.641 132.286 500.948C90.0852 474.622 44.6279 452.32 18.6311 408.579Z" stroke="#F2F2F2" stroke-opacity="0.4"/>
</g>
<g opacity="0.0408163">
<path d="M38.181 382.953C4.64763 318.892 11.8563 250.116 60.0537 202.754L61.1995 201.639C107.743 156.855 188.75 146.591 258.909 176.64L258.845 176.705L259.52 176.997C341.085 212.268 384.301 295.29 365.401 380.473C348.548 456.465 340.593 533.045 364.962 612.988L365.543 614.876C395.541 711.24 463.814 783.278 548.829 845.48C557.485 851.819 566.434 857.791 575.391 863.728C584.351 869.667 593.319 875.57 602.028 881.782C618.901 893.817 634.778 906.993 647.677 923.761L648.915 925.395C697.292 990.24 701.313 1064.5 656.395 1117.09C610.247 1171.11 524.816 1187.85 450.281 1157.34C377.602 1127.59 330.084 1059.48 335.14 987.117C336.632 965.822 339.738 944.765 343.059 923.716C346.379 902.673 349.916 881.633 352.26 860.403L352.259 860.403C369.782 701.383 287.808 579.952 146.392 480.942C105.784 452.516 61.7179 427.941 38.181 382.953Z" stroke="#F2F2F2" stroke-opacity="0.4"/>
</g>
<g opacity="0.0612245">
<path d="M58.5391 358.226C28.3564 292.065 39.6458 223.219 91.2207 178.407C139.981 136.064 221.203 129.927 289.452 163.478L289.384 163.539L290.042 163.866C369.37 203.208 407.939 288.271 384.533 372.342C363.661 447.341 351.618 523.379 371.584 604.412L372.062 606.328C396.749 704.039 460.863 779.408 542.179 845.809C550.458 852.577 559.048 858.991 567.649 865.372C576.253 871.754 584.866 878.103 593.205 884.745C609.881 898.029 625.434 912.471 637.549 930.655C682.235 997.835 682.244 1072.17 634.681 1122.38C585.817 1173.97 499.84 1186.34 427.258 1152.11C357.035 1118.99 313.51 1049.43 321.556 978.042L321.755 976.356C324.387 955.175 328.613 934.313 333.053 913.471C337.215 893.937 341.566 874.415 344.958 854.688L345.623 850.74C371.631 692.897 296.531 567.528 161.028 461.525C122.117 431.09 79.5572 404.326 58.5391 358.226Z" stroke="#F2F2F2" stroke-opacity="0.4"/>
</g>
<g opacity="0.0816327">
<path d="M79.6513 334.44C53.1573 266.88 68.1122 198.739 121.897 156.624C172.745 116.831 253.971 114.817 320.136 151.756L320.064 151.814L320.704 152.173C397.59 195.452 431.419 282.301 403.573 365.025C378.546 439.402 362.394 515.286 378.536 597.922C397.554 695.149 455.791 772.702 531.445 842.241L535.06 845.547C542.941 852.72 551.151 859.557 559.373 866.361C567.598 873.166 575.834 879.938 583.781 886.989C599.178 900.651 613.466 915.343 624.422 933.305L625.472 935.054C666.356 1004.36 662.358 1078.55 612.278 1126.26C560.828 1175.28 474.53 1183.27 404.086 1145.43C335.396 1108.54 295.71 1036.07 308.483 964.686C312.246 943.68 317.581 923.072 323.127 902.495C328.325 883.21 333.71 863.946 338.152 844.429L339.029 840.523C373.442 684.304 305.404 555.378 176.159 442.724C139.335 410.631 98.7389 381.964 80.0878 335.54L79.6513 334.44Z" stroke="#F2F2F2" stroke-opacity="0.4"/>
</g>
<g opacity="0.102041">
<path d="M101.464 311.628C78.7212 242.872 97.2971 175.63 153.149 136.319C205.948 99.1793 286.967 101.274 350.879 141.475L350.805 141.528L351.423 141.921C425.673 188.993 454.682 277.366 422.476 358.511C393.756 430.898 373.658 505.206 384.693 587.704L384.96 589.654C398.654 687.638 452.477 767.972 524.082 841.188L527.505 844.668C534.968 852.224 542.777 859.462 550.6 866.667C558.425 873.874 566.263 881.047 573.799 888.485C588.397 902.896 601.837 918.279 611.781 936.756L612.732 938.554C649.715 1009.78 641.726 1083.62 589.263 1128.69C535.785 1174.65 450.317 1178.56 382.443 1138.27L380.843 1137.31L379.292 1136.36C313.86 1095.86 278.924 1022.15 295.374 952.112C300.257 931.34 306.683 911.045 313.319 890.792C319.538 871.809 325.943 852.859 331.422 833.607L332.506 829.753C375.222 675.601 314.41 543.508 191.749 424.56C156.525 390.407 117.298 359.534 101.464 311.628Z" stroke="#F2F2F2" stroke-opacity="0.4"/>
</g>
<g opacity="0.122449">
<path d="M123.922 289.827C104.982 220.08 127.125 153.924 184.896 117.52C239.507 83.1276 320.107 89.3047 381.606 132.637L381.53 132.687L382.126 133.111C453.552 183.821 477.675 273.457 441.201 352.795C408.417 424.126 384.254 497.848 391.325 581.523C399.669 679.977 448.947 762.845 516.327 839.508L519.549 843.154C526.575 851.07 533.964 858.685 541.369 866.268C548.775 873.853 556.196 881.406 563.301 889.207C577.066 904.321 589.623 920.348 598.531 939.285L599.382 941.126C632.374 1014.06 620.424 1087.32 565.717 1129.65C509.514 1173.14 423.246 1172.39 357.61 1127.73C293.607 1084.19 262.14 1008.24 282.476 938.646C288.464 918.167 295.963 898.243 303.669 878.37C311.373 858.503 319.287 838.682 326.085 818.437C376.979 666.789 323.536 531.925 207.763 407.056C174.518 371.204 137.106 338.423 123.922 289.827Z" stroke="#F2F2F2" stroke-opacity="0.4"/>
</g>
<g opacity="0.142857">
<path d="M146.969 269.064C131.872 198.532 157.517 133.652 217.053 100.247C273.331 68.6899 353.308 78.9135 412.239 125.239L412.161 125.284L412.734 125.738C481.157 179.923 500.343 270.557 459.704 347.865C423.176 417.371 395.109 489.696 397.624 573.525C400.609 672.161 445.227 757.312 508.216 837.185L511.229 840.984C517.802 849.234 524.752 857.204 531.719 865.141C538.689 873.082 545.675 880.99 552.333 889.13C565.23 904.901 576.875 921.521 584.725 940.861L585.473 942.741C614.399 1017.16 598.527 1089.64 541.722 1129.11C483.365 1169.67 397.447 1164.57 334.464 1116.71C273.048 1070.05 245.804 992.703 269.834 924.3C276.909 904.173 285.462 884.675 294.216 865.239C302.968 845.807 311.925 826.432 319.796 806.579C378.716 657.864 332.765 520.634 224.164 390.233C192.978 352.792 157.475 318.206 146.969 269.064Z" stroke="#F2F2F2" stroke-opacity="0.4"/>
</g>
<g opacity="0.163265">
<path d="M170.544 249.369C159.408 178.815 187.939 115.83 248.108 85.2332L249.535 84.5168C307.331 55.8754 386.48 70.1 442.7 119.27L442.619 119.313L443.167 119.795C507.91 176.833 522.406 267.22 478.979 341.946L477.943 343.709C437.774 411.194 405.885 481.918 403.851 565.656C401.445 665.75 442.611 754.127 502.581 838.142C508.684 846.702 515.179 855.001 521.692 863.269C528.208 871.539 534.742 879.779 540.936 888.233C552.935 904.613 563.64 921.776 570.416 941.46L571.059 943.372C595.855 1019.05 576.11 1090.55 517.36 1127.06C457.004 1164.57 371.656 1155.16 311.482 1104.26C252.805 1054.63 229.843 976.105 257.497 909.09L257.496 909.09C265.637 889.371 275.217 870.354 284.995 851.409C294.769 832.469 304.746 813.596 313.665 794.191C380.44 648.829 342.079 509.641 240.912 374.109C211.859 335.194 178.353 298.911 170.544 249.369Z" stroke="#F2F2F2" stroke-opacity="0.4"/>
</g>
<g opacity="0.183673">
<path d="M194.591 230.763C187.257 159.287 219.67 97.5047 282.26 70.3437C341.42 44.6907 419.539 62.8592 472.911 114.72L472.829 114.758L473.349 115.268C535.273 175.879 544.49 267.703 495.877 340.31C452.182 405.587 416.564 474.509 409.999 557.913C402.177 657.609 438.42 747.814 493.642 834.614C499.262 843.458 505.287 852.06 511.331 860.633C517.377 869.209 523.443 877.754 529.158 886.497C540.231 903.435 549.97 921.089 555.658 941.059L556.196 942.999C576.81 1019.72 553.255 1090.02 492.716 1123.47C430.522 1157.84 345.962 1144.16 288.743 1090.37C232.947 1037.93 214.314 958.472 245.51 893.033C254.694 873.778 265.273 855.296 276.045 836.895C286.815 818.5 297.782 800.181 307.723 781.279C382.159 639.681 351.465 498.948 257.97 358.698C231.12 318.429 199.69 280.56 194.591 230.763Z" stroke="#F2F2F2" stroke-opacity="0.4"/>
</g>
<g opacity="0.204082">
<path d="M219.048 213.269C215.637 142.195 250.717 82.6032 313.651 58.3017L315.142 57.7338C375.51 35.1336 452.403 57.1803 502.799 111.573L502.715 111.606L503.207 112.142C561.198 175.192 565.798 266.269 514.686 336.009L513.468 337.652C466.37 400.537 427.127 467.464 416.062 550.291C403.067 647.753 433.139 738.194 482.107 826.198L484.453 830.387C489.576 839.488 495.115 848.368 500.676 857.22C506.239 866.075 511.824 874.899 517.048 883.904C527.495 901.911 536.484 920.608 540.939 941.599C557.332 1019.13 530.041 1088.04 467.874 1118.35C404.507 1149.24 321.755 1131.87 267.598 1076.4L266.324 1075.08C213.956 1020.41 199.498 941.076 233.116 877.644L233.92 876.149C244.119 857.413 255.667 839.517 267.403 821.713C279.137 803.913 291.062 786.201 301.997 767.855C383.877 630.421 360.905 488.558 275.298 344.016C250.713 302.514 221.432 263.176 219.047 213.27L219.048 213.269Z" stroke="#F2F2F2" stroke-opacity="0.4"/>
</g>
<g opacity="0.22449">
<path d="M243.853 196.904C244.305 125.321 283.113 67.3331 348.094 46.6913C409.511 27.2007 484.985 53.0477 532.286 109.805L532.199 109.834L532.662 110.394C587.495 176.683 586.711 268.622 530.675 335.714C480.701 395.56 438.221 459.762 422.401 540.866L422.032 542.785C403.795 639.288 428.879 730.961 472.937 821.156L475.049 825.449C479.664 834.779 484.706 843.911 489.772 853.015C494.839 862.122 499.928 871.2 504.649 880.439C513.795 898.339 521.541 916.814 525.021 937.179L525.344 939.156C537.489 1017.26 506.544 1084.59 442.915 1111.67C377.547 1139.5 295.204 1117.45 244.298 1058.4C194.658 1000.82 184.771 920.192 222.767 858.458L222.766 858.458C233.95 840.294 246.434 823.036 259.101 805.879C271.765 788.726 284.616 771.669 296.513 753.931C385.6 621.049 370.383 478.472 292.855 330.071C270.59 287.461 243.526 246.773 243.853 196.904Z" stroke="#F2F2F2" stroke-opacity="0.4"/>
</g>
<g opacity="0.244898">
<path d="M268.943 181.681C273.271 110.358 315.112 54.5141 381.034 37.2133C443.337 20.8808 517.202 50.4445 561.299 109.394L561.211 109.419L561.644 110.002C612.735 178.832 606.977 270.428 547.461 334.477C494.384 391.608 448.544 453.457 428.376 533.496L427.904 535.39C404.12 632.169 425.191 726.23 465.47 819.793C469.568 829.325 474.102 838.68 478.661 848.009C483.221 857.342 487.805 866.646 492.013 876.093C500.427 894.984 507.321 914.411 509.471 935.656C517.353 1014.12 482.848 1079.67 417.926 1103.45C351.23 1127.9 270.308 1101.77 222.74 1040.35C176.356 980.462 170.861 899.606 212.095 839.989C224.232 822.449 237.616 805.876 251.177 789.413C264.735 772.954 278.474 756.601 291.299 739.52C387.336 611.565 379.88 468.692 310.6 316.875C290.859 273.624 266.305 232.023 268.878 182.844L268.943 181.681Z" stroke="#F2F2F2" stroke-opacity="0.4"/>
</g>
<g opacity="0.265306">
<path d="M294.257 167.611C302.431 96.7549 347.185 43.2147 413.873 29.2973C476.899 16.1626 548.972 49.3471 589.765 110.313L589.677 110.333L590.078 110.937C637.312 182.102 626.615 273.089 563.787 333.915C507.316 388.599 457.919 448.429 433.673 528.102L433.672 528.103C404.714 623.346 420.642 718.144 455.756 813.413C459.328 823.118 463.344 832.67 467.386 842.196C471.43 851.726 475.499 861.23 479.185 870.855C486.325 889.503 492.015 908.581 493.269 929.102L493.376 931.092C496.993 1009.68 459.031 1073.26 392.989 1093.69C325.143 1114.69 245.844 1084.57 201.723 1020.97C158.699 958.949 157.591 878.097 201.944 820.766C214.999 803.898 229.246 788.058 243.663 772.336C258.075 756.618 272.662 741.014 286.378 724.64C389.088 601.972 389.382 459.219 328.493 304.436C311.143 260.339 288.902 217.646 294.128 168.768L294.257 167.611Z" stroke="#F2F2F2" stroke-opacity="0.4"/>
</g>
<g opacity="0.285714">
<path d="M319.731 154.701C331.713 84.5159 379.251 33.4284 446.53 22.9284C510.113 13.0235 580.216 49.7261 617.616 112.528L617.526 112.543L617.894 113.166C661.168 186.454 645.582 276.57 579.621 334.003C520.332 385.637 467.823 442.756 439.331 520.915L439.33 520.915C405.829 612.89 415.74 706.631 444.561 801.771L445.947 806.303C448.985 816.153 452.476 825.872 455.993 835.568C459.512 845.267 463.058 854.941 466.215 864.718C472.527 884.269 477.273 904.199 477.117 925.451C476.479 1003.93 435.176 1065.37 368.189 1082.39C299.373 1099.89 221.894 1065.88 181.318 1000.28C141.75 936.314 145.012 855.701 192.355 800.818C206.29 784.67 221.357 769.607 236.588 754.67C251.815 739.737 267.21 724.926 281.777 709.304C390.864 592.268 398.87 450.05 346.491 292.755C331.566 247.943 311.685 204.282 319.54 155.846L319.731 154.701Z" stroke="#F2F2F2" stroke-opacity="0.4"/>
</g>
<g opacity="0.306122">
<path d="M345.304 142.955C361.045 73.6427 411.23 25.153 478.923 18.0949C542.895 11.443 610.857 51.5496 644.783 116.001L644.692 116.013L645.027 116.653C684.248 191.849 663.838 280.833 594.928 334.714C532.99 383.153 477.518 437.399 444.876 513.821C405.88 605.18 411.485 700.621 436.083 798.46C438.583 808.427 441.541 818.286 444.528 828.123C447.515 837.963 450.531 847.78 453.154 857.679C458.233 876.857 461.827 896.313 460.863 916.751L460.755 918.732C455.885 996.881 411.363 1055.99 343.609 1069.57C274.005 1083.52 198.539 1045.72 161.595 978.316C125.569 912.597 133.171 832.457 183.367 780.176L183.366 780.175C198.14 764.793 213.986 750.55 229.988 736.44C245.986 722.334 262.145 708.358 277.521 693.531C392.672 582.457 408.331 441.183 364.556 281.836C351.983 236.081 334.327 191.239 345.304 142.955Z" stroke="#F2F2F2" stroke-opacity="0.4"/>
</g>
<g opacity="0.326531">
<path d="M370.91 132.375C390.349 64.1341 443.037 18.3769 510.966 14.7763C575.159 11.3916 640.815 54.7832 671.198 120.697L671.106 120.703L671.406 121.361C706.219 197.644 681.728 284.475 611.346 334.837L609.674 336.02C545.261 381.129 486.988 432.351 450.301 506.816C406.47 595.839 406.924 691.187 426.202 789.887C428.16 799.941 430.581 809.912 433.031 819.861C435.483 829.814 437.963 839.745 440.047 849.738C444.213 869.721 446.784 889.92 444.345 910.933C435.279 988.525 387.669 1045.15 319.328 1055.24C249.123 1065.6 175.854 1024.13 142.619 955.127C110.209 887.844 122.108 808.406 175.012 758.874C190.582 744.301 207.16 730.916 223.887 717.672C240.61 704.432 257.488 691.331 273.63 677.342C394.514 572.54 417.745 432.618 382.643 271.681C372.639 225.831 357.594 180.623 370.597 133.489L370.91 132.375Z" stroke="#F2F2F2" stroke-opacity="0.4"/>
</g>
<g opacity="0.346939">
<path d="M396.487 122.956C419.553 55.9819 474.593 13.0867 542.58 12.9501C606.825 12.8389 670.015 59.3865 696.796 126.571L696.704 126.573L696.97 127.244C727.855 205.594 698.045 291.556 623.828 337.889L623.829 337.89C557.122 379.544 496.215 427.596 455.601 499.894C407.075 586.328 402.407 681.31 416.344 780.586C417.758 790.698 419.638 800.75 421.549 810.783C423.46 820.82 425.402 830.836 426.944 840.894C430.029 861.007 431.509 881.254 427.946 902.056C414.73 978.87 364.175 1032.85 295.428 1039.42C224.806 1046.18 153.915 1001.16 124.454 930.749C95.7252 862.098 111.867 783.589 167.326 736.946C183.647 723.223 200.912 710.735 218.317 698.395C235.718 686.059 253.264 673.868 270.125 660.756C396.396 562.521 427.098 424.35 400.713 262.287C393.133 215.753 380.408 169.609 396.487 122.956Z" stroke="#F2F2F2" stroke-opacity="0.4"/>
</g>
<g opacity="0.367347">
<path d="M421.974 114.691C448.378 49.6862 504.929 9.88652 572.098 12.5165L573.687 12.5869C637.815 15.7466 698.39 65.3137 721.518 133.576L721.427 133.573L721.656 134.256C748.283 213.845 713.924 297.928 637.365 340.289C568.553 378.371 505.187 423.121 460.775 493.047C407.709 576.646 397.958 670.99 406.547 770.557C407.417 780.699 408.755 790.805 410.125 800.893C411.495 810.985 412.897 821.058 413.897 831.152C415.835 850.706 416.264 870.308 412.042 890.182L411.619 892.106C394.446 967.33 341.791 1018.3 273.604 1022.07L271.99 1022.15C201.139 1025.28 132.796 976.84 107.166 905.23C82.1711 835.407 102.49 758.052 160.343 714.428C177.37 701.594 195.27 690.037 213.304 678.635C231.332 667.236 249.499 655.99 267.03 643.791C398.325 552.399 436.375 416.374 418.725 253.65C413.654 206.926 403.426 160.33 421.975 114.692L421.974 114.691Z" stroke="#F2F2F2" stroke-opacity="0.4"/>
</g>
<g opacity="0.387755">
<path d="M447.309 107.575C477.374 43.7001 536.64 6.88113 604.207 13.6561C668.051 20.0756 725.866 72.5192 745.305 141.664L745.214 141.657L745.407 142.35C767.73 222.952 728.94 304.917 650.253 343.186C580.082 377.323 514.912 418.268 466.946 484.695L465.817 486.269C409.275 565.539 394.073 657.319 396.714 755.147L396.853 759.811C397.179 769.953 397.974 780.084 398.802 790.198C399.631 800.316 400.491 810.417 400.95 820.518C401.84 840.086 401.22 859.625 395.943 879.197L395.418 881.092C374.089 955.695 318.098 1003.93 249.088 1003.44C178.197 1002.95 112.567 951.226 90.8113 878.619C69.5941 807.824 94.0098 731.842 154.091 691.36C171.773 679.451 190.259 668.857 208.869 658.425C227.475 647.996 246.21 637.725 264.362 626.475L264.363 626.474C400.306 542.18 445.558 408.686 436.638 245.764C434.073 198.983 426.355 152.067 447.309 107.575Z" stroke="#F2F2F2" stroke-opacity="0.4"/>
</g>
<g opacity="0.408163">
<path d="M472.431 101.59C505.849 39.5381 566.976 5.91514 634.067 16.1195C697.46 25.7792 752.379 80.9499 768.099 150.782L768.009 150.77L768.164 151.471C786.154 232.857 743.063 312.473 662.471 346.545C590.6 376.937 523.358 414.364 471.935 478.042L470.723 479.551C409.09 556.783 389.358 649.051 387.298 748.352C387.082 758.467 387.337 768.593 387.624 778.705C387.912 788.821 388.233 798.921 388.153 809.001C387.998 828.528 386.337 847.948 380.027 867.163L379.402 869.022C354.133 942.203 295.667 987.356 226.8 983.34C156.055 979.218 93.2964 924.365 75.4481 850.967C58.041 779.401 86.4639 705.006 148.601 667.778C166.887 656.827 185.906 647.227 205.04 637.794C224.17 628.363 243.42 619.098 262.141 608.827C402.344 531.866 454.635 401.278 454.413 238.621C454.347 192.279 449.223 145.548 471.891 102.604L472.431 101.59Z" stroke="#F2F2F2" stroke-opacity="0.4"/>
</g>
<g opacity="0.428571">
<path d="M497.279 96.7249C533.939 36.669 596.752 6.33674 663.192 19.9409C725.967 32.8126 777.863 90.5535 789.847 160.875L789.758 160.859L789.876 161.568C803.511 243.508 756.262 320.552 673.991 350.331C600.046 377.105 530.416 411.233 475.491 472.89C409.855 546.609 385.253 637.448 377.92 736.196C377.167 746.254 376.883 756.348 376.632 766.429C376.382 776.514 376.166 786.585 375.551 796.615C374.32 816.672 371.493 836.534 363.625 855.915C334.51 927.467 273.74 969.415 205.198 961.88C134.788 954.144 75.0475 896.314 61.1288 822.333C47.5535 750.198 79.8815 677.598 143.895 643.73C162.733 633.767 182.231 625.186 201.835 616.779C221.434 608.373 241.146 600.138 260.381 590.874C404.443 521.461 463.588 394.148 472.01 232.211C474.425 185.712 471.731 138.556 497.278 96.7251L497.279 96.7249Z" stroke="#F2F2F2" stroke-opacity="0.4"/>
</g>
<g opacity="0.44898">
<path d="M521.794 92.9569C561.576 35.065 625.897 8.10647 691.511 25.0716C753.505 41.1188 802.26 101.269 810.501 171.885L810.412 171.863L810.492 172.576C819.693 254.2 769.31 327.939 686.75 353.9L684.793 354.504C610.136 377.167 539.336 407.256 481.482 464.908L480.118 466.274C410.682 536.274 381.307 625.431 368.755 723.35C367.471 733.323 366.652 743.356 365.869 753.378C365.084 763.404 364.335 773.418 363.189 783.37C360.898 803.273 357.024 822.898 348.142 841.785C315.283 911.508 252.388 950.134 184.354 939.102C114.464 927.773 57.883 867.13 47.9049 792.772L47.9048 792.771C38.1719 720.268 74.2928 649.667 139.999 619.251C159.335 610.305 179.256 602.768 199.275 595.409C218.038 588.511 236.89 581.767 255.402 574.17L259.1 572.64C406.609 510.967 472.404 387.283 489.39 226.52C494.263 180.357 494.072 133.28 521.794 92.9569Z" stroke="#F2F2F2" stroke-opacity="0.4"/>
</g>
<g opacity="0.469388">
<path d="M545.92 90.2647C588.362 35.1314 653.317 11.5572 717.444 30.9999L718.959 31.4679C780.009 50.646 825.512 113.037 830.012 183.75L829.925 183.724L829.967 184.439C834.883 266.803 779.791 338.066 694.86 359.026C618.525 377.871 545.705 404.428 484.602 459.699C411.578 525.785 377.543 613.012 359.841 709.83C358.032 719.69 356.685 729.635 355.373 739.57C354.061 749.509 352.784 759.437 351.115 769.284C347.777 788.976 342.874 808.311 333.009 826.65C296.521 894.352 231.684 929.548 164.337 915.05C95.1529 900.16 41.8613 836.873 35.8243 762.344C29.9339 689.674 69.7245 621.267 136.935 594.388C156.713 586.483 177.002 580.012 197.378 573.721C216.476 567.826 235.654 562.088 254.539 555.482L258.312 554.15C408.847 500.388 481.069 380.677 506.515 221.534C513.819 175.837 516.112 128.967 545.92 90.2647Z" stroke="#F2F2F2" stroke-opacity="0.4"/>
</g>
<g opacity="0.489796">
<path d="M569.599 88.6239C615.233 35.5343 682.013 15.5393 745.466 39.0764C805.413 61.3322 847.562 125.793 848.337 196.408L848.251 196.378L848.256 197.093C848.832 279.327 790.076 347.402 704.171 363.858C626.963 378.656 552.857 401.312 488.94 453.155C412.552 515.146 373.979 600.202 351.21 695.652C348.886 705.373 347.019 715.202 345.187 725.022C343.354 734.847 341.556 744.664 339.371 754.378C335.002 773.805 329.089 792.794 318.274 810.536C278.281 876.03 211.692 907.7 145.209 889.775C76.9148 871.365 27.036 805.608 24.9291 731.114C22.8868 659.046 65.5243 593.486 133.119 569.74L134.72 569.187C154.884 562.344 175.482 556.955 196.158 551.751C216.828 546.548 237.581 541.529 258.027 535.431L258.028 535.431C411.16 489.728 489.569 374.321 523.349 217.237C533.045 172.131 537.801 125.6 569.599 88.6239Z" stroke="#F2F2F2" stroke-opacity="0.4"/>
</g>
<g opacity="0.510204">
<path d="M592.778 88.0057C640.748 37.9338 707.795 21.3723 769.517 47.226L770.973 47.8448C829.662 73.1173 868.366 139.47 865.437 209.794L865.353 209.76L865.321 210.474C861.584 292.352 799.352 357.051 712.715 368.959C634.85 379.669 559.67 398.362 493.133 446.637C413.612 504.363 370.639 587.015 342.901 680.835C340.071 690.39 337.691 700.075 335.347 709.755C333.001 719.438 330.693 729.115 328.002 738.671C322.621 757.779 315.721 776.372 303.992 793.468C260.628 856.574 192.481 884.631 127.039 863.329C59.8143 841.45 13.4606 773.402 15.2623 699.148C17.015 626.746 63.7365 563.284 133.373 543.692C153.865 537.931 174.714 533.639 195.631 529.536C216.542 525.433 237.527 521.517 258.261 516.512C413.554 478.994 497.894 368.206 539.857 213.612C551.904 169.22 559.091 123.154 592.777 88.0056L592.778 88.0057Z" stroke="#F2F2F2" stroke-opacity="0.4"/>
</g>
<g opacity="0.530612">
<path d="M615.402 88.3799C666.31 40.674 734.79 27.8616 795.419 57.7132C852.695 85.9335 887.871 153.998 881.275 223.839L881.193 223.801L881.123 224.512C873.114 305.812 807.6 366.96 720.476 374.287C642.172 380.88 566.133 395.558 497.177 440.133C414.763 493.437 367.54 573.46 334.943 665.396C331.618 674.758 328.736 684.274 325.889 693.786C323.042 703.302 320.231 712.813 317.045 722.184C310.674 740.922 302.814 759.068 290.211 775.472C243.618 836.018 174.111 860.385 109.883 835.763C44.4206 810.672 1.84804 741.416 6.73312 668.239L6.85751 666.51C12.39 594.538 62.353 533.812 132.905 517.949C153.666 513.285 174.707 510.102 195.806 507.11C216.899 504.119 238.055 501.318 259.018 497.419C416.029 468.187 506.027 362.32 556.002 210.636C570.349 167.08 579.931 121.604 615.401 88.3798L615.402 88.3799Z" stroke="#F2F2F2" stroke-opacity="0.4"/>
</g>
<g opacity="0.55102">
<path d="M637.421 89.7134C690.731 44.8965 759.77 35.7319 818.748 68.6235C874.464 99.7153 906.039 169.308 895.818 238.479L895.738 238.437L895.631 239.142C883.402 319.644 814.811 377.075 727.443 379.803C648.921 382.261 572.24 392.886 501.074 433.64L501.074 433.641C417.345 481.617 366.313 557.151 329.13 645.158L327.37 649.358C323.562 658.503 320.189 667.824 316.852 677.144C313.513 686.466 310.211 695.785 306.543 704.945C299.436 722.691 290.963 739.809 278.224 755.106L276.978 756.58C227.307 814.404 156.643 835.016 93.799 807.141C29.7467 778.734 -9.15106 707.568 -0.464461 634.988L-0.250149 633.273C9.02044 561.925 62.0642 504.099 133.33 492.007C154.301 488.452 175.474 486.387 196.694 484.515C217.91 482.643 239.178 480.963 260.311 478.181C418.593 457.313 513.959 356.654 571.752 208.289C588.214 166.019 600.092 121.623 636.556 90.4468L637.421 89.7134Z" stroke="#F2F2F2" stroke-opacity="0.4"/>
</g>
<g opacity="0.571429">
<path d="M658.788 91.969C714.335 50.1611 783.734 44.669 840.91 80.5119C894.92 114.391 922.83 185.323 909.038 253.638L908.961 253.591L908.817 254.29C892.433 333.778 820.975 387.34 733.609 385.46C655.09 383.778 577.984 390.323 504.822 427.148C417.375 471.19 362.14 545.316 320.212 632.744C315.936 641.647 312.084 650.749 308.268 659.85C304.452 668.954 300.672 678.057 296.534 686.982C288.26 704.83 278.567 721.936 264.34 736.825C211.752 791.771 140.134 808.574 78.8396 777.522C15.8749 745.628 -19.3252 671.84 -6.03279 599.505C6.9242 528.973 62.8808 474.202 134.657 465.912C155.777 463.477 177.022 462.534 198.305 461.786C219.582 461.038 240.902 460.485 262.144 458.827L262.145 458.827C421.247 446.379 521.679 351.195 587.074 206.548C605.849 165.013 620.087 121.084 658.788 91.969Z" stroke="#F2F2F2" stroke-opacity="0.4"/>
</g>
<g opacity="0.591837">
<path d="M679.453 95.1078C737.066 56.4193 806.629 54.6133 861.852 93.311C914.017 129.886 938.211 201.969 920.91 269.246L920.835 269.195L920.655 269.885C900.189 348.148 826.087 397.698 738.968 391.218L738.967 391.218C660.672 385.402 583.362 387.849 508.421 420.649C418.848 459.879 359.875 530.756 313.497 615.578C308.768 624.215 304.452 633.072 300.173 641.931C295.892 650.793 291.648 659.656 287.056 668.322C277.873 685.653 267.312 702.17 252.34 716.24C197.002 768.164 124.639 781.113 65.0557 746.967C3.84877 711.895 -27.4736 636.584 -10.4634 565.278C5.98897 496.294 63.8948 444.985 135.203 439.826L136.89 439.713C158.1 438.402 179.357 438.585 200.642 438.963C221.921 439.341 243.232 439.916 264.523 439.386C423.994 435.387 529.175 345.931 601.939 205.386C622.83 165.028 639.314 122.049 679.453 95.1078Z" stroke="#F2F2F2" stroke-opacity="0.4"/>
</g>
<g opacity="0.612245">
<path d="M699.372 99.0898C758.874 63.6215 828.405 65.5039 881.533 106.953C931.717 146.126 952.149 219.169 931.413 285.23L931.341 285.176L931.124 285.854C906.852 362.085 831.333 407.384 745.543 397.283L743.515 397.035C665.662 387.101 588.367 385.446 511.872 414.135C421.868 447.915 359.88 513.795 309.637 594.054L307.253 597.886C302.087 606.235 297.323 614.825 292.595 623.417C287.865 632.014 283.172 640.613 278.142 648.998C268.082 665.766 256.689 681.651 241.019 694.866C183.105 743.631 110.207 752.693 52.4919 715.545C-6.79543 677.389 -34.1769 600.755 -13.5222 530.667C6.61351 462.327 67.855 414.088 140.035 413.457C161.273 413.275 182.482 414.582 203.708 416.085C223.602 417.493 243.517 419.075 263.463 419.761L267.452 419.886C426.837 424.343 536.439 340.849 616.316 204.777C639.25 165.703 657.919 123.788 699.372 99.0907L699.372 99.0898Z" stroke="#F2F2F2" stroke-opacity="0.4"/>
</g>
<g opacity="0.632653">
<path d="M718.506 103.872C779.716 71.7151 849.015 77.2785 899.91 121.367C947.983 163.034 964.62 236.843 940.53 301.516L940.461 301.458L940.21 302.124C911.846 377.322 833.14 418.475 747.249 402.864C670.058 388.842 592.998 383.093 515.176 407.597C422.158 436.913 356.292 500.747 301.509 579.695C295.924 587.734 290.726 596.034 285.566 604.338C280.403 612.646 275.278 620.959 269.826 629.04C258.924 645.202 246.737 660.412 230.418 672.739C170.111 718.219 96.8875 723.375 41.1929 683.325C-16.019 642.188 -39.4075 564.433 -15.1907 495.747C8.41808 428.772 72.0196 383.993 144.093 387.195C165.299 388.141 186.4 390.567 207.508 393.19C228.61 395.812 249.725 398.631 270.932 400.357C429.779 413.253 543.461 335.936 630.179 204.692C655.076 167.004 675.864 126.263 718.506 103.873L718.506 103.872Z" stroke="#F2F2F2" stroke-opacity="0.4"/>
</g>
<g opacity="0.653061">
<path d="M736.813 109.409C799.544 80.6444 868.416 89.871 916.946 136.482C962.784 180.531 975.603 254.912 948.249 318.029L948.183 317.968L947.898 318.618C915.739 391.988 835.087 428.78 750.173 408.666C673.86 390.596 597.253 380.77 518.336 401.031C424.006 425.274 355.004 485.335 296.287 561.035C290.302 568.743 284.69 576.73 279.114 584.725C273.536 592.724 267.995 600.728 262.14 608.486C250.798 623.514 238.298 637.59 222.148 648.825L220.574 649.903C158.061 691.982 84.7245 693.22 31.1971 650.375C-23.7886 606.368 -43.1426 527.697 -15.4555 460.59C11.5371 395.156 77.3015 353.949 149.062 360.972C170.177 363.042 191.11 366.581 212.04 370.316C231.656 373.817 251.275 377.49 271.016 380.281L274.966 380.828C432.824 402.121 550.234 331.18 643.501 205.103C670.07 169.181 692.755 130.052 735.793 109.881L736.813 109.409Z" stroke="#F2F2F2" stroke-opacity="0.4"/>
</g>
<g opacity="0.673469">
<path d="M754.256 115.653C818.319 90.3522 886.569 103.215 932.609 152.224L932.61 152.223C976.094 198.536 985.081 273.296 954.561 334.693L954.499 334.628L954.181 335.263C918.341 406.615 835.987 438.957 752.288 414.396C677.655 392.502 602.318 378.676 523.222 394.059L521.353 394.428C425.991 413.541 354.07 469.675 291.611 541.934C285.245 549.291 279.237 556.947 273.265 564.612C267.29 572.28 261.351 579.956 255.113 587.37C242.638 602.195 228.985 615.944 211.522 626.401C146.996 664.972 73.7572 662.295 22.5379 616.77C-30.0769 570.009 -45.3646 490.629 -14.308 425.275C15.97 361.55 83.6954 324.019 154.939 334.841C175.901 338.029 196.607 342.67 217.3 347.505C237.987 352.34 258.667 357.371 279.55 361.33C435.97 390.955 556.75 326.566 656.258 205.978C684.828 171.35 709.628 133.267 754.256 115.653Z" stroke="#F2F2F2" stroke-opacity="0.4"/>
</g>
<g opacity="0.693878">
<path d="M770.802 122.556C836.005 100.779 903.436 117.237 946.868 168.514C987.887 216.968 993.04 291.911 959.461 351.433L959.402 351.366L959.051 351.983C919.657 421.136 835.849 448.948 753.599 420.01C680.259 394.214 605.806 376.416 526.111 387.511L524.228 387.778C428.116 401.719 353.5 453.788 287.502 522.424C280.775 529.412 274.391 536.716 268.042 544.032C261.69 551.351 255.374 558.679 248.772 565.729C235.571 579.829 221.248 592.793 203.294 602.275C136.953 637.246 64.0229 630.665 15.2464 582.582C-34.859 533.193 -46.0602 453.31 -11.7436 389.876C21.7132 328.022 91.1924 294.259 161.717 308.846C182.467 313.141 202.887 318.87 223.284 324.793C243.676 330.714 264.05 336.83 284.682 341.89C439.222 379.758 563.001 322.08 668.427 207.286C698.697 174.321 725.38 137.714 770.801 122.555L770.802 122.556Z" stroke="#F2F2F2" stroke-opacity="0.4"/>
</g>
<g opacity="0.714286">
<path d="M786.418 130.066C852.047 112.005 917.95 131.56 958.741 184.033L959.699 185.279C998.147 235.745 999.471 310.678 962.948 368.175L962.892 368.104L962.509 368.701C919.695 435.48 834.683 458.701 754.114 425.469C682.273 395.844 608.915 374.127 528.857 380.912L526.964 381.078C430.385 389.819 353.306 437.695 283.979 502.537C276.913 509.139 270.173 516.073 263.468 523.021C256.759 529.972 250.086 536.934 243.142 543.604C229.256 556.943 214.309 569.092 195.917 577.576C127.964 608.861 55.5538 598.401 9.34839 547.888C-38.116 496.004 -45.2206 415.825 -7.76163 354.47C28.7593 294.644 99.781 264.729 169.385 283.036C189.864 288.427 209.94 295.227 229.985 302.22C250.024 309.21 270.035 316.394 290.357 322.539C366.448 345.533 436.107 344.335 500.628 323.783C565.143 303.234 624.492 263.342 679.988 208.992C711.86 177.773 740.34 142.735 786.418 130.066Z" stroke="#F2F2F2" stroke-opacity="0.4"/>
</g>
<g opacity="0.734694">
<path d="M801.075 138.133C867.967 123.543 933.195 147.039 971.082 202.437C1006.86 254.782 1004.37 329.511 965.025 384.84L964.973 384.767L964.561 385.342C918.468 449.582 832.507 468.16 753.844 430.727C683.151 397.094 610.511 371.383 529.564 374.317C432.801 377.847 353.496 421.416 281.06 482.306C273.678 488.504 266.603 495.052 259.563 501.615C252.519 508.181 245.51 514.76 238.246 521.033C223.719 533.579 208.196 544.882 189.423 552.349C120.064 579.876 48.3796 565.572 4.86639 512.763C-39.8323 458.521 -42.8402 378.253 -2.36416 319.131C37.0986 261.483 109.448 235.484 177.934 257.458C198.083 263.927 217.76 271.78 237.394 279.822C257.024 287.861 276.616 296.093 296.57 303.305C371.286 330.296 440.818 332.838 506.21 315.82C571.595 298.805 632.812 262.241 690.921 211.064C724.295 181.667 754.478 148.285 801.075 138.133Z" stroke="#F2F2F2" stroke-opacity="0.4"/>
</g>
<g opacity="0.755102">
<path d="M814.751 146.701C881.663 135.839 945.04 162.252 980.178 218.575L981.002 219.911C1014.02 273.996 1007.74 348.331 965.703 401.355L965.655 401.279L965.214 401.831C915.994 463.373 829.337 477.272 752.802 435.745C684.021 398.433 612.897 368.911 532.034 367.488C435.371 365.811 354.082 404.973 278.763 461.763C271.088 467.544 263.701 473.69 256.348 479.852C248.991 486.017 241.668 492.197 234.107 498.059C219.457 509.415 203.935 519.558 185.616 526.03L183.835 526.644C113.279 550.351 42.5283 532.248 1.82153 477.286C-39.9946 420.832 -38.9182 340.681 4.44193 283.938C46.3866 229.041 119.031 206.93 185.774 231.568L187.349 232.159C207.112 239.687 226.333 248.569 245.503 257.637C264.667 266.703 283.785 275.957 303.316 284.216C376.445 315.124 445.647 321.391 511.715 307.943C577.776 294.497 640.673 261.346 701.213 213.466C735.982 185.963 767.774 154.316 814.751 146.701Z" stroke="#F2F2F2" stroke-opacity="0.4"/>
</g>
<g opacity="0.77551">
<path d="M827.418 155.717C895.205 148.429 957.491 178.688 989.445 237.62C1019.62 293.301 1009.59 367.055 964.99 417.644L964.945 417.565L964.476 418.093C912.287 476.786 825.194 485.985 750.999 440.482C684.323 399.597 614.916 366.35 534.374 360.587C438.094 353.722 355.068 388.387 277.099 440.943C269.154 446.293 261.478 452.022 253.835 457.769C246.188 463.518 238.575 469.284 230.739 474.721C215.559 485.252 199.569 494.527 180.979 499.994L179.172 500.511C107.631 520.349 38.0157 498.504 0.222007 441.534C-38.6018 383.018 -33.461 303.189 12.6431 248.963C57.5935 196.088 131.944 178.083 197.613 207.183L197.613 207.182C216.933 215.747 235.645 225.634 254.295 235.702C272.941 245.768 291.529 256.019 310.581 265.3C381.917 300.036 450.588 310.001 517.135 300.147C583.675 290.294 648.061 260.632 710.844 216.162C746.902 190.617 780.2 160.783 827.418 155.717Z" stroke="#F2F2F2" stroke-opacity="0.4"/>
</g>
<g opacity="0.795918">
<path d="M839.061 165.125C906.995 161.504 967.544 195.017 996.405 255.484L996.404 255.485C1023.65 312.615 1009.92 385.599 962.903 433.633L962.863 433.552L962.368 434.055C907.375 489.759 820.101 494.248 748.456 444.897C684.071 400.554 616.577 363.68 536.591 353.605C440.974 341.585 356.461 371.679 276.083 419.882C267.892 424.787 259.951 430.086 252.041 435.405C244.128 440.725 236.247 446.063 228.161 451.062C211.992 461.057 195.03 469.671 175.456 474C103.144 489.931 34.8641 464.412 0.0822741 405.586C-35.6477 345.164 -26.4756 265.859 22.226 214.281C69.7091 163.988 144.729 150.034 208.707 182.575C227.53 192.152 245.679 203.013 263.757 214.053C281.832 225.09 299.84 236.309 318.359 246.585C387.7 285.048 455.641 298.674 522.47 292.428C589.292 286.183 654.972 260.074 719.805 219.116C757.041 195.588 791.741 167.637 839.061 165.125Z" stroke="#F2F2F2" stroke-opacity="0.4"/>
</g>
<g opacity="0.816327">
<path d="M849.66 174.87C917.542 174.911 976.182 211.582 1001.88 273.426C1026.14 331.854 1008.75 403.886 959.462 449.251L959.426 449.168L958.905 449.643C901.281 502.227 814.083 502.013 745.188 448.953C683.275 401.278 617.885 360.882 538.688 346.537C444.011 329.411 358.266 354.875 275.722 398.616C267.31 403.067 259.128 407.923 250.975 412.8C242.82 417.68 234.696 422.579 226.385 427.128C209.765 436.224 192.427 443.902 172.701 447.166C99.8333 459.162 33.0833 430.046 1.40432 369.521C-31.1384 307.354 -17.9768 228.775 33.1694 179.967C83.0364 132.375 158.502 122.494 220.609 158.38C238.881 168.941 256.417 180.746 273.873 192.726C291.325 204.702 308.702 216.856 326.635 228.098L326.636 228.099C393.786 270.177 460.8 287.415 527.714 284.78C594.621 282.146 661.397 259.645 728.081 222.292C766.381 200.835 802.378 174.83 849.66 174.87Z" stroke="#F2F2F2" stroke-opacity="0.4"/>
</g>
<g opacity="0.836735">
<path d="M859.204 184.893C926.835 188.583 983.4 228.306 1005.87 291.363C1027.07 350.935 1006.09 421.832 954.691 464.424L954.66 464.34L954.116 464.787C894.037 514.128 807.17 509.23 741.218 452.611C681.95 401.739 618.849 357.939 540.67 339.376C447.208 317.208 360.485 337.993 276.025 377.178C267.419 381.165 259.021 385.568 250.651 389.994C242.278 394.422 233.935 398.872 225.424 402.962C208.404 411.14 190.74 417.863 170.922 420.058C98.2856 428.042 33.7009 395.99 4.86525 334.869L4.19054 333.419C-24.8514 270.17 -8.2448 193.229 44.2063 147.174L45.4522 146.092C97.5486 101.311 173.237 95.512 233.297 134.638C250.967 146.153 267.839 158.868 284.624 171.753C301.404 184.635 318.101 197.69 335.399 209.865C400.168 255.438 466.063 276.231 532.865 277.2C599.661 278.169 667.333 259.317 735.668 225.65C774.916 206.31 812.098 182.313 859.204 184.893Z" stroke="#F2F2F2" stroke-opacity="0.4"/>
</g>
<g opacity="0.857143">
<path d="M867.682 195.138C934.863 202.451 989.194 245.11 1008.37 309.213C1026.47 369.773 1001.98 439.361 948.616 479.082L948.589 478.996L948.022 479.414C885.673 525.401 799.392 515.851 736.568 455.833C680.552 402.329 620.423 355.566 544.341 332.652L542.541 332.115C452.002 305.409 365.856 320.567 281.037 354.001L277 355.607C268.224 359.121 259.635 363.062 251.073 367.027C242.508 370.994 233.971 374.984 225.285 378.606C208.459 385.623 191.1 391.246 171.982 392.613L170.127 392.732C96.7937 396.826 33.6701 360.794 8.43617 297.358C-17.2839 232.709 3.16464 156.856 57.7491 113.738L59.045 112.725C113.211 70.8579 188.901 69.1387 246.744 111.391C263.76 123.826 279.922 137.415 295.988 151.169C312.05 164.919 328.02 178.837 344.633 191.911C406.839 240.846 471.424 265.126 537.919 269.68C604.408 274.234 672.776 259.066 742.555 229.155C782.321 212.106 820.291 190.376 866.587 195.024L867.682 195.138Z" stroke="#F2F2F2" stroke-opacity="0.4"/>
</g>
<g opacity="0.877551">
<path d="M875.088 205.546C941.625 216.446 993.569 261.92 1009.41 326.901C1024.36 388.287 996.432 456.395 941.27 493.157L941.248 493.071L940.66 493.459C876.23 535.99 790.784 521.833 731.263 458.586C677.775 401.759 619.778 351.54 544.309 324.751C454.085 292.749 366.18 304.092 278.65 333.937C269.732 336.972 260.977 340.444 252.248 343.94C243.516 347.438 234.811 350.96 225.976 354.108C208.31 360.402 190.154 365.183 170.326 365.24C97.083 365.39 36.0456 326.056 14.1365 261.416C-8.37081 195.021 16.4089 119.789 73.9191 79.9375C129.991 41.0772 205.461 43.4226 260.922 88.679C277.238 101.997 292.644 116.421 307.946 131.005C323.244 145.584 338.442 160.326 354.323 174.26C413.791 226.417 476.88 254.105 542.874 262.217C608.862 270.328 677.724 258.863 748.74 232.767C789.529 217.776 828.744 197.943 875.087 205.546L875.088 205.546Z" stroke="#F2F2F2" stroke-opacity="0.4"/>
</g>
<g opacity="0.897959">
<path d="M881.415 216.06C947.114 230.502 996.525 278.659 1009 344.347C1020.76 406.4 989.481 472.859 932.685 506.584L932.667 506.497L932.061 506.853C866.26 545.532 782.696 527.423 726.647 462.381L725.328 460.836C674.958 401.268 619.763 348.052 545.977 317.278L545.977 317.277C459.142 281.086 372.407 286.924 285.133 311.047L280.976 312.209C271.942 314.759 263.047 317.754 254.178 320.775C245.304 323.797 236.457 326.845 227.5 329.512C209.589 334.845 191.267 338.643 171.519 337.637C98.5805 333.862 39.802 291.345 21.2747 225.671C2.24109 158.215 30.7448 84.4788 90.0371 47.7973C147.395 12.3077 221.704 18.3146 274.555 65.4202L275.8 66.5408C291.369 80.7038 305.976 95.9218 320.471 111.293C334.962 126.66 349.345 142.184 364.45 156.938L364.451 156.939C421.013 212.167 482.425 243.175 547.727 254.805C613.022 266.434 682.176 258.685 754.22 236.452C795.599 223.679 835.656 205.991 881.415 216.06Z" stroke="#F2F2F2" stroke-opacity="0.4"/>
</g>
<g opacity="0.918367">
<path d="M886.664 226.622C951.337 244.549 998.075 295.251 1007.14 361.472C1015.69 424.028 981.164 488.677 922.902 519.295L922.888 519.207L922.265 519.53C854.253 554.886 771.218 531.71 718.794 462.548C671.683 400.407 619.444 344.347 547.553 309.689C461.604 268.278 373.546 270.159 283.981 290.454C274.856 292.516 265.848 295.029 256.864 297.569C247.876 300.11 238.912 302.679 229.858 304.862C212.32 309.09 194.471 311.859 175.546 310.154L173.711 309.975C101.288 302.306 44.9372 256.731 29.8394 190.2C14.3281 121.862 46.4644 49.8018 107.363 16.3676C166.739 -16.2353 241.11 -5.85244 291.347 45.01C306.125 59.9772 319.893 75.9453 333.54 92.0606C347.184 108.172 360.712 124.434 374.998 139.967L374.999 139.966C428.495 198.107 488.054 232.337 552.475 247.437C616.89 262.535 686.134 258.501 758.993 240.168C800.84 229.634 841.621 214.125 886.664 226.622Z" stroke="#F2F2F2" stroke-opacity="0.4"/>
</g>
<g opacity="0.938776">
<path d="M890.837 237.172C954.297 258.518 998.232 311.62 1003.87 378.202C1009.19 441.096 971.517 503.779 911.961 531.229L911.952 531.14L911.314 531.43C841.811 563.088 760.34 535.524 711.689 463.693C667.969 399.154 618.834 340.41 549.043 301.979C466.907 256.776 380.593 253.334 291.886 267.999L287.661 268.711C278.472 270.283 269.377 272.309 260.304 274.365C251.227 276.422 242.174 278.507 233.051 280.202C214.807 283.592 196.314 285.413 176.901 282.309C105.203 270.788 51.4383 222.291 39.8083 155.078C27.8591 86.0403 63.5296 15.8315 125.855 -14.2879C186.623 -43.6587 260.122 -29.3269 307.531 24.1224C321.477 39.8504 334.364 56.5242 347.126 73.3377C359.884 90.1469 372.519 107.101 385.946 123.367C436.226 184.254 493.765 221.598 557.119 240.108C620.468 258.617 689.6 258.288 763.061 243.878C805.255 235.598 846.64 222.295 890.837 237.172Z" stroke="#F2F2F2" stroke-opacity="0.4"/>
</g>
<g opacity="0.959184">
<path d="M893.941 247.657C955.522 272.152 996.372 326.831 999.161 392.9L999.219 394.462C1001.29 457.53 960.585 518.096 899.908 542.326L899.904 542.236L899.252 542.493C828.459 570.393 748.786 538.54 704.044 464.241C663.837 397.487 617.944 336.229 550.453 294.148C469.76 243.863 382.57 236.371 292.013 247.017C282.787 248.096 273.632 249.635 264.497 251.204C255.358 252.774 246.241 254.373 237.074 255.579C218.743 257.991 200.245 258.824 181.083 254.692C110.316 239.373 59.2884 188.097 51.1559 120.38C42.7991 50.8251 81.8971 -17.3601 145.468 -44.1071C207.449 -70.1898 279.864 -51.9691 324.312 3.91264C337.386 20.356 349.359 37.6863 361.199 55.1501C373.036 72.6095 384.744 90.2064 397.274 107.159L397.274 107.16C444.197 170.619 499.55 210.962 561.656 232.815C623.756 254.665 692.578 258.018 766.43 247.546C808.848 241.527 850.716 230.452 893.941 247.656L893.941 247.657Z" stroke="#F2F2F2" stroke-opacity="0.4"/>
</g>
<g opacity="0.979592">
<path d="M895.984 258.016C956.005 285.742 993.848 342.503 993.23 408.614L993.208 410.177C992.026 473.253 948.414 531.558 886.792 552.526L886.792 552.437L886.128 552.659C814.251 576.753 736.603 540.721 695.895 464.164C659.312 395.382 616.79 331.785 551.79 286.187C474.074 231.697 387.694 219.586 297.032 225.404C287.796 225.991 278.605 227.042 269.434 228.123C260.259 229.205 251.105 230.317 241.921 231.035C223.557 232.469 205.107 232.318 186.251 227.175C116.617 208.122 68.4713 154.219 63.8562 86.1774C59.1124 16.2902 101.522 -49.7075 166.154 -73.034C229.17 -95.7816 300.295 -73.7448 341.655 -15.5916C353.821 1.51978 364.846 19.4583 375.731 37.5229C386.614 55.5828 397.36 73.7728 408.958 91.3632L408.958 91.3641C452.393 157.213 505.403 200.432 566.083 225.548C626.758 250.662 695.072 257.664 769.101 251.132C811.622 247.376 853.854 238.543 895.984 258.016Z" stroke="#F2F2F2" stroke-opacity="0.4"/>
</g>
<path d="M896.975 268.193C955.726 299.3 990.542 358.664 985.874 425.278C981.448 488.197 935.052 544.103 872.661 561.775L872.666 561.686L871.992 561.874C799.236 582.124 723.835 542.036 687.273 463.437C654.674 393.372 615.995 328.094 554.516 279.245L553.06 278.094C478.541 219.57 393.216 202.902 302.709 203.91C293.488 204.008 284.29 204.57 275.11 205.164C265.925 205.758 256.759 206.385 247.585 206.615C229.238 207.074 210.888 205.946 192.393 199.812C124.09 177.1 78.9626 120.728 77.8757 52.5432C76.7558 -17.4914 122.352 -81.1431 187.859 -101.011C251.729 -120.387 321.362 -94.6182 359.521 -34.3611C370.744 -16.631 380.789 1.86469 390.689 20.4787C400.587 39.0881 410.342 57.8204 420.976 75.9989C460.801 144.049 511.319 190.011 570.401 218.304C629.479 246.593 697.09 257.203 771.085 254.601C813.586 253.102 856.061 246.519 896.975 268.193Z" stroke="#F2F2F2" stroke-opacity="0.4"/>
</svg>
