<svg width="377" height="71" viewBox="0 0 377 71" fill="none" xmlns="http://www.w3.org/2000/svg">
<g clip-path="url(#clip0_376_2547)">
<path d="M90.9102 35.7609C90.9102 34.7457 91.0773 33.7793 91.4111 32.8616C91.7648 31.944 92.2561 31.1338 92.8846 30.4309C93.533 29.7281 94.3093 29.1716 95.2128 28.7616C96.1364 28.3321 97.1679 28.1173 98.3071 28.1173C99.0144 28.1173 99.712 28.215 100.399 28.4102C101.087 28.6054 101.726 28.8983 102.315 29.2888C102.924 29.6793 103.474 30.1673 103.965 30.7531C104.457 31.3193 104.86 31.9928 105.174 32.7738L101.755 33.9159C101.46 33.1545 100.989 32.5688 100.341 32.1588C99.6922 31.7293 99.0245 31.5145 98.3366 31.5145C97.708 31.5145 97.1578 31.6316 96.6863 31.8659C96.2147 32.1002 95.8122 32.4126 95.478 32.8031C95.1639 33.1936 94.9281 33.6426 94.7707 34.1502C94.6137 34.6578 94.535 35.1947 94.535 35.7609C94.535 36.3078 94.6234 36.8249 94.8002 37.3131C94.977 37.8013 95.2325 38.2306 95.5664 38.6017C95.9006 38.9728 96.2935 39.2656 96.7452 39.4803C97.2167 39.6949 97.7375 39.8024 98.3071 39.8024C99.152 39.8024 99.9086 39.6267 100.576 39.2753C101.264 38.9238 101.844 38.4356 102.315 37.811L105.174 39.7731C104.29 40.9642 103.278 41.8428 102.138 42.4088C101.018 42.9556 99.7414 43.2288 98.3071 43.2288C97.1873 43.2288 96.1659 43.0335 95.2422 42.6431C94.3387 42.2331 93.5624 41.6963 92.9141 41.0324C92.2658 40.3492 91.7648 39.5585 91.4111 38.6603C91.0773 37.7428 90.9102 36.7763 90.9102 35.7609ZM108.705 35.6731C108.705 34.6188 108.882 33.6328 109.236 32.7152C109.589 31.7976 110.09 30.9971 110.739 30.3138C111.387 29.6304 112.163 29.0936 113.067 28.7031C113.991 28.3126 115.012 28.1173 116.132 28.1173C117.232 28.1173 118.234 28.3126 119.138 28.7031C120.042 29.0936 120.818 29.6304 121.466 30.3138C122.114 30.9971 122.615 31.7976 122.969 32.7152C123.342 33.6328 123.529 34.6188 123.529 35.6731C123.529 36.7078 123.342 37.6842 122.969 38.6017C122.615 39.5192 122.114 40.3199 121.466 41.0031C120.818 41.6863 120.042 42.2331 119.138 42.6431C118.234 43.0335 117.232 43.2288 116.132 43.2288C115.051 43.2288 114.049 43.0335 113.126 42.6431C112.222 42.2331 111.436 41.6863 110.768 41.0031C110.12 40.3199 109.609 39.5192 109.236 38.6017C108.882 37.6842 108.705 36.7078 108.705 35.6731ZM112.36 35.6731C112.36 36.2392 112.448 36.7763 112.625 37.2838C112.802 37.7721 113.048 38.2113 113.362 38.6017C113.696 38.9728 114.098 39.2753 114.57 39.5096C115.041 39.7242 115.562 39.8317 116.132 39.8317C116.702 39.8317 117.212 39.7242 117.664 39.5096C118.136 39.2753 118.529 38.9728 118.843 38.6017C119.177 38.2113 119.432 37.7721 119.609 37.2838C119.786 36.7763 119.874 36.2392 119.874 35.6731C119.874 35.1069 119.786 34.57 119.609 34.0623C119.432 33.5547 119.177 33.1154 118.843 32.7445C118.529 32.354 118.136 32.0514 117.664 31.8366C117.212 31.6219 116.702 31.5145 116.132 31.5145C115.582 31.5145 115.071 31.6219 114.599 31.8366C114.128 32.0514 113.725 32.354 113.391 32.7445C113.077 33.1154 112.821 33.5547 112.625 34.0623C112.448 34.57 112.36 35.1069 112.36 35.6731ZM126.778 39.7731H131.788V23.9881H126.925V20.8252H135.383V39.7731H141.454V42.936H126.778V39.7731ZM144.75 39.7731H149.76V23.9881H144.897V20.8252H153.355V39.7731H159.426V42.936H144.75V39.7731ZM168.587 43.2288C167.644 43.2288 166.749 43.0435 165.905 42.6724C165.06 42.2821 164.323 41.7549 163.695 41.091C163.066 40.4078 162.565 39.6071 162.192 38.6896C161.818 37.7524 161.632 36.7471 161.632 35.6731C161.632 34.5993 161.808 33.6036 162.162 32.6859C162.535 31.7488 163.036 30.9483 163.665 30.2845C164.313 29.6012 165.06 29.0643 165.905 28.6738C166.749 28.2833 167.653 28.0881 168.616 28.0881C169.5 28.0881 170.335 28.254 171.121 28.5859C171.907 28.9178 172.555 29.3766 173.066 29.9623V28.2638H176.661V42.936H173.361V40.9738C173.203 41.2278 172.978 41.4913 172.683 41.7646C172.388 42.0185 172.035 42.2624 171.622 42.4967C171.209 42.7113 170.748 42.8871 170.237 43.0238C169.726 43.1606 169.176 43.2288 168.587 43.2288ZM169.176 31.4852C168.626 31.4852 168.105 31.5926 167.614 31.8073C167.143 32.0221 166.73 32.315 166.376 32.6859C166.042 33.0569 165.777 33.4962 165.581 34.0038C165.384 34.5114 165.286 35.0678 165.286 35.6731C165.286 36.2785 165.384 36.8349 165.581 37.3424C165.777 37.8499 166.042 38.2892 166.376 38.6603C166.73 39.0313 167.143 39.3242 167.614 39.5388C168.105 39.7342 168.626 39.8317 169.176 39.8317C169.746 39.8317 170.266 39.7342 170.738 39.5388C171.209 39.3242 171.612 39.0313 171.946 38.6603C172.3 38.2892 172.575 37.8499 172.771 37.3424C172.967 36.8349 173.066 36.2881 173.066 35.7023V35.4973C173.066 34.9507 172.967 34.4333 172.771 33.9452C172.575 33.4571 172.3 33.0373 171.946 32.6859C171.612 32.315 171.209 32.0221 170.738 31.8073C170.266 31.5926 169.746 31.4852 169.176 31.4852ZM193.184 35.6731C193.184 35.1069 193.095 34.5797 192.918 34.0916C192.761 33.584 192.515 33.135 192.182 32.7445C191.867 32.354 191.474 32.0514 191.003 31.8366C190.531 31.6023 190.001 31.4852 189.411 31.4852C188.861 31.4852 188.35 31.5926 187.879 31.8073C187.427 32.0221 187.034 32.315 186.7 32.6859C186.386 33.0373 186.14 33.4669 185.963 33.9745C185.787 34.4626 185.698 34.9897 185.698 35.5559V35.7609C185.698 36.3271 185.777 36.8642 185.934 37.3717C186.111 37.8599 186.356 38.2892 186.671 38.6603C187.005 39.0117 187.397 39.2949 187.849 39.5096C188.301 39.7242 188.802 39.8317 189.352 39.8317C189.942 39.8317 190.472 39.7242 190.944 39.5096C191.435 39.2753 191.838 38.9728 192.152 38.6017C192.486 38.2113 192.741 37.7621 192.918 37.2546C193.095 36.7471 193.184 36.2199 193.184 35.6731ZM196.838 35.6731C196.838 36.6885 196.68 37.6549 196.366 38.5724C196.052 39.4899 195.6 40.2906 195.011 40.9738C194.421 41.6571 193.694 42.2038 192.83 42.6138C191.985 43.0238 191.022 43.2288 189.942 43.2288C188.979 43.2288 188.095 43.0335 187.29 42.6431C186.484 42.2528 185.855 41.7938 185.403 41.2667V42.936H182.073V20.8252H185.698L185.669 30.0795C186.179 29.4547 186.808 28.9666 187.555 28.6152C188.321 28.2638 189.117 28.0881 189.942 28.0881C190.983 28.0881 191.926 28.2931 192.771 28.7031C193.616 29.1131 194.333 29.6597 194.922 30.3431C195.531 31.0264 196.003 31.8269 196.337 32.7445C196.671 33.6621 196.838 34.6383 196.838 35.6731ZM212.299 31.1631V26.0673H215.806V31.1631H220.934V34.5016H215.806V39.5974H212.299V34.5016H207.142V31.1631H212.299ZM231.827 35.7609C231.827 34.7457 231.994 33.7793 232.328 32.8616C232.682 31.944 233.173 31.1338 233.802 30.4309C234.45 29.7281 235.226 29.1716 236.13 28.7616C237.053 28.3321 238.085 28.1173 239.224 28.1173C239.932 28.1173 240.629 28.215 241.317 28.4102C242.004 28.6054 242.643 28.8983 243.232 29.2888C243.841 29.6793 244.391 30.1673 244.882 30.7531C245.374 31.3193 245.776 31.9928 246.091 32.7738L242.672 33.9159C242.378 33.1545 241.906 32.5688 241.258 32.1588C240.609 31.7293 239.941 31.5145 239.254 31.5145C238.625 31.5145 238.075 31.6316 237.603 31.8659C237.132 32.1002 236.729 32.4126 236.395 32.8031C236.081 33.1936 235.845 33.6426 235.688 34.1502C235.531 34.6578 235.452 35.1947 235.452 35.7609C235.452 36.3078 235.541 36.8249 235.717 37.3131C235.894 37.8013 236.15 38.2306 236.484 38.6017C236.817 38.9728 237.211 39.2656 237.662 39.4803C238.134 39.6949 238.655 39.8024 239.224 39.8024C240.069 39.8024 240.825 39.6267 241.493 39.2753C242.181 38.9238 242.761 38.4356 243.232 37.811L246.091 39.7731C245.207 40.9642 244.195 41.8428 243.055 42.4088C241.936 42.9556 240.659 43.2288 239.224 43.2288C238.104 43.2288 237.083 43.0335 236.159 42.6431C235.256 42.2331 234.48 41.6963 233.831 41.0324C233.183 40.3492 232.682 39.5585 232.328 38.6603C231.994 37.7428 231.827 36.7763 231.827 35.7609ZM250.271 28.2638H253.866V36.2881C253.866 38.6506 254.868 39.8317 256.872 39.8317C257.776 39.8317 258.522 39.5096 259.112 38.8653C259.701 38.2013 259.996 37.2546 259.996 36.0246V28.2638H263.591V42.936H260.291V41.0031C260.153 41.2571 259.957 41.5206 259.701 41.7938C259.446 42.0478 259.132 42.2821 258.758 42.4967C258.405 42.7113 257.982 42.8871 257.491 43.0238C257.019 43.1606 256.489 43.2288 255.9 43.2288C254.112 43.2288 252.727 42.6431 251.744 41.4717C250.762 40.3003 250.271 38.6506 250.271 36.5224V28.2638ZM281.748 39.861V42.936H268.605V39.861H272.524V31.3388H268.605V28.2638H275.972V31.3388C276.483 30.2259 277.19 29.4157 278.094 28.9081C279.017 28.3809 280.029 28.1173 281.13 28.1173C282.053 28.1173 282.957 28.2443 283.841 28.4981L283.133 32.0416C282.76 31.905 282.347 31.7976 281.896 31.7195C281.463 31.6219 281.002 31.5731 280.511 31.5731C279.685 31.5731 278.988 31.7195 278.418 32.0123C277.868 32.3052 277.416 32.7054 277.063 33.2131C276.729 33.7012 276.483 34.2771 276.326 34.9409C276.188 35.6047 276.12 36.2978 276.12 37.0203V39.861H281.748ZM300.613 39.861V42.936H287.469V39.861H291.389V31.3388H287.469V28.2638H294.837V31.3388C295.347 30.2259 296.055 29.4157 296.958 28.9081C297.882 28.3809 298.893 28.1173 299.994 28.1173C300.917 28.1173 301.821 28.2443 302.705 28.4981L301.998 32.0416C301.624 31.905 301.212 31.7976 300.76 31.7195C300.328 31.6219 299.866 31.5731 299.375 31.5731C298.55 31.5731 297.852 31.7195 297.283 32.0123C296.732 32.3052 296.281 32.7054 295.927 33.2131C295.593 33.7012 295.347 34.2771 295.19 34.9409C295.053 35.6047 294.984 36.2978 294.984 37.0203V39.861H300.613ZM313.131 40.0953C313.818 40.0953 314.447 39.9685 315.017 39.7146C315.606 39.4606 316.127 39.041 316.579 38.4553L319.673 39.9781C318.848 41.1496 317.846 41.9892 316.667 42.4967C315.508 42.9849 314.329 43.2288 313.131 43.2288C312.031 43.2288 311.019 43.0435 310.095 42.6724C309.191 42.3013 308.406 41.7842 307.738 41.1203C307.089 40.4371 306.579 39.6363 306.205 38.7188C305.852 37.7817 305.675 36.7471 305.675 35.6145C305.675 34.5797 305.842 33.6036 306.176 32.6859C306.529 31.7683 307.011 30.9776 307.62 30.3138C308.248 29.6304 308.995 29.0936 309.859 28.7031C310.744 28.3126 311.716 28.1173 312.777 28.1173C313.838 28.1173 314.801 28.3126 315.665 28.7031C316.549 29.074 317.296 29.5914 317.905 30.2552C318.533 30.919 319.015 31.6902 319.349 32.5688C319.683 33.4473 319.85 34.3747 319.85 35.3509C319.85 35.6828 319.85 35.9659 319.85 36.2003C319.85 36.4149 319.83 36.6396 319.791 36.8738H309.417C309.516 37.8306 309.899 38.6113 310.567 39.2167C311.254 39.8024 312.109 40.0953 313.131 40.0953ZM312.865 31.2509C311.942 31.2509 311.166 31.534 310.537 32.1002C309.928 32.6469 309.585 33.3497 309.506 34.2088H316.048C316.009 33.3302 315.695 32.6176 315.105 32.0709C314.516 31.5243 313.769 31.2509 312.865 31.2509ZM328.635 28.2638V29.9623C329.087 29.3766 329.677 28.9178 330.404 28.5859C331.15 28.254 331.936 28.0881 332.761 28.0881C333.567 28.0881 334.313 28.2345 335.001 28.5273C335.708 28.8007 336.327 29.2107 336.858 29.7573C337.388 30.304 337.801 30.9678 338.095 31.7488C338.409 32.5297 338.567 33.4181 338.567 34.4138V42.936H334.971V34.7359C334.971 33.7402 334.726 32.9495 334.235 32.3638C333.743 31.7781 333.007 31.4852 332.025 31.4852C331.337 31.4852 330.698 31.6707 330.109 32.0416C329.52 32.4126 329.058 32.8616 328.724 33.3888V42.936H325.129V28.2638H328.635ZM343.027 35.7609C343.027 34.7457 343.194 33.7793 343.528 32.8616C343.881 31.944 344.373 31.1338 345.001 30.4309C345.65 29.7281 346.426 29.1716 347.329 28.7616C348.253 28.3321 349.285 28.1173 350.424 28.1173C351.131 28.1173 351.829 28.215 352.516 28.4102C353.204 28.6054 353.842 28.8983 354.432 29.2888C355.041 29.6793 355.591 30.1673 356.082 30.7531C356.573 31.3193 356.976 31.9928 357.29 32.7738L353.872 33.9159C353.577 33.1545 353.106 32.5688 352.457 32.1588C351.809 31.7293 351.141 31.5145 350.453 31.5145C349.825 31.5145 349.274 31.6316 348.803 31.8659C348.331 32.1002 347.929 32.4126 347.595 32.8031C347.281 33.1936 347.045 33.6426 346.887 34.1502C346.73 34.6578 346.652 35.1947 346.652 35.7609C346.652 36.3078 346.74 36.8249 346.917 37.3131C347.094 37.8013 347.349 38.2306 347.683 38.6017C348.017 38.9728 348.41 39.2656 348.862 39.4803C349.333 39.6949 349.854 39.8024 350.424 39.8024C351.269 39.8024 352.025 39.6267 352.693 39.2753C353.381 38.9238 353.96 38.4356 354.432 37.811L357.29 39.7731C356.406 40.9642 355.395 41.8428 354.255 42.4088C353.135 42.9556 351.858 43.2288 350.424 43.2288C349.304 43.2288 348.283 43.0335 347.359 42.6431C346.455 42.2331 345.679 41.6963 345.031 41.0324C344.382 40.3492 343.881 39.5585 343.528 38.6603C343.194 37.7428 343.027 36.7763 343.027 35.7609ZM360.044 28.2638H363.904L367.559 39.3631L371.358 28.2638H375.131L366.969 50.111H363.548L366.29 42.936H365.464L360.044 28.2638Z" fill="white"/>
<mask id="mask0_376_2547" style="mask-type:luminance" maskUnits="userSpaceOnUse" x="0" y="0" width="71" height="71">
<path d="M70.081 0.614746H0V70.2576H70.081V0.614746Z" fill="white"/>
</mask>
<g mask="url(#mask0_376_2547)">
<path d="M23.3603 0.614746H0V23.829H23.3603V0.614746Z" fill="white"/>
<path d="M70.081 0.614746H46.7207V23.829H70.081V0.614746Z" fill="white"/>
<path d="M23.3603 47.0435H0V70.2577H23.3603V47.0435Z" fill="white"/>
<path d="M70.081 47.0435H46.7207V70.2577H70.081V47.0435Z" fill="white"/>
</g>
</g>
<defs>
<clipPath id="clip0_376_2547">
<rect width="377" height="70" fill="white" transform="translate(0 0.27002)"/>
</clipPath>
</defs>
</svg>
