<svg width="415" height="38" viewBox="0 0 415 38" fill="none" xmlns="http://www.w3.org/2000/svg">
<g clip-path="url(#clip0_376_2856)">
<mask id="mask0_376_2856" style="mask-type:luminance" maskUnits="userSpaceOnUse" x="0" y="0" width="38" height="38">
<path d="M37.5642 0.77002H0.564209V37.77H37.5642V0.77002Z" fill="white"/>
</mask>
<g mask="url(#mask0_376_2856)">
<path fill-rule="evenodd" clip-rule="evenodd" d="M3.64754 0.77002C1.94477 0.77002 0.564209 2.15058 0.564209 3.85335V19.27L19.0642 0.77002H3.64754Z" fill="white"/>
<path fill-rule="evenodd" clip-rule="evenodd" d="M0.564209 34.6867C0.564209 36.3894 1.94477 37.77 3.64754 37.77H19.0642L0.564209 19.27V34.6867Z" fill="white"/>
<path fill-rule="evenodd" clip-rule="evenodd" d="M19.0642 22.3533V37.77L37.5642 19.27H22.1475C20.4448 19.27 19.0642 20.6506 19.0642 22.3533Z" fill="white"/>
<path fill-rule="evenodd" clip-rule="evenodd" d="M34.4809 0.77002H19.0642L37.5642 19.27V3.85335C37.5642 2.15058 36.1836 0.77002 34.4809 0.77002Z" fill="white"/>
</g>
<path fill-rule="evenodd" clip-rule="evenodd" d="M77.501 5.85791L67.4364 14.3651V5.85791H63.8215V24.4434H67.4364V18.4226L71.2147 15.4125L79.0639 24.4434H83.7545L73.82 12.991L81.9954 5.85791H77.501Z" fill="white"/>
<path fill-rule="evenodd" clip-rule="evenodd" d="M94.6701 5.85889V21.2046H106.721V24.4439H91.0547V5.85889H94.6701Z" fill="white"/>
<path fill-rule="evenodd" clip-rule="evenodd" d="M124.774 16.3617H117.218V21.2037H130.442V24.4434H113.603V5.8584H129.693V9.09814H117.218V13.1547H124.774V16.3617Z" fill="white"/>
<path fill-rule="evenodd" clip-rule="evenodd" d="M139.496 24.4439H143.112V5.85889H139.496V24.4439Z" fill="white"/>
<path fill-rule="evenodd" clip-rule="evenodd" d="M171.967 5.85889V24.4439H168.775L157.702 11.7805H157.669V24.4439H154.054V5.85889H157.245L168.319 18.5208H168.352V5.85889H171.967Z" fill="white"/>
<path fill-rule="evenodd" clip-rule="evenodd" d="M194.082 16.3617H186.525V21.2037H199.749V24.4434H182.91V5.8584H198.999V9.09814H186.525V13.1547H194.082V16.3617Z" fill="white"/>
<path fill-rule="evenodd" clip-rule="evenodd" d="M208.803 24.1001V5.51465H219.681C222.579 5.51465 224.371 6.33337 225.576 7.57657C226.553 8.59122 227.14 9.89991 227.14 11.3391C227.14 13.8915 225.316 15.8547 222.841 16.6725L227.465 24.1001H223.296L219.127 17.1962H212.418V24.1001H208.803ZM212.418 8.75391V13.9896H220.202C222.027 13.9896 223.525 12.7791 223.525 11.3722C223.525 10.7836 223.264 10.2272 222.873 9.80123C222.027 8.85207 220.919 8.75391 219.681 8.75391H212.418Z" fill="white"/>
<path fill-rule="evenodd" clip-rule="evenodd" d="M245.965 24.1001V5.51465H256.941C259.188 5.51465 261.241 5.97333 262.738 7.51066C263.748 8.52525 264.302 9.86719 264.302 11.3722C264.302 12.975 263.683 14.2188 262.706 15.2006C261.273 16.6398 259.449 17.1962 256.843 17.1962H249.58V24.1001H245.965ZM249.58 8.75391V13.9896H256.843C258.342 13.9896 259.254 13.7278 259.97 13.0409C260.426 12.5827 260.687 11.9936 260.687 11.3722C260.687 10.7499 260.459 10.194 260.068 9.76898C259.156 8.78711 257.854 8.75391 256.941 8.75391H249.58Z" fill="white"/>
<path fill-rule="evenodd" clip-rule="evenodd" d="M283.198 16.0394H275.641V20.8814H288.865V24.1211H272.026V5.53564H288.116V8.77535H275.641V12.8324H283.198V16.0394Z" fill="white"/>
<path fill-rule="evenodd" clip-rule="evenodd" d="M297.918 24.1206V5.53564H308.797C311.696 5.53564 313.487 6.35386 314.692 7.59712C315.669 8.61218 316.255 9.9204 316.255 11.36C316.255 13.9124 314.432 15.8752 311.956 16.693L316.581 24.1206H312.412L308.244 17.2172H301.534V24.1206H297.918ZM301.534 8.77488V14.0106H309.318C311.142 14.0106 312.64 12.7996 312.64 11.3928C312.64 10.8041 312.38 10.2477 311.989 9.82224C311.142 8.87309 310.034 8.77488 308.797 8.77488H301.534Z" fill="white"/>
<path fill-rule="evenodd" clip-rule="evenodd" d="M343.806 5.53564L335.631 12.6687L345.565 24.1206H340.875L333.026 15.0902L329.247 18.0999V24.1206H325.633V5.53564H329.247V14.0434L339.311 5.53564H343.806Z" fill="white"/>
<path fill-rule="evenodd" clip-rule="evenodd" d="M352.854 24.1211H356.469V5.53613H352.854V24.1211Z" fill="white"/>
<path fill-rule="evenodd" clip-rule="evenodd" d="M385.326 5.53564V24.1206H382.134L371.06 11.4578H371.028V24.1206H367.413V5.53564H370.604L381.678 18.1981H381.711V5.53564H385.326Z" fill="white"/>
<path fill-rule="evenodd" clip-rule="evenodd" d="M410.913 10.1494C409.838 9.23293 407.264 8.05517 403.617 8.05517C401.304 8.05517 399.383 8.67703 399.383 10.4435C399.383 12.2436 402.216 12.3085 405.148 12.5049C408.698 12.734 414.3 13.094 414.3 18.4275C414.3 23.0081 410.326 24.775 405.604 24.775C400.327 24.775 396.908 22.6813 394.66 20.7831L396.843 18.2638C398.438 19.5725 401.24 21.6013 405.669 21.6013C408.47 21.6013 410.652 20.7831 410.652 18.9179C410.652 16.8242 408.632 16.3006 405.148 16.0392C400.751 15.7119 395.735 15.3846 395.735 10.7707C395.735 6.22277 400.1 4.88184 403.747 4.88184C407.949 4.88184 411.532 6.4519 413.127 7.62967L410.913 10.1494Z" fill="white"/>
</g>
<defs>
<clipPath id="clip0_376_2856">
<rect width="413.871" height="37" fill="white" transform="translate(0.564209 0.77002)"/>
</clipPath>
</defs>
</svg>
